<?xml version="1.0" encoding="utf-8"?>
<!-- Generator: Adobe Illustrator 23.0.1, SVG Export Plug-In . SVG Version: 6.00 Build 0)  -->
<svg version="1.1" id="Layer_1" xmlns="http://www.w3.org/2000/svg" xmlns:xlink="http://www.w3.org/1999/xlink" x="0px" y="0px"
	 viewBox="0 0 64 64" style="enable-background:new 0 0 64 64;" xml:space="preserve">
<style type="text/css">
	.st0{fill:#FFFFFF;}
	.st1{fill:#FFFFFF;stroke:#A52125;stroke-miterlimit:10;}
	.st2{stroke:#000000;stroke-width:2;stroke-miterlimit:10;}
	.st3{fill:#A52125;stroke:#A52125;stroke-miterlimit:10;}
	.st4{fill:#D8A535;}
	.st5{fill:#F9C83A;}
</style>
<g>
	<g>
		<path class="st0" d="M32,4.7c15.8,0,28.7,12.8,28.7,28.7c0,4.7-1.1,9.1-3.2,13c-0.1,0-0.3-0.1-0.4-0.1c-0.1,0.1-0.1,0.2-0.2,0.4
			c-1.2-0.3-2.5-0.6-3.8-0.8c0.1-0.1,0.1-0.3,0.2-0.4c-0.2,0-0.3,0-0.5-0.1c2.1-3.5,3.2-7.6,3.2-12C56.1,20,45.2,9.2,32,9.2
			C18.7,9.2,7.8,20,7.8,33.4c0,4.2,1.1,8.2,3.1,11.7c-0.1,0-0.3,0.1-0.5,0.1c0.1,0.1,0.1,0.3,0.2,0.4C9.3,45.7,8,46,6.7,46.2
			c-0.1-0.1-0.1-0.3-0.2-0.4c-0.1,0-0.3,0.1-0.4,0.1c-1.8-3.8-2.9-8-2.9-12.5C3.3,17.5,16.3,4.7,32,4.7 M32,2.7
			c-17,0-30.8,13.8-30.8,30.7c0,4.6,1,9.1,3.1,13.4l0.8,1.6l0.4-0.1l0.1,0.2L7,48.2c0.6-0.1,1.3-0.2,2-0.3c0.6-0.1,1.2-0.2,1.9-0.3
			l2.8-0.4l-0.4-0.7l0.5-0.2l-1.2-2.1c-1.8-3.3-2.8-7-2.8-10.7c0-12.2,9.9-22.2,22.2-22.2c12.2,0,22.2,9.9,22.2,22.2
			c0,3.9-1,7.8-3,11l-1.3,2.1l0.5,0.2l-0.5,0.8l3,0.4c1.3,0.2,2.4,0.4,3.7,0.7l1.5,0.3l0.2-0.4l0.4,0.1l0.7-1.4
			c2.2-4.4,3.4-9.1,3.4-13.9C62.7,16.5,49,2.7,32,2.7L32,2.7z"/>
	</g>
	<g>
		<ellipse class="st1" cx="32" cy="33" rx="25.6" ry="26.6"/>
		<path d="M32,14.4l4.8,9.7l10.7,1.5l-7.7,7.5l1.8,10.6L32,38.6l-9.6,5.1l1.8-10.6l-7.7-7.5L27.2,24L32,14.4 M32,10.2l-1.6,3.3
			L26,22.3l-9.7,1.4l-3.6,0.6l2.7,2.6l7.1,6.9l-1.6,9.7l-0.7,3.6l3.2-1.7l8.7-4.6l8.7,4.6l3.2,1.7l-0.7-3.6l-1.6-9.7l7.1-6.9
			l2.7-2.6l-3.6-0.6L38,22.3l-4.4-8.8L32,10.2L32,10.2z"/>
		<g>
			<g>
				<path class="st2" d="M7.1,46.4c-1.8-3.7-2.9-7.9-2.9-12.3C4.2,18.7,16.7,6.3,32,6.3s27.8,12.5,27.8,27.8c0,4.6-1.1,9-3.2,12.8
					c0.3,0.1,0.6,0.1,1,0.2c2-3.9,3.2-8.3,3.2-13c0-15.9-12.9-28.7-28.7-28.7S3.3,18.2,3.3,34.1c0,4.5,1.1,8.7,2.9,12.5
					C6.5,46.5,6.8,46.4,7.1,46.4z"/>
				<path class="st2" d="M32,9C18.1,9,7,20.2,7,34.1c0,4.3,1.1,8.3,3,11.9c0.3-0.1,0.7-0.1,1-0.2C9,42.3,7.8,38.3,7.8,34.1
					C7.8,20.7,18.7,9.9,32,9.9s24.2,10.8,24.2,24.2c0,4.4-1.1,8.5-3.2,12c0.3,0.1,0.7,0.1,1,0.2c2-3.6,3.2-7.7,3.2-12.2
					C57,20.2,45.9,9,32,9z"/>
			</g>
			<path class="st3" d="M10.6,46.2c-2-3.6-3.2-7.7-3.2-12.1C7.3,20.5,18.4,9.4,32,9.4s24.7,11.1,24.7,24.7c0,4.6-1.2,8.9-3.4,12.5
				c1.3,0.2,2.6,0.5,3.8,0.8c2.1-3.9,3.3-8.5,3.3-13.3C60.3,18.5,47.6,5.8,32,5.8S3.7,18.5,3.7,34.1c0,4.6,1.1,9,3.1,12.8
				C8,46.7,9.4,46.4,10.6,46.2z"/>
		</g>
		<g>
			<g>
				<path d="M19.2,46.9c0.9,0.4,1.9-0.1,2.3,0.8c0.6,0,1.1,0,1.6,0.1c1.1,0.3,2.2,0.6,3.3,0.8c1,0.1,1.5,0.6,1.4,1.4
					c-0.3,2.7-0.7,5.4-1.1,8c0,0.3-0.9,0.7-1.4,0.7c-0.1,0-0.1,0-0.1,0c-2.7-0.4-5.4-1.1-7.9-2c-1.1-0.4-1.5-1.1-1.2-1.9
					C17.1,52.1,18.1,49.5,19.2,46.9 M24.3,56.2c0.4-1.9,0.8-3.7,1.1-5.7c-1.3-0.3-2.7-0.7-4-1c0,0,0,0-0.1,0c-0.2,0-0.6,0.3-0.7,0.5
					c-0.5,1.4-1,2.9-1.4,4.4c-0.1,0.2,0.2,0.7,0.5,0.8C21.2,55.6,22.7,55.9,24.3,56.2 M18.1,44.4l-0.7,1.8l-1,2.4
					c-0.8,1.8-1.4,3.6-2.2,5.5c-0.3,0.8-0.3,1.6,0,2.4c0.3,0.6,0.9,1.4,2.3,1.9c2.9,1.1,5.6,1.8,8.3,2.1c0.1,0,0.3,0,0.4,0
					c1,0,3.1-0.6,3.2-2.2c0.5-2.9,0.9-5.8,1.1-8.1c0.2-1.6-0.8-3.2-3.1-3.5c-0.7-0.1-1.3-0.3-2-0.4c-0.4-0.1-0.8-0.2-1.1-0.3
					c-0.2-0.2-0.7-0.2-1.1-0.2c-0.8-0.6-1.6-0.6-2-0.7c-0.1,0-0.4,0-0.4,0L18.1,44.4L18.1,44.4z M21.4,53.7c0.2-0.7,0.4-1.3,0.7-2
					c0.4,0.1,0.8,0.2,1.1,0.3L22.8,54C22.3,53.8,21.9,53.7,21.4,53.7L21.4,53.7z"/>
				<path d="M11.4,42c1.6,1.2,3.1,2,4.5,2.8c1.7,1,2,2.5,0.4,3.5c-0.3,0.2-0.7,0.4-1,0.5c0.4,0.6,1.2,1.3,1.1,1.7
					c-0.4,1.3-0.9,2.8-1.9,3.9c-0.3,0.3-0.7,0.5-1.1,0.5c-1.4,0-3.6-1.1-5-2.8c0.5-0.3,1.1-0.7,1.5-1c1.1,0.8,1.8,1.1,2.4,1.1
					c0.7,0,1-0.6,1.3-1.9c-0.5-0.3-1-0.5-1.4-0.8c-0.5-0.3-1-0.5-1.4-0.9c-0.9,1-1.4,2.5-3.1,2.5c-0.7,0-1.5-0.3-2.7-1
					c0.8-0.5,1.5-0.9,1.9-1.3c0.5-0.6,0.7-1.3,1.1-2c0.3-0.6,0.3-1.3,1.3-1.3c0.5,0,1.2-1.1,1.1-1.2C9.7,43,11.4,43,11.4,42
					 M13.1,47.4c0.5,0,1-0.3,1.3-0.8c-0.7-0.4-1.2-0.7-1.8-1.1c-0.3,0.5-0.6,1-0.9,1.4C12.2,47.3,12.7,47.4,13.1,47.4 M9.4,38.3
					l0.1,3.3c-0.8,0.8-1.1,1.5-1,2.2c-1.3,0.4-1.8,1.5-2,2c0,0.1-0.1,0.1-0.1,0.2c-0.1,0.3-0.2,0.6-0.4,0.8c-0.2,0.4-0.3,0.8-0.5,1
					c-0.1,0.1-0.5,0.4-0.8,0.5c-0.2,0.1-0.5,0.3-0.8,0.5l-2.5,1.6l2.6,1.5c1,0.6,1.8,1,2.6,1.1l0.2,0.3c1.6,2.1,4.3,3.5,6.4,3.5
					c1.3,0,2.2-0.6,2.6-1.1c1.2-1.3,1.8-3.1,2.3-4.6c0.2-0.7,0-1.3-0.3-1.8c1.1-1.1,1.1-2.1,1.1-2.8c-0.1-1.3-1-2.6-2.5-3.3
					c-1.4-0.8-2.8-1.5-4.3-2.7L9.4,38.3L9.4,38.3z"/>
				<path d="M37.8,48.9c0.4,2.9,0.8,5.6,1,8.5c0.1,1.1-1.2,1.8-3.7,1.8c0.3-0.9,0.7-1.6,0.8-2.5c0.1-0.6,0-1.2-0.3-1.7
					c-1-1.3-2.5-2.1-4.3-2.9c-0.1,2.5-0.3,4.7-0.4,7.1c-1.1-0.1-1.9-0.1-2.9-0.2c0.4-3.3,0.8-6.7,1.1-10c0.7,0.1,1.3,0.1,2.1,0.2
					c0,0.3,0.1,0.7,0.1,1.1c1.7,0.2,3.1,1,4.4,2.1c-0.1-1.1-0.1-2-0.2-3.1C36.3,49.1,37.1,49,37.8,48.9 M39.5,46.8L37.5,47
					c-0.8,0.1-1.4,0.2-2.2,0.2l-1.9,0.1l0.1,1.4c-0.2-0.1-0.4-0.1-0.6-0.2v-1.1l-1.6-0.1c-0.7,0-1.3-0.1-2-0.2l-1.9-0.2l-0.2,1.9
					l-0.5,4.5l-0.6,5.5L26,60.7l1.9,0.2c1.1,0.1,1.9,0.2,3,0.3l1.9,0.1v-0.1h2.4c2.3,0,3.9-0.6,4.8-1.5c0.6-0.7,0.9-1.4,0.8-2.3
					c-0.2-2-0.4-4-0.7-6c-0.1-0.9-0.2-1.7-0.3-2.6L39.5,46.8L39.5,46.8z M32.7,60.3l0.1-1.1l0.2-4.1c0.4,0.3,0.8,0.6,1,1
					c0,0.1,0,0.2,0,0.4c-0.1,0.4-0.2,0.9-0.5,1.4c-0.1,0.2-0.2,0.5-0.3,0.7L32.7,60.3L32.7,60.3z"/>
				<path d="M47.5,46.4c1.2,3.1,2.5,6.1,3.7,9.2c-0.8,0.4-1.6,0.8-2.5,1.1c-0.2-0.2-0.3-0.4-0.5-0.6c0,0.1-0.1,0.1-0.1,0.2
					c0.1,0.7-0.4,1.1-1.1,1.2c-1,0.3-1.8,0.4-2.6,0.4c-1.7,0-2.9-0.7-3.8-2.1c-1.3-2.1-1.6-4.5-1.8-6.9c0.8-0.3,1.4-0.5,2.3-0.8
					c0.2,1,0.2,1.9,0.4,2.8c0.2,0.9,0.3,1.7,0.7,2.5c0.7,1.2,1.4,1.9,2.6,1.9c0.9,0,1.8-0.3,3-1c-0.8-2.4-1.6-4.8-2.4-7.2
					C46.1,47,46.8,46.7,47.5,46.4 M48.5,43.9l-1.7,0.7c-0.7,0.3-1.3,0.5-2,0.8L43,45.9l0.6,1.8l1,3l0.9,2.6
					c-0.2,0.2-0.4,0.2-0.6,0.2c-0.2,0-0.5,0-1-0.9c-0.2-0.5-0.4-1.1-0.5-1.7v-0.3c-0.1-0.5-0.2-1.1-0.3-1.6c0-0.4-0.1-0.7-0.1-1.1
					l-0.4-2.3l-2.2,0.9c-0.8,0.3-1.4,0.5-2.2,0.8l-1.4,0.5l0.1,1.4c0.2,2.5,0.5,5.3,2.1,7.8c1.3,2,3.2,3,5.4,3c1,0,1.9-0.2,3.1-0.5
					c0.6-0.2,1.1-0.4,1.4-0.7l0.6-0.3c0.9-0.4,1.7-0.8,2.6-1.2l1.5-0.8L53,54.8l-1.6-3.9l-2.1-5.3L48.5,43.9L48.5,43.9z"/>
				<path d="M54.6,42.8c0.6,0,1.1,0.4,1.9,1.2c-0.6,0.7-1.1,1.4-2.3,1.5c-0.7,0-1.4,0.7-2.3,1.1c2.1,0.6,4,1,6.1,1.1
					c1.4,0,2.3,0.6,2.5,1.8c0.2,1.2-1,2.1-2.1,2.9c-0.8,0.5-1.6,1-2.5,1.4c-1.1,0.4-1.7,0.7-2.4,0.7c-0.8,0-1.2-0.4-2.1-1.2
					c0.6-0.5,1.2-1.1,1.8-1.6c0.3,0.2,0.6,0.2,0.9,0.2c1.1,0,1.9-1,2.8-1.4c-2.6-0.3-5-0.8-7.5-1.6c0.5-0.5,0.8-0.8,1.1-1.1
					c-0.1-0.1-0.2-0.1-0.3-0.2c-0.3,0.1-0.7,0.2-1.1,0.3c-0.2-0.7-0.3-1.3-0.5-2.1c1.8-0.8,3.4-1.8,5.2-2.8
					C54.1,42.9,54.4,42.8,54.6,42.8 M54.6,40.9L54.6,40.9c-0.6,0-1.2,0.2-1.8,0.6c-1.4,0.9-3.2,1.8-5,2.7l-1.4,0.7l0.4,1.5
					c0.2,0.7,0.3,1.3,0.5,2L46,49.7l1.8,0.6v0.1h0.1l1.1,0.4c0.7,0.2,1.4,0.5,2.1,0.7c-0.2,0.2-0.5,0.4-0.7,0.6l-1.6,1.3l1.4,1.4
					c0.9,0.9,1.9,1.8,3.4,1.8c1.1,0,2-0.4,3.2-1.1c1-0.5,1.8-1.1,2.6-1.5c1-0.7,3.3-2.1,3-4.7c-0.2-1.2-1-3.3-4.3-3.4
					c-0.2,0-0.4,0-0.6,0c0.1-0.1,0.1-0.1,0.1-0.2c0.1-0.1,0.2-0.2,0.3-0.3l1.1-1.2L57.9,43C57.1,41.9,56.1,40.9,54.6,40.9L54.6,40.9
					z"/>
			</g>
			<g>
				<path class="st4" d="M19.2,46.9c0.9,0.4,1.9-0.1,2.3,0.8c0.6,0,1.1,0,1.6,0.1c1.1,0.3,2.2,0.6,3.3,0.8c1,0.1,1.5,0.6,1.4,1.4
					c-0.3,2.7-0.7,5.4-1.1,8c-0.1,0.3-1.1,0.7-1.5,0.7c-2.7-0.4-5.4-1.1-7.9-2c-1.1-0.4-1.5-1.1-1.2-1.9
					C17.1,52.1,18.1,49.5,19.2,46.9z M25.4,50.5c-1.3-0.3-2.7-0.7-4-1c-0.2-0.1-0.7,0.2-0.7,0.5c-0.5,1.4-1,2.9-1.4,4.4
					c-0.1,0.2,0.2,0.7,0.5,0.8c1.4,0.5,3,0.9,4.6,1.2C24.6,54.3,25,52.5,25.4,50.5z"/>
				<path class="st4" d="M11.4,42c1.6,1.2,3.1,2,4.5,2.8c1.7,1,2,2.5,0.4,3.5c-0.3,0.2-0.7,0.4-1,0.5c0.4,0.6,1.2,1.3,1.1,1.7
					c-0.4,1.3-0.9,2.8-1.9,3.9c-1,1.1-4.3-0.1-6.1-2.4c0.5-0.3,1.1-0.7,1.5-1c2.6,1.6,3,1.4,3.7-0.8c-0.5-0.3-1-0.5-1.4-0.8
					c-0.5-0.3-1-0.5-1.4-0.9C9.5,50,9,52.5,5.1,50.2c0.8-0.5,1.5-0.9,1.9-1.3c0.5-0.6,0.6-1.4,1-2c0.3-0.6,0.3-1.3,1.3-1.3
					c0.5,0,1.2-1,1.2-1.2C9.7,43,11.4,43,11.4,42z M14.4,46.7c-0.7-0.4-1.2-0.7-1.8-1c-0.3,0.5-0.5,0.9-0.8,1.3
					C12.9,47.6,13.6,47.7,14.4,46.7z"/>
				<path class="st4" d="M29.1,48.9c0.7,0.1,1.3,0.1,2.1,0.2c0,0.3,0.1,0.7,0.1,1.1c1.7,0.2,3.1,1,4.4,2.1c-0.1-1.1-0.1-2-0.2-3.1
					c0.8-0.1,1.5-0.1,2.3-0.2c0.4,2.9,0.8,5.6,1,8.5c0.1,1.1-1.2,1.8-3.7,1.8c0.3-0.9,0.7-1.6,0.8-2.5c0.1-0.6,0-1.2-0.3-1.7
					c-1-1.3-2.5-2.1-4.3-2.9c-0.1,2.5-0.3,4.7-0.4,7.1c-1.1-0.1-1.9-0.1-2.9-0.2C28.4,55.7,28.8,52.3,29.1,48.9z"/>
				<path class="st4" d="M38.7,49c0.8-0.3,1.6-0.5,2.5-0.8c0.2,1,0.2,2,0.4,2.8c0.1,0.3,0.1,0.5,0.1,0.8c0.1,1.2,0.7,2.3,1.7,3
					c1.1,0.8,2.2,0.8,4.4-0.4c-0.8-2.4-1.6-4.8-2.4-7.2c0.8-0.3,1.5-0.7,2.2-1c1.2,3.1,2.7,6.3,3.9,9.4c-0.8,0.4-1.9,0.8-2.8,1.1
					c-0.2-0.2-0.3-0.4-0.5-0.6c0,0.1-0.1,0.1-0.1,0.2c0.1,0.7-0.4,1.1-1.1,1.2c-3.2,0.9-5.1,0.3-6.4-1.7
					C39.2,53.7,38.9,51.4,38.7,49z"/>
				<path class="st4" d="M51.9,46.2c2.1,0.6,4,1,6.1,1.1c1.4,0,2.3,0.6,2.5,1.8c0.2,1.2-1,2.1-2.1,2.9c-0.8,0.5-1.6,1-2.5,1.4
					c-2.3,1.2-3,1.1-4.4-0.4c0.6-0.5,1.2-1.1,1.8-1.6c1.4,0.8,2.6-0.6,3.6-1.1c-2.6-0.3-5-0.8-7.5-1.6c0.5-0.5,0.8-0.8,1.1-1.1
					c-0.1-0.1-0.2-0.1-0.3-0.2c-0.3,0.1-0.7,0.2-1.1,0.3c-0.2-0.7-0.3-1.3-0.5-2.1c1.8-0.8,3.4-1.8,5.2-2.8c0.9-0.6,1.6-0.3,2.8,1
					c-0.6,0.7-1.1,1.4-2.3,1.5C53.6,45.2,52.8,45.8,51.9,46.2z"/>
			</g>
		</g>
		<g>
			<polygon class="st5" points="32,38.7 32,14.4 27.2,24 16.5,25.6 24.3,33.1 22.4,43.7 			"/>
			<polygon class="st4" points="32,38.7 32,14.4 36.8,24 47.5,25.6 39.7,33.1 41.6,43.7 			"/>
		</g>
	</g>
</g>
</svg>
