<?xml version="1.0" encoding="utf-8"?>
<!-- Generator: Adobe Illustrator 23.0.1, SVG Export Plug-In . SVG Version: 6.00 Build 0)  -->
<svg version="1.1" id="Layer_1" xmlns="http://www.w3.org/2000/svg" xmlns:xlink="http://www.w3.org/1999/xlink" x="0px" y="0px"
	 viewBox="0 0 64 64" style="enable-background:new 0 0 64 64;" xml:space="preserve">
<style type="text/css">
	.st0{fill:#FFFFFF;}
	.st1{stroke:#000000;stroke-miterlimit:10;}
	.st2{fill:#E07026;}
</style>
<g>
	<path class="st0" d="M15.1,30.8c0.1,0,0.5,0,1.2,0.1c1.5-0.2,3.6-0.1,4-0.1c12.1,0,24.2,0,36.3,0c0.5,0,1.1,0,1.6-0.1
		c0.1-0.1,0.1-0.2,0.2-0.3c-0.3-0.4-0.7-1-1-1c-1.3-0.1-1.1-1.2-1.6-2c-0.5-0.7-1.4-1.1-2.1-1.6c0,0,0-0.1,0-0.1
		c-0.3-0.9-1-1.3-1.9-1c-0.8,0.3-1.2-0.1-1.6-0.8c-0.3-0.5-0.9-0.9-1.4-1c-0.8-0.1-1.1-0.3-1.3-1.1c-0.3-1.3-1.2-1.6-2.3-0.9
		c-0.8,0.5-1.2,0.4-1.7-0.4c-0.4-0.7-1.1-1-1.9-0.7c-0.9,0.4-1.3,0.2-1.7-0.7c-0.6-1.3-1.8-1.4-2.6-0.2c-0.5,0.8-0.9,0.6-1.8,0.4
		c-1.6-0.4-3.3-0.2-4.9-0.3c-0.2,0-0.3,0.3-0.5,0.4c-0.5,0.2-1,0.5-1.4,0.4c-1.1-0.4-1.8-0.1-2.3,0.9c-0.2,0.4-0.8,0.7-1.2,0.7
		c-0.9,0-1.5,0.2-1.9,1.1c-0.2,0.4-0.7,0.8-1.2,0.9c-1,0.1-1.5,0.5-1.6,1.5c-0.1,1.1-0.6,1.3-1.6,0.8c-0.8-0.4-1.5-0.3-2,0.5
		c-0.4,0.7-0.9,0.8-1.7,0.6c-1.1-0.3-1.8,0.2-1.9,1.3c-0.1,0.9-0.4,1.2-1.3,1.2c-0.5,0.1-0.9,0.5-1.4,0.8c0.1,0.1,0.1,0.3,0.2,0.4
		C12.2,30.7,13.7,30.6,15.1,30.8z"/>
	<path class="st0" d="M24.1,19.8c0.1-0.1,0.2-0.3,0.3-0.4c-3-4.9-6.1-9.8-9.1-14.7c-0.2-0.3-0.8-0.3-1.2-0.4c0,0.5-0.3,1.1-0.1,1.4
		c3,4.5,6.1,8.9,9.1,13.4C23.4,19.4,23.8,19.6,24.1,19.8z"/>
	<path class="st0" d="M16.8,24.1c0.1-0.2,0.1-0.3,0.2-0.5c-3.6-4-7.2-8.1-10.8-12.1C6,11.4,5.4,11.5,5,11.5c0.1,0.5-0.1,1.1,0.2,1.4
		c3.5,3.7,7,7.3,10.6,10.9C16,24,16.4,24,16.8,24.1z"/>
	<path class="st0" d="M42.9,56c-3.5,0-6.9,0-10.4,0c-0.4,0-0.8,0.1-1.1-0.1c-0.1,0-0.2,0-0.5-0.1c-2.6,0.1-5.2,0.1-5.6,0.2
		c-0.3,0-0.6,0.5-0.8,0.8c-0.1,0.2,0,0.5,0,0.8c0,2.2,0,2.2,2.2,2.2c5,0,10,0,15,0c2.6,0,2.6,0,2.6-2.6C44.3,56.2,43.9,56,42.9,56z"
		/>
	<path class="st0" d="M53,39.6c-2.5,0-4.9,0-5.2,0c-0.3,0-0.6,0-0.9,0c-11.5,0-23.1,0-34.6,0c-0.5,0-1,0-1.7,0
		c0.2,0.6,0.3,1,0.5,1.4c1.7,4.2,4.4,7.7,8,10.5c2.4,1.9,4.9,3.3,8.1,2.8c0.1,0,2.2,0,4.4,0c0.3-0.1,0.6,0,0.9,0c3.7,0,7.5,0,11.2,0
		c0.8,0,1.7-0.2,2.4-0.6c3.7-1.9,6.8-4.7,9-8.2c1.1-1.7,2-3.7,3.1-5.8C56.2,39.6,54.6,39.6,53,39.6z"/>
	<path class="st0" d="M20.4,32.5c-0.4,0-1.9,0.1-3.3,0c-1.1,0-1.9,0-2,0c-1.9,0-3.7,0-5.8,0c0.2,1.4,0.4,2.6,0.5,3.8
		c0.1,1.2,0.6,1.6,1.9,1.6c7.3-0.1,14.6,0,21.9,0c4.8,0,9.6,0,14.4,0c0.3,0,2.9-0.1,5.5,0c1.4-0.1,2.9,0,4.3,0c0.4,0,1-0.4,1-0.6
		c0.3-1.5,0.5-3,0.8-4.7c-0.7,0-1.2,0-1.7,0C45.2,32.5,32.8,32.5,20.4,32.5z"/>
	<path d="M58.3,27.7c-0.2-0.2-0.5-0.5-0.7-0.7c-1.3-1.3-2.5-3-4.1-3.9c-1.1-0.6-2.4-1-3.5-1.8c-0.5-0.4-1-0.8-1.5-1.2
		c-0.5-0.4-1-1.1-1.5-1.1c-1.7-0.1-3.3-0.5-5-1.1c-0.5-0.2-1-0.3-1.4-0.6c-1.2-1.1-2.7-1.2-4.1-0.4c-0.4,0.2-0.9,0.3-1.4,0.3
		c-1.5,0-3.1-0.2-4.5,0c-1.6,0.2-3.1,0.8-4.8,1.2c-1.4-2.2-2.7-4.4-4-6.5c-1.7-2.7-3.3-5.4-5-8.1c-0.9-1.4-2.4-1.8-3.7-1
		c-1.3,0.8-1.6,2.3-0.7,3.7c0.3,0.5,0.7,1,1,1.5c2.7,4,5.4,7.9,8.2,11.9c0.7,1,0.5,1.4-0.6,1.9c-0.7,0.3-1.4,0.8-2.2,1.3
		c-1.2-1.4-2.5-2.8-3.8-4.3c-2.5-2.8-4.9-5.6-7.4-8.4c-1.1-1.2-2.7-1.3-3.8-0.3c-1.1,1-1.1,2.6,0,3.8c0.4,0.4,0.8,0.8,1.2,1.2
		c3.1,3.2,6.3,6.4,9.5,9.7c-0.5,0.2-0.9,0.2-1.1,0.4c-1.4,1.4-2.9,2.8-4.3,4.2c-0.3,0.3-0.3,1-0.6,1.1c-1.1,0.4-1,1.3-0.9,2.1
		c0.6,9.4,4.9,16.8,12.9,21.7c1.6,1,2.4,1.9,2.2,3.9c-0.2,2.4,0.8,3.3,3.3,3.3c5.1,0,10.2,0,15.3,0c4.2,0,4.6-0.4,4.6-4.5
		c0-1,0.3-1.5,1.2-2c8.2-4.7,12.8-11.8,13.9-21.3c0.3-2.2-1-3.7-1.9-5.4C59,28.1,58.6,28,58.3,27.7z M14,5.7c-0.2-0.3,0-0.9,0.1-1.4
		c0.4,0.1,1,0.1,1.2,0.4c3.1,4.9,6.1,9.8,9.1,14.7c-0.1,0.1-0.2,0.3-0.3,0.4c-0.3-0.2-0.7-0.4-1-0.7C20.1,14.7,17,10.2,14,5.7z
		 M5.2,12.9C4.9,12.6,5,11.9,5,11.5c0.4,0,1-0.1,1.2,0.1c3.6,4,7.2,8,10.8,12.1c-0.1,0.2-0.1,0.3-0.2,0.5c-0.3-0.1-0.8-0.2-1-0.4
		C12.2,20.1,8.6,16.5,5.2,12.9z M11.9,29.5c0.8-0.1,1.2-0.4,1.3-1.2c0.1-1.1,0.8-1.6,1.9-1.3c0.8,0.2,1.3,0.1,1.7-0.6
		c0.5-0.8,1.2-0.9,2-0.5c1,0.5,1.5,0.2,1.6-0.8c0.1-1,0.7-1.4,1.6-1.5c0.4-0.1,1-0.5,1.2-0.9c0.4-0.9,1-1.1,1.9-1.1
		c0.4,0,1-0.4,1.2-0.7c0.5-1,1.2-1.3,2.3-0.9c0.4,0.1,1-0.2,1.4-0.4c0.2-0.1,0.3-0.4,0.5-0.4c1.6,0,3.3-0.1,4.9,0.3
		c0.8,0.2,1.3,0.4,1.8-0.4c0.8-1.3,2-1.2,2.6,0.2c0.4,0.9,0.8,1.1,1.7,0.7c0.8-0.3,1.4-0.1,1.9,0.7c0.4,0.8,0.9,0.8,1.7,0.4
		c1.1-0.7,2-0.4,2.3,0.9c0.2,0.8,0.5,1,1.3,1.1c0.5,0.1,1.2,0.5,1.4,1c0.4,0.7,0.7,1.1,1.6,0.8c0.9-0.3,1.6,0,1.9,1c0,0,0,0.1,0,0.1
		c0.7,0.5,1.6,0.9,2.1,1.6c0.5,0.7,0.3,1.8,1.6,2c0.4,0,0.7,0.7,1,1c-0.1,0.1-0.1,0.2-0.2,0.3c-0.5,0-1.1,0.1-1.6,0.1
		c-12.1,0-24.2,0-36.3,0c-0.5,0-2.6-0.1-4,0.1c-0.7,0-1.1,0-1.2-0.1c-1.4-0.1-2.9,0-4.3,0c-0.1-0.1-0.1-0.3-0.2-0.4
		C11,30,11.5,29.5,11.9,29.5z M41.6,59.8c-5,0-10,0-15,0c-2.2,0-2.2,0-2.2-2.2c0-0.3-0.1-0.6,0-0.8c0.2-0.3,0.5-0.8,0.8-0.8
		c0.4-0.1,3.1-0.1,5.6-0.2c0.3,0,0.5,0.1,0.5,0.1c0.3,0.1,0.8,0.1,1.1,0.1c3.5,0,6.9,0,10.4,0c1,0,1.4,0.2,1.3,1.3
		C44.2,59.8,44.3,59.8,41.6,59.8z M55.2,45.4c-2.3,3.5-5.3,6.3-9,8.2c-0.7,0.4-1.6,0.6-2.4,0.6c-3.7,0.1-7.5,0-11.2,0
		c-0.3,0-0.6,0-0.9,0c-2.1,0-4.3,0-4.4,0c-3.2,0.5-5.7-0.9-8.1-2.8c-3.6-2.8-6.3-6.3-8-10.5c-0.2-0.4-0.3-0.8-0.5-1.4
		c0.7,0,1.2,0,1.7,0c11.5,0,23.1,0,34.6,0c0.3,0,0.6,0,0.9,0c0.3,0,2.7,0,5.2,0c1.6,0.1,3.2,0,5.3,0C57.1,41.7,56.3,43.6,55.2,45.4z
		 M58.6,37.2c-0.1,0.3-0.7,0.6-1,0.6c-1.4,0.1-2.9,0-4.3,0c-2.6-0.1-5.2,0-5.5,0c-4.8,0-9.6,0-14.4,0c-7.3,0-14.6,0-21.9,0
		c-1.3,0-1.8-0.4-1.9-1.6c-0.1-1.2-0.3-2.4-0.5-3.8c2.1,0,4,0,5.8,0c0.2,0,0.9,0,2,0c1.4,0.1,2.9,0,3.3,0c12.4,0,24.9,0,37.3,0
		c0.5,0,1,0,1.7,0C59.2,34.2,59,35.7,58.6,37.2z"/>
</g>
<g>
	<path class="st0" d="M14.5,2.4c0.9,0,1.7,0.5,2.3,1.4c1.7,2.7,3.3,5.4,5,8.1c1.3,2.1,2.7,4.3,4,6.5c1.6-0.4,3.2-1,4.8-1.2
		c0.5-0.1,1-0.1,1.4-0.1c1,0,2,0.1,2.9,0.1c0.1,0,0.1,0,0.2,0c0.5,0,1-0.1,1.4-0.3c0.6-0.4,1.3-0.5,1.9-0.5c0.8,0,1.6,0.3,2.3,0.9
		c0.4,0.3,0.9,0.4,1.4,0.6c1.6,0.6,3.2,1,5,1.1c0.5,0,1,0.7,1.5,1.1c0.5,0.4,1,0.8,1.5,1.2c1,0.8,2.4,1.2,3.5,1.8
		c1.6,0.9,2.7,2.6,4.1,3.9c0.2,0.2,0.4,0.5,0.7,0.7c0.3,0.3,0.7,0.4,0.9,0.7c0.8,1.7,2.1,3.1,1.9,5.4c-1.1,9.5-5.7,16.5-13.9,21.3
		c-0.9,0.5-1.2,1-1.2,2c0.1,4.1-0.4,4.5-4.6,4.5c-3,0-6,0-8.9,0c-2.1,0-4.3,0-6.4,0c-2.5,0-3.5-0.9-3.3-3.3c0.2-2-0.6-2.9-2.2-3.9
		C12.4,49.5,8.2,42.2,7.6,32.7c-0.1-0.8-0.2-1.7,0.9-2.1c0.3-0.1,0.3-0.8,0.6-1.1c1.4-1.4,2.8-2.8,4.3-4.2c0.2-0.2,0.6-0.3,1.1-0.4
		c-3.2-3.3-6.4-6.5-9.5-9.7c-0.4-0.4-0.8-0.8-1.2-1.2c-1.1-1.2-1.1-2.8,0-3.8c0.5-0.5,1.1-0.7,1.7-0.7c0.7,0,1.5,0.3,2.1,1
		c2.5,2.8,5,5.6,7.4,8.4c1.3,1.5,2.6,2.9,3.8,4.3c0.8-0.5,1.4-1,2.2-1.3c1.1-0.5,1.3-0.9,0.6-1.9c-2.7-4-5.4-7.9-8.2-11.9
		c-0.3-0.5-0.7-1-1-1.5c-0.8-1.4-0.5-2.9,0.7-3.7C13.6,2.6,14.1,2.4,14.5,2.4 M14.5,0.4c-0.8,0-1.7,0.3-2.5,0.7
		c-2.2,1.4-2.8,4.1-1.4,6.4C11,8,11.3,8.5,11.6,8.9l0.2,0.3l2.7,3.9c1.7,2.4,3.3,4.8,5,7.3c-0.1,0.1-0.2,0.1-0.3,0.2l0,0
		c-0.9-1-1.8-2-2.7-3c-0.8-0.9-1.5-1.7-2.3-2.6C12.5,13,10.8,11,9,9.1c-1-1.1-2.2-1.6-3.5-1.6c-1.1,0-2.2,0.4-3.1,1.2
		c-1.9,1.7-2,4.6-0.2,6.6c0.3,0.3,0.6,0.6,0.9,0.9c0.1,0.1,0.2,0.2,0.4,0.4l3.7,3.8l4.1,4.2C10,25.8,8.8,27,7.6,28.1
		c-0.3,0.3-0.5,0.7-0.6,1c-1.7,1-1.5,2.9-1.5,3.6l0,0.2c0.7,10.2,5.4,18,13.9,23.3c1.3,0.8,1.3,1.1,1.3,2c-0.1,1.7,0.2,3,1.1,4
		c1.2,1.3,3,1.5,4.2,1.5l6.4,0l4.5,0l4.5,0c2.3,0,4.1-0.1,5.3-1.3c1.2-1.2,1.3-3,1.3-5.2c0,0,0-0.1,0-0.1c0,0,0.1-0.1,0.2-0.1
		c8.7-5,13.7-12.7,14.9-22.8c0.3-2.4-0.7-4.1-1.5-5.4c-0.2-0.4-0.4-0.7-0.6-1.1c-0.3-0.7-0.9-1.1-1.3-1.3c0,0-0.1-0.1-0.1-0.1
		c-0.1-0.1-0.2-0.2-0.3-0.3c-0.1-0.1-0.2-0.2-0.2-0.2c-0.4-0.4-0.7-0.8-1.1-1.2c-1-1.1-2-2.2-3.4-3c-0.5-0.3-1-0.5-1.5-0.8
		c-0.6-0.3-1.2-0.6-1.7-0.9c-0.2-0.2-0.5-0.4-0.7-0.6c-0.3-0.2-0.5-0.4-0.8-0.6c-0.1-0.1-0.2-0.2-0.3-0.3c-0.5-0.5-1.2-1.2-2.3-1.3
		c-1.5-0.1-2.9-0.5-4.5-1c-0.1,0-0.2-0.1-0.4-0.1c-0.1,0-0.3-0.1-0.4-0.2c-1-0.9-2.3-1.4-3.5-1.4c-1,0-1.9,0.3-2.8,0.8
		c0,0-0.2,0-0.4,0l-0.1,0c-0.5,0-0.9,0-1.4,0c-0.5,0-1,0-1.5,0c-0.6,0-1.2,0-1.7,0.1c-1.3,0.2-2.5,0.5-3.6,0.9c0,0,0,0,0,0l-0.1-0.2
		l-3.1-5c-0.5-0.8-1-1.6-1.5-2.4c-1.2-1.9-2.4-3.8-3.6-5.7C17.6,1.3,16.1,0.4,14.5,0.4L14.5,0.4z"/>
</g>
<g>
	<g>
		<path class="st0" d="M24.2,52.8c-3,0-5.7-1.3-7.5-3.6C13.4,45,14.1,39,18.3,35.7c3-2.4,11.9-6.1,17.5-6.1c0.3,0,0.5,0,0.7,0
			c0.7-0.7,1.3-1.4,1.8-2.2c0.5-0.8,0.8-1.8,0.9-3c0-0.2,0-0.3,0-0.5c0.3-2,2-3.4,4-3.4c0.2,0,0.3,0,0.5,0c1.9,0.2,3.4,1.8,3.5,3.7
			c0,0.2,0,0.4,0,0.7c0,0,0,0,0,0c0.5,0,0.9,0.1,1.4,0.2c1.7,0.6,2.8,2.3,2.7,4.1c-0.1,2.1-1.9,3.8-4.1,3.8c0,0,0,0,0,0
			c-0.2,0-0.4,0-0.6-0.1c-0.1,0-0.2,0-0.2,0c-0.3-0.1-0.5-0.1-0.8-0.1c-0.4,0-0.7,0.1-1.1,0.2c-1.3,0.6-2.6,1.2-3.8,2.1
			c-1.1,5.2-7.6,13.1-10.7,15.6C28.5,52.1,26.4,52.8,24.2,52.8z"/>
		<path class="st1" d="M43.2,21.3c0.1,0,0.3,0,0.4,0c1.6,0.2,2.8,1.5,2.9,3.1c0,0.5,0,1-0.2,1.5c0.3-0.1,0.6-0.1,1-0.1
			c0.4,0,0.7,0.1,1.1,0.2c1.4,0.5,2.3,1.9,2.2,3.3c-0.1,1.8-1.6,3.1-3.3,3.1c-0.2,0-0.4,0-0.5,0c-0.1,0-0.1,0-0.2,0
			c-0.3-0.1-0.6-0.1-0.9-0.1c-0.5,0-0.9,0.1-1.4,0.3c-1.5,0.6-2.8,1.4-4.1,2.3c-0.9,5-7.4,13-10.5,15.4c-1.6,1.3-3.6,1.9-5.5,1.9
			c-2.6,0-5.2-1.2-7-3.4c-3-3.8-2.4-9.4,1.5-12.4c2.9-2.3,11.6-5.9,17-5.9c0.3,0,0.7,0,1,0c0.8-0.7,1.6-1.6,2.2-2.5
			c0.7-1,1-2.2,1-3.4c0-0.1,0-0.3,0-0.4C40.2,22.5,41.6,21.3,43.2,21.3 M43.2,19.9L43.2,19.9c-2.4,0-4.4,1.7-4.7,4
			c0,0.2,0,0.4-0.1,0.6c0,1-0.3,1.9-0.8,2.6c-0.4,0.7-0.9,1.3-1.5,1.8c-0.2,0-0.3,0-0.5,0c-5.7,0-14.8,3.8-17.9,6.2
			c-2.2,1.7-3.5,4.2-3.8,6.9c-0.3,2.7,0.4,5.4,2.2,7.6c2,2.5,4.9,3.9,8.1,3.9c2.3,0,4.5-0.8,6.4-2.2c3.2-2.5,9.5-10.2,10.9-15.7
			c1.1-0.7,2.2-1.3,3.4-1.8c0.2-0.1,0.5-0.2,0.8-0.2c0.2,0,0.4,0,0.6,0.1c0.1,0,0.2,0,0.3,0.1c0.3,0,0.5,0.1,0.8,0.1
			c2.5,0,4.6-2,4.8-4.5c0.1-2.1-1.2-4.1-3.2-4.8c-0.3-0.1-0.6-0.2-0.9-0.2c0,0,0,0,0-0.1c-0.2-2.3-1.9-4.1-4.2-4.4
			C43.6,19.9,43.4,19.9,43.2,19.9L43.2,19.9z"/>
	</g>
	<g>
		<g>
			<path class="st0" d="M48.4,25.9c-0.7-0.3-1.4-0.2-2.1,0c0.2-0.4,0.3-0.9,0.2-1.5c-0.1-1.6-1.3-2.9-2.9-3.1
				c-1.8-0.2-3.4,1-3.7,2.8c0,0.1,0,0.3,0,0.4c0,1.2-0.3,2.4-1,3.4c-1.1,1.7-2.6,3.1-4.5,4.2l3.8,4.2l0,0c1.8-1.6,3.8-2.9,6-3.9
				c0.7-0.3,1.5-0.3,2.3-0.2c0.1,0,0.1,0,0.2,0c1.9,0.3,3.7-1.1,3.9-3.1C50.7,27.8,49.8,26.4,48.4,25.9z"/>
			<path class="st2" d="M39.7,31.7c-3-3.8-17.1,1.6-20.9,4.6s-4.5,8.6-1.5,12.4s8.6,4.5,12.4,1.5S42.7,35.5,39.7,31.7z"/>
		</g>
		<path d="M24.5,47.3c-2,0-3.7-0.9-4.8-2.4c-0.1-0.1-0.2,0-0.2,0.1c0.5,2.3,2.6,4,5,4c2.4,0,4.5-1.7,5-4c0-0.1-0.1-0.2-0.2-0.1
			C28.2,46.4,26.5,47.3,24.5,47.3z"/>
	</g>
</g>
</svg>
