<?xml version="1.0" encoding="utf-8"?>
<!-- Generator: Adobe Illustrator 23.0.1, SVG Export Plug-In . SVG Version: 6.00 Build 0)  -->
<svg version="1.1" id="Layer_1" xmlns="http://www.w3.org/2000/svg" xmlns:xlink="http://www.w3.org/1999/xlink" x="0px" y="0px"
	 viewBox="0 0 64 64" style="enable-background:new 0 0 64 64;" xml:space="preserve">
<style type="text/css">
	.st0{fill:none;stroke:#121217;stroke-width:3;stroke-miterlimit:10;}
	.st1{fill:#FFFFFF;}
	.st2{fill:#E5BC48;}
	.st3{fill:#C9A039;}
	.st4{fill:#FFF1CA;}
	.st5{fill:#121217;}
</style>
<path class="st0" d="M54.5,22.5c-1.2-2.9-3-5.5-5.2-7.8c-2.2-2.2-4.8-4-7.8-5.2c-3-1.3-6.2-1.9-9.5-1.9s-6.5,0.6-9.5,1.9
	c-2.9,1.2-5.5,3-7.8,5.2c-2.2,2.2-4,4.8-5.2,7.8c-1.3,3-1.9,6.2-1.9,9.5c0,3.3,0.6,6.5,1.9,9.5c1.2,2.9,3,5.5,5.2,7.8
	c2.2,2.2,4.8,4,7.8,5.2c3,1.3,6.2,1.9,9.5,1.9s6.5-0.6,9.5-1.9c2.9-1.2,5.5-3,7.8-5.2c2.2-2.2,4-4.8,5.2-7.8c1.3-3,1.9-6.2,1.9-9.5
	C56.4,28.7,55.7,25.5,54.5,22.5z"/>
<g>
	<path class="st1" d="M32,6.3c3.5,0,6.8,0.7,10,2c3.1,1.3,5.8,3.1,8.2,5.5c2.4,2.4,4.2,5.1,5.5,8.2c1.3,3.2,2,6.5,2,10
		s-0.7,6.8-2,10c-1.3,3.1-3.1,5.8-5.5,8.2c-2.4,2.4-5.1,4.2-8.2,5.5c-3.2,1.3-6.5,2-10,2s-6.8-0.7-10-2c-3.1-1.3-5.8-3.1-8.2-5.5
		c-2.4-2.4-4.2-5.1-5.5-8.2c-1.3-3.2-2-6.5-2-10s0.7-6.8,2-10c1.3-3.1,3.1-5.8,5.5-8.2c2.4-2.4,5.1-4.2,8.2-5.5
		C25.2,7,28.5,6.3,32,6.3 M32,4.8c-3.7,0-7.2,0.7-10.6,2.1c-3.2,1.4-6.1,3.3-8.6,5.8c-2.5,2.5-4.5,5.4-5.8,8.6
		C5.5,24.8,4.8,28.3,4.8,32s0.7,7.2,2.1,10.6c1.4,3.2,3.3,6.1,5.8,8.6c2.5,2.5,5.4,4.5,8.6,5.8c3.4,1.4,6.9,2.1,10.6,2.1
		s7.2-0.7,10.6-2.1c3.2-1.4,6.1-3.3,8.6-5.8c2.5-2.5,4.5-5.4,5.8-8.6c1.4-3.4,2.1-6.9,2.1-10.6s-0.7-7.2-2.1-10.6
		c-1.4-3.2-3.3-6.1-5.8-8.6c-2.5-2.5-5.4-4.5-8.6-5.8C39.2,5.5,35.7,4.8,32,4.8L32,4.8z"/>
</g>
<g>
	<g>
		<g>
			<g>
				<path class="st2" d="M32,9C19.3,9,9,19.3,9,32s10.3,23,23,23c12.7,0,23-10.3,23-23S44.7,9,32,9z M37.4,37.4H26.6V26.6h10.9V37.4
					z"/>
			</g>
		</g>
	</g>
	<g>
		<g>
			<g>
				<path class="st3" d="M32,10.3c12,0,21.7,9.7,21.7,21.7S44,53.7,32,53.7S10.3,44,10.3,32S20,10.3,32,10.3 M32,7.6
					c-3.3,0-6.5,0.6-9.5,1.9c-2.9,1.2-5.5,3-7.8,5.2c-2.2,2.2-4,4.8-5.2,7.8c-1.3,3-1.9,6.2-1.9,9.5s0.6,6.5,1.9,9.5
					c1.2,2.9,3,5.5,5.2,7.8c2.2,2.2,4.8,4,7.8,5.2c3,1.3,6.2,1.9,9.5,1.9s6.5-0.6,9.5-1.9c2.9-1.2,5.5-3,7.8-5.2
					c2.2-2.2,4-4.8,5.2-7.8c1.3-3,1.9-6.2,1.9-9.5s-0.6-6.5-1.9-9.5c-1.2-2.9-3-5.5-5.2-7.8c-2.2-2.2-4.8-4-7.8-5.2
					C38.5,8.3,35.3,7.6,32,7.6L32,7.6z"/>
			</g>
		</g>
		<g>
			<g>
				<path class="st4" d="M36.1,27.9v8.2h-8.2v-8.2H36.1 M38.8,25.2h-2.7h-8.2h-2.7v2.7v8.2v2.7h2.7h8.2h2.7v-2.7v-8.2V25.2
					L38.8,25.2z"/>
			</g>
		</g>
		<g>
			<g>
				<rect x="38.8" y="25.2" class="st3" width="1.4" height="15"/>
			</g>
			<g>
				<rect x="25.2" y="38.8" class="st3" width="15" height="1.4"/>
			</g>
		</g>
		<g>
			<g>
				<rect x="44" y="30.5" class="st4" width="6.2" height="2.9"/>
			</g>
			<g>
				<g>
					<rect x="44" y="33.4" class="st3" width="6.2" height="0.8"/>
				</g>
				<g>
					<rect x="50.1" y="30.5" class="st3" width="0.8" height="3.7"/>
				</g>
			</g>
		</g>
		<g>
			<g>
				<rect x="30.9" y="44" class="st4" width="2.9" height="6.2"/>
			</g>
			<g>
				<g>
					<rect x="33.8" y="44" class="st3" width="0.8" height="6.2"/>
				</g>
				<g>
					<rect x="30.9" y="50.1" class="st3" width="3.7" height="0.8"/>
				</g>
			</g>
		</g>
		<g>
			<g>
				<rect x="30.6" y="13.9" class="st4" width="2.9" height="6.2"/>
			</g>
			<g>
				<g>
					<rect x="33.5" y="13.9" class="st3" width="0.8" height="6.2"/>
				</g>
				<g>
					<rect x="30.6" y="20" class="st3" width="3.7" height="0.8"/>
				</g>
			</g>
		</g>
		<g>
			<g>
				<rect x="13.9" y="30.5" class="st4" width="6.2" height="2.9"/>
			</g>
			<g>
				<g>
					<rect x="13.9" y="33.4" class="st3" width="6.2" height="0.8"/>
				</g>
				<g>
					<rect x="20" y="30.5" class="st3" width="0.8" height="3.7"/>
				</g>
			</g>
		</g>
		<g>
			<path class="st3" d="M11.9,34.2c0-11.5,8-21.2,18.7-23.8C19.3,11.1,10.3,20.5,10.3,32c0,4.5,1.4,8.8,3.8,12.2
				C12.7,41.2,11.9,37.8,11.9,34.2z"/>
		</g>
	</g>
</g>
<g>
	<path class="st5" d="M32,57.7c-3.5,0-6.8-0.7-10-2c-3.1-1.3-5.8-3.1-8.2-5.5S9.6,45.1,8.3,42c-1.3-3.2-2-6.5-2-10
		c0-3.5,0.7-6.8,2-10c1.3-3.1,3.1-5.8,5.5-8.2s5.1-4.2,8.2-5.5c3.2-1.3,6.5-2,10-2s6.8,0.7,10,2c3.1,1.3,5.8,3.1,8.2,5.5
		s4.2,5.1,5.5,8.2v0c1.3,3.2,2,6.5,2,10c0,3.5-0.7,6.8-2,10c-1.3,3.1-3.1,5.8-5.5,8.2s-5.1,4.2-8.2,5.5C38.8,57,35.5,57.7,32,57.7z
		 M32,8.9c-3.1,0-6.1,0.6-9,1.8c-2.7,1.2-5.2,2.8-7.3,4.9s-3.8,4.6-4.9,7.3c-1.2,2.8-1.8,5.9-1.8,9c0,3.1,0.6,6.1,1.8,9
		c1.2,2.7,2.8,5.2,4.9,7.3s4.6,3.8,7.3,4.9c2.8,1.2,5.9,1.8,9,1.8s6.1-0.6,9-1.8c2.7-1.2,5.2-2.8,7.3-4.9s3.8-4.6,4.9-7.3
		c1.2-2.8,1.8-5.9,1.8-9c0-3.1-0.6-6.1-1.8-9v0c-1.2-2.7-2.8-5.2-4.9-7.3s-4.6-3.8-7.3-4.9C38.1,9.5,35.1,8.9,32,8.9z"/>
</g>
<g>
	<path class="st1" d="M32,6.3c3.5,0,6.8,0.7,10,2c3.1,1.3,5.8,3.1,8.2,5.5c2.4,2.4,4.2,5.1,5.5,8.2c1.3,3.2,2,6.5,2,10
		s-0.7,6.8-2,10c-1.3,3.1-3.1,5.8-5.5,8.2c-2.4,2.4-5.1,4.2-8.2,5.5c-3.2,1.3-6.5,2-10,2s-6.8-0.7-10-2c-3.1-1.3-5.8-3.1-8.2-5.5
		c-2.4-2.4-4.2-5.1-5.5-8.2c-1.3-3.2-2-6.5-2-10s0.7-6.8,2-10c1.3-3.1,3.1-5.8,5.5-8.2c2.4-2.4,5.1-4.2,8.2-5.5
		C25.2,7,28.5,6.3,32,6.3 M32,5c-3.6,0-7.2,0.7-10.5,2.1c-3.2,1.4-6.1,3.3-8.6,5.8c-2.5,2.5-4.4,5.4-5.8,8.6C5.7,24.8,5,28.4,5,32
		s0.7,7.2,2.1,10.5c1.4,3.2,3.3,6.1,5.8,8.6c2.5,2.5,5.4,4.4,8.6,5.8C24.8,58.3,28.4,59,32,59s7.2-0.7,10.5-2.1
		c3.2-1.4,6.1-3.3,8.6-5.8c2.5-2.5,4.4-5.4,5.8-8.6C58.3,39.2,59,35.6,59,32s-0.7-7.2-2.1-10.5c-1.4-3.2-3.3-6.1-5.8-8.6
		c-2.5-2.5-5.4-4.4-8.6-5.8C39.2,5.7,35.6,5,32,5L32,5z"/>
</g>
</svg>
