<?xml version="1.0" encoding="utf-8"?>
<!-- Generator: Adobe Illustrator 23.0.1, SVG Export Plug-In . SVG Version: 6.00 Build 0)  -->
<svg version="1.1" id="Layer_1" xmlns="http://www.w3.org/2000/svg" xmlns:xlink="http://www.w3.org/1999/xlink" x="0px" y="0px"
	 viewBox="0 0 315 315" style="enable-background:new 0 0 315 315;" xml:space="preserve">
<style type="text/css">
	.st0{fill:#FFFFFF;}
</style>
<path class="st0" d="M288.2,158H276c0-65.1-52.9-118-118-118S40,92.9,40,158s52.9,118,118,118c22.9,0,45-6.5,64.1-18.9l-16.3-25.2
	C191.6,241.1,175,246,158,246c-48.5,0-88-39.5-88-88s39.5-88,88-88s88,39.5,88,88h-11.6c-1.6,0-2.7,1.8-1.8,3.2l26.9,46.6
	c0.8,1.4,2.9,1.4,3.7,0l26.9-46.6C290.9,159.8,289.9,158,288.2,158z"/>
</svg>
