<?xml version="1.0" encoding="utf-8"?>
<!-- Generator: Adobe Illustrator 23.0.1, SVG Export Plug-In . SVG Version: 6.00 Build 0)  -->
<svg version="1.1" id="Layer_1" xmlns="http://www.w3.org/2000/svg" xmlns:xlink="http://www.w3.org/1999/xlink" x="0px" y="0px"
	 viewBox="0 0 64 64" style="enable-background:new 0 0 64 64;" xml:space="preserve">
<style type="text/css">
	.st0{fill:#F9C83A;}
</style>
<g>
	<g>
		<path class="st0" d="M38.8,12.1c2.2,2,4,3.8,6.6,6.1c-4.5,3.9-8.7,7.6-13.2,11.5c2.1,3.5,3.8,6.2,5.4,8.9c1,1.8,2.2,3,3.7,3
			c0.9,0,2-0.5,3.1-1.5c0.4,0.9,0.8,1.7,1.1,2.4c1,2.5,3.1,4.9-0.5,7.1c-1.4,0.9-3.1,1.3-4.8,1.3c-2.2,0-4.3-0.8-5.5-2.4
			c-2.5-3.4-4.6-7.2-6.9-10.8c-0.4-0.6-0.7-1.2-1.5-2.5c-2.8,5-0.6,10.1-1.8,15c-2.3,0-4.8,0-7.5,0c0-12.2,0-24.5,0-37
			c2.4,0,4.9,0,7.8,0c0,4.1,0,8.3,0,13.3C29.9,21.3,34.3,16.7,38.8,12.1 M38.7,7.9L36.6,10l-8.8,9.1v-5.9v-3h-3H17h-3v3v37v3h3h7.5
			h2.3l0.6-2.3c0.6-2.4,0.5-4.6,0.4-6.8c0-0.2,0-0.3,0-0.5c1.4,2.2,2.8,4.5,4.4,6.7c1.7,2.3,4.6,3.6,7.9,3.6c2.3,0,4.5-0.6,6.4-1.8
			c5.3-3.2,3.2-7.8,2.3-9.7c-0.2-0.4-0.4-0.7-0.5-1.1c-0.2-0.6-0.5-1.2-0.8-1.8c-0.1-0.3-0.2-0.5-0.4-0.8l-1.7-3.7l-3,2.7
			c-0.6,0.5-1,0.7-1.1,0.7c-0.1-0.1-0.5-0.4-1.1-1.4c-1.1-1.9-2.2-3.7-3.5-5.8c-0.2-0.3-0.4-0.6-0.6-1L41,26l6.3-5.5l2.5-2.2
			L47.4,16l-3.8-3.6l-2.8-2.6L38.7,7.9L38.7,7.9z"/>
	</g>
</g>
</svg>
