<?xml version="1.0" encoding="utf-8"?>
<!-- Generator: Adobe Illustrator 23.0.1, SVG Export Plug-In . SVG Version: 6.00 Build 0)  -->
<svg version="1.1" id="Layer_1" xmlns="http://www.w3.org/2000/svg" xmlns:xlink="http://www.w3.org/1999/xlink" x="0px" y="0px"
	 viewBox="0 0 64 64" style="enable-background:new 0 0 64 64;" xml:space="preserve">
<style type="text/css">
	.st0{fill:#121217;}
	.st1{fill:#0E79B2;}
</style>
<image style="overflow:visible;" width="98" height="100" xlink:href="34A0E978.jpg"  transform="matrix(1 0 0 1 -8160 -8160)">
</image>
<g>
	<g>
		<path class="st0" d="M27.3,57.7l1.1-8.3c-0.4,0-0.9,0-1.3,0c-0.9,0-1.8-0.1-2.8-0.1c-1.3,0-2.3,0.1-3.2,0.2
			c-0.5,0.1-1,0.1-1.4,0.1c-4.4,0-7.2-2.8-7.4-7.6c-0.4-7.9-0.3-15.9-0.2-23.7l0-1.4c0-1.1,0.7-2,1.2-2.7c-1.2-2.8-0.5-5.2,0.1-7.3
			c0.3-1.1,0.6-2.1,0.6-3.1l0.1-1.4h1.4c2.6,0,5.1,0,7.6,0c2.5,0,5.1,0,7.6,0c6.1,0,10.7,0.1,15.1,0.3c2.6,0.1,5.8,4.5,5.9,7.3
			c0.5,11.1,0.4,22.1,0.2,33.3c0,3.1-1.8,5.3-4.7,6l2.7,0.7L48,61.4L27.3,57.7z M24.5,37.8c2.1-0.9,4.1-1,5.8-1
			c1.1,0,2.2,0.1,3.2,0.1c1,0.1,2,0.1,3,0.1c1.1,0,2-0.1,2.8-0.3V15.3H24.5V37.8z"/>
		<path class="st1" d="M30.7,3.9c5,0,10,0.1,15,0.3c1.7,0.1,4.4,3.7,4.5,5.8c0.5,11.1,0.4,22.1,0.2,33.2c0,2.9-1.9,4.7-5,4.7
			c0,0-0.1,0-0.1,0c-0.3,0-0.6,0-1,0c-1.8,0-3.7,0.1-5.6,0.7c3,0.8,6,1.6,9.5,2.5c-0.4,2.6-0.9,5.3-1.4,8.6c-5.9-1-11.6-2-17.8-3.1
			c0.4-2.8,0.7-5.4,1.1-8.6c-2,0-3.9-0.1-5.7-0.1c-1.1,0-2.3,0-3.4,0.2c-0.4,0.1-0.8,0.1-1.2,0.1c-3.9,0-5.8-2.6-5.9-6.1
			c-0.4-8.3-0.3-16.7-0.2-25c0-1,1.2-2.1,1.5-2.5c-2.2-3.9,0.2-6.9,0.4-10.5C20.6,4,25.7,3.9,30.7,3.9 M23,40.4
			c2.3-1.7,4.8-2.1,7.3-2.1c2.1,0,4.2,0.3,6.2,0.3c1.5,0,2.9-0.1,4.3-0.6c0-8.1,0-16.1,0-24.1c-6.1,0-11.9,0-17.8,0
			C23,22.8,23,31.6,23,40.4 M30.7,0.9L30.7,0.9c-2.5,0-5.1,0-7.6,0c-2.5,0-5.1,0-7.6,0h-2.8l-0.2,2.8c0,0.9-0.3,1.8-0.6,2.8
			c-0.5,2-1.3,4.5-0.3,7.4c-0.5,0.7-1,1.7-1,2.9l0,1.4c-0.1,7.8-0.2,15.9,0.2,23.8c0.3,5.5,3.7,9,8.9,9c0.5,0,1.1,0,1.6-0.1
			c0.9-0.1,1.8-0.2,3-0.2c0.8,0,1.5,0,2.3,0l-0.3,2.5L26,56.1L25.6,59l2.8,0.5l7.6,1.3l10.2,1.8l3,0.5l0.5-3l1.4-8.6l0.5-2.7
			l-0.3-0.1c1.3-1.3,2.1-3.2,2.2-5.4c0.1-11.2,0.2-22.3-0.2-33.4c-0.1-3.1-3.6-8.5-7.3-8.7C41.5,1,36.8,0.9,30.7,0.9L30.7,0.9z
			 M26,16.8h11.8v18.7c-0.4,0-0.8,0.1-1.3,0.1c-0.9,0-1.9-0.1-2.9-0.1c-1.1-0.1-2.2-0.1-3.3-0.1c-1.2,0-2.7,0.1-4.3,0.5V16.8
			L26,16.8z"/>
	</g>
</g>
</svg>
