<?xml version="1.0" encoding="utf-8"?>
<!-- Generator: Adobe Illustrator 23.0.1, SVG Export Plug-In . SVG Version: 6.00 Build 0)  -->
<svg version="1.1" id="Layer_1" xmlns="http://www.w3.org/2000/svg" xmlns:xlink="http://www.w3.org/1999/xlink" x="0px" y="0px"
	 viewBox="0 0 64 64" style="enable-background:new 0 0 64 64;" xml:space="preserve">
<style type="text/css">
	.st0{fill:#0E79B2;}
	.st1{fill:#F9C83A;}
</style>
<image style="overflow:visible;" width="98" height="100" xlink:href="CB939110.jpg"  transform="matrix(1 0 0 1 -8160 -8160)">
</image>
<g>
	<g>
		<path class="st0" d="M28,51.5l0.8-6.1c-0.2,0-0.4,0-0.5,0c-0.7,0-1.4,0-2,0c-0.9,0-1.7,0-2.3,0.1c-0.4,0-0.8,0.1-1.1,0.1
			c-3.5,0-5.7-2.2-5.9-6c-0.3-5.9-0.2-11.9-0.2-17.7l0-1c0-0.8,0.4-1.5,0.8-2c-0.8-2.1-0.3-3.9,0.1-5.5c0.2-0.8,0.4-1.5,0.5-2.2
			l0.1-1.4h1.4c1.9,0,3.8,0,5.7,0c1.9,0,3.8,0,5.6,0c4.5,0,8,0.1,11.2,0.3c2.3,0.1,4.7,3.7,4.7,5.8c0.4,8.3,0.3,16.4,0.2,24.8
			c0,2-1,3.6-2.6,4.4l1.1,0.3l-1.6,9.2L28,51.5z M26.8,35.8c1.4-0.5,2.8-0.6,3.9-0.6c0.8,0,1.6,0.1,2.4,0.1c0.8,0,1.5,0.1,2.2,0.1
			c0.6,0,1.2,0,1.7-0.1V20H26.8V35.8z"/>
		<path class="st1" d="M31,11.1c3.7,0,7.4,0.1,11.1,0.3c1.2,0.1,3.3,2.8,3.3,4.3c0.4,8.2,0.3,16.5,0.2,24.7c0,2.1-1.4,3.5-3.7,3.5
			c0,0-0.1,0-0.1,0c-0.2,0-0.5,0-0.7,0c-1.4,0-2.7,0.1-4.2,0.5c2.2,0.6,4.5,1.2,7,1.8c-0.3,2-0.7,3.9-1.1,6.4
			c-4.4-0.8-8.7-1.5-13.2-2.3c0.3-2.1,0.5-4,0.9-6.4c-1.5,0-2.9-0.1-4.3-0.1c-0.9,0-1.7,0-2.5,0.1c-0.3,0-0.6,0.1-0.9,0.1
			c-2.9,0-4.3-1.9-4.4-4.6c-0.3-6.2-0.2-12.4-0.2-18.6c0-0.8,0.9-1.5,1.1-1.8c-1.6-2.9,0.2-5.2,0.3-7.8C23.5,11.2,27.3,11.1,31,11.1
			 M25.3,38.2c1.7-1.3,3.6-1.6,5.4-1.6c1.5,0,3.1,0.2,4.6,0.2c1.1,0,2.2-0.1,3.2-0.5c0-6,0-12,0-17.9c-4.5,0-8.8,0-13.2,0
			C25.3,25.2,25.3,31.7,25.3,38.2 M31,8.1L31,8.1c-1.9,0-3.8,0-5.7,0c-1.9,0-3.8,0-5.7,0h-2.8L16.7,11c0,0.6-0.2,1.2-0.4,1.9
			c-0.4,1.5-0.9,3.4-0.3,5.6c-0.4,0.6-0.7,1.4-0.7,2.3l0,1c-0.1,5.8-0.1,11.8,0.2,17.8c0.2,4.5,3.1,7.4,7.4,7.4c0.4,0,0.8,0,1.3-0.1
			c0.6-0.1,1.3-0.1,2.2-0.1c0.3,0,0.6,0,0.9,0l0,0.1l-0.4,2.9l-0.4,2.9l2.8,0.5L34,54l8.4,1.5l3,0.5l0.5-3l0.6-3.6l0.5-2.8l0.4-2.3
			c0.8-1.1,1.3-2.4,1.3-4c0.1-8.4,0.2-16.6-0.2-24.9c-0.1-2.7-3-7-6.2-7.2C39.1,8.2,35.6,8.1,31,8.1L31,8.1z M28.3,21.5h7.2v12.4
			c-0.1,0-0.1,0-0.2,0c-0.7,0-1.4,0-2.1-0.1c-0.8-0.1-1.6-0.1-2.5-0.1c-0.7,0-1.5,0-2.4,0.2V21.5L28.3,21.5z"/>
	</g>
</g>
</svg>
