<?xml version="1.0" encoding="utf-8"?>
<!-- Generator: Adobe Illustrator 23.0.1, SVG Export Plug-In . SVG Version: 6.00 Build 0)  -->
<svg version="1.1" id="Layer_1" xmlns="http://www.w3.org/2000/svg" xmlns:xlink="http://www.w3.org/1999/xlink" x="0px" y="0px"
	 viewBox="0 0 64 64" style="enable-background:new 0 0 64 64;" xml:space="preserve">
<style type="text/css">
	.st0{fill:#18070B;}
	.st1{fill:#59D396;}
	.st2{fill:#FFFFFF;}
	.st3{fill:#F94F55;}
</style>
<circle class="st0" cx="31.5" cy="31.5" r="22"/>
<g>
	<g>
		<path class="st1" d="M32,59.2C17,59.2,4.8,47,4.8,32C4.8,17,17,4.8,32,4.8C47,4.8,59.2,17,59.2,32C59.2,47,47,59.2,32,59.2z
			 M32,11.6c-11.3,0-20.4,9.2-20.4,20.4S20.7,52.4,32,52.4S52.4,43.3,52.4,32S43.3,11.6,32,11.6z"/>
		<path d="M32,5.8c14.4,0,26.2,11.7,26.2,26.2S46.4,58.2,32,58.2S5.8,46.4,5.8,32S17.6,5.8,32,5.8 M32,53.4
			c11.8,0,21.4-9.6,21.4-21.4S43.8,10.6,32,10.6S10.6,20.2,10.6,32S20.2,53.4,32,53.4 M32,3.8C16.5,3.8,3.8,16.5,3.8,32
			S16.5,60.2,32,60.2S60.2,47.5,60.2,32S47.5,3.8,32,3.8L32,3.8z M32,51.4c-10.7,0-19.4-8.7-19.4-19.4c0-10.7,8.7-19.4,19.4-19.4
			c10.7,0,19.4,8.7,19.4,19.4C51.4,42.7,42.7,51.4,32,51.4L32,51.4z"/>
	</g>
</g>
<g>
	<path class="st2" d="M32,3.9c15.5,0,28.1,12.6,28.1,28.1S47.5,60.1,32,60.1S3.9,47.5,3.9,32S16.5,3.9,32,3.9 M32,51.5
		c10.8,0,19.5-8.8,19.5-19.5c0-10.8-8.8-19.5-19.5-19.5c-10.8,0-19.5,8.8-19.5,19.5C12.5,42.8,21.2,51.5,32,51.5 M32,1.9
		C15.4,1.9,1.9,15.4,1.9,32S15.4,62.1,32,62.1S62.1,48.6,62.1,32S48.6,1.9,32,1.9L32,1.9z M32,49.5c-9.7,0-17.5-7.9-17.5-17.5
		S22.3,14.5,32,14.5S49.5,22.3,49.5,32S41.7,49.5,32,49.5L32,49.5z"/>
</g>
<g>
	<path d="M30.4,62.8l-0.1-0.8l0,0.8l-3.1,0l0.1-0.2c-1.3-0.1-2.6-0.3-4-0.6l-2.3-0.4l0-0.4l-2.3-0.1c-1.4-0.1-2.6-0.2-4-0.3
		l-2.5-0.3l0.1-2.1c-0.3,0.1-0.6,0.1-0.9,0.1c-0.9,0-1.7-0.3-2.6-0.5c-0.3-0.1-0.6-0.2-0.9-0.2l-2.6-0.7L6,54.5
		c1-4.6,2.3-8.9,4.1-13.2l1.1-2.6l2.6,1.1c0.8,0.4,1.6,0.6,2.5,0.9l2.6,0.9l-0.2,0.6c0.8,0.4,1.5,0.7,2.4,1.1l1.2,0.5l0.4,0.1
		c0.9,0.3,1.7,0.5,2.6,0.8l0.4,0.1l1.1,0.2c1.6,0.3,3.1,0.4,4.7,0.5l1.4,0l0.3,0c0.9,0,1.6-0.1,2.5-0.2l2.7-0.3l0.7,6.3l0.9-0.1
		l-0.2-1.7c-0.1-0.8-0.2-1.6-0.3-2.4l-0.3-2.3l2.2-0.7c3.1-1,5.8-2.4,8.4-4.3l2.3-1.7l1.6,2.4c0.4,0.6,0.8,1.2,1.2,1.8
		c1.1,1.6,2.3,3.3,3.1,5.2c1.6,3.6-0.4,8-5,10.5c-2,1.1-4.2,1.9-6.3,2.6l0,0l-0.6,0.2l-2.2,0.6l0,0c-3.5,0.9-7,1.4-10.7,1.4l0,0
		l-0.8,0.1L30.4,62.8z M41.3,53.5c0.3-0.1,0.5-0.1,0.8-0.2c-0.1-0.2-0.3-0.9-0.3-1l-0.4,0.2L41.3,53.5z"/>
	<path d="M51.9,39l1.1,1.8c0.4,0.6,0.8,1.2,1.2,1.8c1.1,1.6,2.2,3.2,3,5.1c1.5,3.3-0.5,7.2-4.7,9.6c-2.1,1.2-4.4,2-6.5,2.6L45.9,60
		l0,0.1l-1.6,0.4l0,0l0,0l0,0c-3.9,1-7.7,1.5-11.8,1.6l0,0.1l-2-0.1c0,0-0.1,0-0.1,0l-1.8,0l0.1-0.1c-1.7-0.1-3.4-0.3-5.1-0.7
		L21.9,61l0-1.7c0-0.6,0.1-1.3,0.2-1.8c-0.2,0.1-0.4,0.2-0.6,0.3c-0.2,0.1-0.3,0.1-0.5,0.2c0,0.2,0,0.3,0,0.5l0,2l-2-0.1
		c-1.3-0.1-2.6-0.2-3.9-0.3l-1.8-0.2l0.1-1.9c0-0.3,0-0.5,0-0.8c-0.1,0.1-0.2,0.1-0.3,0.2c-0.4,0.2-0.8,0.3-1.3,0.3
		c-0.8,0-1.6-0.2-2.4-0.5c-0.3-0.1-0.6-0.2-0.9-0.3l-1.9-0.5l0.4-1.9c1-4.6,2.3-8.8,4-13.1l0.8-1.9l1.9,0.8c0.9,0.4,1.6,0.7,2.5,0.9
		l1.9,0.6l-0.2,0.5l0.2,0.1c0.9,0.5,1.8,0.9,2.8,1.3l1.2,0.5l0.4,0.1c0.9,0.3,1.8,0.5,2.7,0.8l0.4,0.1l1.1,0.2
		c1.6,0.3,3.2,0.5,4.8,0.5l1.4,0l0.4,0c0.9,0,1.7-0.1,2.5-0.2l2-0.2l0.2,2l0.3,2.7l0.2,1.6l2.1-0.2l0,2.3c0,0.1,0,0.3,0,0.4
		c0.7-0.2,1.5-0.3,2.3-0.6l0.3-0.1c-0.2-0.5-0.3-0.9-0.5-1.4c-0.1-0.4-0.3-0.8-0.4-1.1l-1.3,0.5l-0.3-2.6c-0.1-0.8-0.2-1.6-0.3-2.4
		L40,45.2l1.6-0.5c3.1-1,6-2.5,8.6-4.4L51.9,39 M50,51.2c0.3-0.3,0.4-0.5,0.4-0.6c-0.2-0.7-0.6-1.4-0.9-2.1
		c-0.2,0.1-0.4,0.2-0.6,0.3L50,51.2L50,51.2 M52.3,36.9L51,37.8l-1.7,1.2c-2.5,1.8-5.2,3.2-8.2,4.2l-1.6,0.5l-1.2,0.4l0,0l-0.8,0.1
		l-2,0.2c-0.8,0.1-1.6,0.2-2.4,0.2l-0.3,0l-1.4,0c-1.6,0-3-0.2-4.6-0.5L25.8,44l-0.4-0.1c-0.9-0.2-1.7-0.4-2.6-0.7L22.5,43l-1.2-0.5
		c-0.6-0.2-1.2-0.5-1.7-0.8l0.2-0.7l-1.4-0.5L16.4,40c-0.8-0.3-1.6-0.6-2.4-0.9l-1.9-0.8l-1.4-0.6l-0.6,1.4L9.4,41
		c-1.8,4.3-3.1,8.7-4.1,13.3l-0.4,1.9l-0.3,1.4L6,58l1.9,0.5c0.3,0.1,0.5,0.1,0.8,0.2c1,0.3,1.9,0.6,2.9,0.6c0,0,0,0,0.1,0l0,0.5
		l-0.1,1.4l1.4,0.2l1.8,0.2c1.4,0.2,2.7,0.3,4.1,0.3l1.5,0.1l0,0.3l1.2,0.2l1.7,0.3c1,0.2,1.9,0.3,2.9,0.5L26,63.6l2.6,0l1.7,0
		l0.1,0l2,0.1l1.5,0.1l0-0.2c3.2-0.1,6.3-0.5,9.3-1.2l0,0.1l1.4-0.4l0,0l1.6-0.4l1.3-0.3l0-0.1c1.9-0.6,3.9-1.4,5.8-2.4
		c4.9-2.7,7.1-7.5,5.3-11.5c-0.9-2-2-3.7-3.2-5.3c-0.4-0.6-0.8-1.2-1.2-1.8l-1.1-1.8L52.3,36.9L52.3,36.9z"/>
</g>
<g>
	<g>
		<path class="st3" d="M43.4,55l0.9-0.3c-0.1-0.1-0.1-0.2-0.1-0.3c-0.3-0.7-0.5-1.5-0.8-2.2c-0.2-0.7-0.5-1.4-0.7-2.1c0,0,0,0,0,0
			c0,0,0,0,0,0l-1.1,0.4l-0.2-1.3c-0.1-0.8-0.2-1.6-0.3-2.4L41,45.9l0.8-0.3c3.2-1,6.1-2.5,8.9-4.5l0.9-0.6l0.6,0.9
			c0.4,0.6,0.8,1.2,1.3,1.8c1.1,1.5,2.2,3.1,3,4.9c1.2,2.8-0.5,6.2-4.2,8.3c-2,1.1-4.2,1.9-6.3,2.6l-1,0.3L43.4,55z M49.4,52.7
			c1.4-0.8,2-1.7,1.8-2.3c-0.3-1-0.8-2-1.4-3c0-0.1-0.1-0.2-0.1-0.2c-0.8,0.4-1.5,0.8-2.3,1.2L49.4,52.7z"/>
		<path d="M51.3,41.9c1.4,2.2,3.1,4.2,4.1,6.6c1,2.3-0.6,5.2-3.8,7c-1.9,1.1-4,1.8-6.1,2.5c-0.2-0.7-0.5-1.5-0.7-2.4
			c0.6-0.2,1.1-0.4,1.4-0.5c-0.3-0.4-0.8-0.7-0.9-1.1c-0.6-1.4-1-2.9-1.5-4.3c-0.1-0.3-0.5-0.5-0.8-0.8c-0.1,0.1-0.3,0.1-0.4,0.2
			c-0.1-0.8-0.2-1.6-0.3-2.5C45.3,45.5,48.3,44.1,51.3,41.9 M48.9,54c2.5-1,3.8-2.6,3.3-4c-0.5-1.5-1.3-2.9-2-4.3
			c-1.4,0.9-2.7,1.5-4,2.1C47.1,49.9,48,51.9,48.9,54 M51.8,39l-1.7,1.2c-2.7,1.9-5.5,3.4-8.6,4.4l-1.6,0.5l0.2,1.7
			c0.1,0.8,0.2,1.6,0.3,2.4l0.3,2.6l1.3-0.5c0.1,0.4,0.3,0.7,0.4,1.1c0.2,0.5,0.4,1.1,0.5,1.6l-0.8,0.3l0.6,1.9l0.5,1.5l0.3,0.9
			l0.6,1.9l1.9-0.6c2.1-0.7,4.4-1.5,6.5-2.6c4.2-2.3,6.1-6.3,4.7-9.6c-0.8-1.9-1.9-3.5-3-5.1c-0.4-0.6-0.8-1.2-1.2-1.8L51.8,39
			L51.8,39z M48.8,48.8c0.2-0.1,0.4-0.2,0.6-0.3c0.4,0.7,0.7,1.4,0.9,2.1c0,0.1-0.2,0.3-0.4,0.6l0-0.1L48.8,48.8L48.8,48.8z"/>
	</g>
	<g>
		<path class="st3" d="M30.2,61.1l1-1.7c0.4-0.7,0.8-1.4,1.1-2c-0.2-0.1-0.3-0.3-0.5-0.5l-0.5-0.5l0.3-0.5c0,0,0-0.1,0-0.1
			c0-0.4-0.2-1.5,0.9-2.1c0,0-0.2-6.4-0.2-6.4l1,0c0.9,0,1.7-0.1,2.6-0.2l1-0.1l0.7,6.3c0.3,0,0.5-0.1,0.8-0.1l1.1-0.1l0,1.1
			c0,0.2,0,0.3,0,0.5c0,0.2,0,0.4,0,0.6c0,0.1,0,0.3,0,0.6c1.2-0.2,2.3-0.5,3.5-0.8l1.1-0.3l0.2,1.1c0.1,1,0.3,1.8,0.4,2.7l0.1,0.9
			l-0.9,0.2c-3.9,1-7.8,1.5-11.9,1.5L30.2,61.1z"/>
		<path d="M35.9,48c0.2,2,0.5,4.1,0.7,6.2c0.7,0,1.2-0.1,1.8-0.2c0,0.4-0.1,0.8,0,1.2c0.1,0.6,0,1-1,1.1c-0.2,0-0.4,0.4-0.9,0.8
			c2.6-0.3,4.6-0.7,6.6-1.3c0.1,1,0.3,1.8,0.4,2.7c-3.7,1-7.4,1.5-11.6,1.5c0,0-0.1,0-0.1,0c0.6-1,1.1-1.9,1.5-2.9
			c0.1-0.2-0.5-0.5-0.9-1c0.2-0.4-0.5-1.4,0.9-2c0.1,0,0-0.4,0-0.7c-0.1-1.8-0.1-3.5-0.2-5.4C34,48.1,34.9,48.1,35.9,48 M37.6,45.7
			l-2,0.2c-0.9,0.1-1.7,0.2-2.5,0.2l-2,0.1l0.1,2l0,1.4l0.1,3.5c-0.5,0.5-0.9,1.3-0.8,2.5L30,56.5l1,1c0,0,0,0,0,0
			c-0.2,0.4-0.5,0.8-0.7,1.3l-0.1,0.2l-1.7,3l3.4,0l0.1,0c4.2,0,8.1-0.5,12.1-1.6l1.7-0.5l-0.2-1.8c-0.1-0.9-0.3-1.8-0.4-2.8
			l-0.3-2.2l-2.2,0.6c-0.8,0.2-1.5,0.4-2.3,0.6c0-0.1,0-0.3,0-0.4l0-2.3L38.4,52l-0.2-1.6l-0.3-2.7L37.6,45.7L37.6,45.7z"/>
	</g>
	<g>
		<path class="st3" d="M30.4,61.1c-2.3-0.1-4.5-0.3-6.8-0.8l-0.8-0.2l0-0.8c0-2,0.4-3.1,2.1-3.3l0.1-0.5c0.2-1.2,0.4-2.5,0.6-3.7
			c0-0.2,0.1-0.4,0.2-0.6c-0.2,0-1.7-0.3-1.7-0.3l0.3-1.1c0.3-0.9,0.5-1.6,0.7-2.5l0.3-0.9l0.9,0.2c1.7,0.3,3.3,0.5,5,0.5l2.1,0.1
			L32,48.8c-0.1,0.1-0.1,0.4-0.1,0.6c0,0.6-0.1,1.7-1.2,2.2l-0.3,5c0.1,0,1.2,0.2,1.2,0.2l-0.2,4.4L30.4,61.1z"/>
		<path d="M26.1,47.6c1.7,0.3,3.3,0.5,5.1,0.5c-0.7,0.9,0.3,2.4-1.5,2.7c-0.1,2.2-0.3,4.3-0.4,6.6c0.4,0.1,0.8,0.2,1.2,0.2
			c0,0.8-0.1,1.6-0.1,2.5c-2.3-0.1-4.4-0.3-6.6-0.7c0-2.1,0.3-2.4,1.9-2.4c0,0,0.1,0,0.1,0c0.2-1.7,0.5-3.3,0.8-5
			c0.1-0.5,0.5-1,0.8-1.5c-0.5-0.1-1.1-0.2-1.9-0.3C25.7,49.2,25.9,48.4,26.1,47.6 M24.7,45.3L24.2,47c-0.2,0.8-0.5,1.6-0.7,2.4
			l-0.7,2.1l1.7,0.3c-0.2,1.1-0.4,2.2-0.5,3.2c-1.8,0.6-2.2,2.3-2.2,4.1l0,1.7l1.7,0.3c2.3,0.4,4.6,0.7,6.9,0.8l2,0.1l0.1-2l0.1-1.4
			l0-1.1l0.1-1.8l-1.2-0.2l0-0.5l0.2-3.1c0.8-0.6,1.2-1.5,1.3-2.8c0,0,0-0.1,0-0.1l2.6-3l-4.2-0.1c-1.7,0-3.2-0.2-4.8-0.5L24.7,45.3
			L24.7,45.3z"/>
	</g>
	<g>
		<path class="st3" d="M18.8,59.4c-1.3,0-2.5-0.1-3.9-0.3L14,59l0-0.9c0.1-1.2,0.1-2.4,0.3-3.5c-0.3,0.1-0.5,0.1-0.8,0.2
			c-0.1,0.6-0.4,1.5-1.2,1.9c-0.3,0.1-0.5,0.2-0.9,0.2c-0.6,0-1.4-0.2-2.2-0.5C9,56.2,8.7,56.1,8.4,56l-0.9-0.2l0.2-0.9
			c1-4.5,2.3-8.7,4-12.9L12,41l0.9,0.4c0.9,0.4,1.7,0.7,2.6,1l1,0.3c0,0-0.3,1-0.3,1l0.4-0.6l0.8,0.4c1,0.5,1.9,0.9,2.9,1.3l0.7,0.3
			l-0.1,0.6l0.3-0.5l0.8,0.3c0.9,0.3,1.8,0.6,2.8,0.8l0.8,0.2l-0.1,0.9c0,0.5-0.1,1-0.1,1.5c-0.1,2.1-0.2,4.4-2,6.4
			c-0.6,0.6-1.4,1.2-2.5,1.7c-0.3,0.2-0.7,0.2-1,0.2c0,0-0.1,0-0.1,0c0,0.4,0,0.9,0,1.3l0,1L18.8,59.4z M15.1,47.4
			c-0.2,0.6-0.3,1.1-0.4,1.7c0.3-0.3,0.4-0.8,0.6-1.4c0,0,0,0,0,0C15.2,47.6,15.1,47.5,15.1,47.4z"/>
		<path d="M12.6,42.3c0.9,0.4,1.7,0.7,2.7,1c-0.8,2.4-1.4,4.7-2,7.2c2.2,0,2.7-1.3,2.9-2.7c0.1-0.4-0.3-0.9-0.5-1.7
			c0.3-0.3,0.8-1,1.3-1.7c1,0.5,1.9,1,3,1.4c-0.4,2.3-0.6,4.6-0.8,7.1c1.7-0.5,2.2-1.7,2.2-2.9c0-0.4-0.3-0.9-0.4-1.3
			c-0.2,0-0.3,0-0.5,0c0.4-0.7,0.8-1.4,1.2-2.2c0.9,0.3,1.9,0.6,2.9,0.8c-0.2,2.5,0.2,5.2-1.8,7.3c-0.6,0.6-1.4,1.1-2.2,1.4
			c-0.1,0.1-0.3,0.1-0.5,0.1c-0.3,0-0.7,0-1,0c0,0.7-0.1,1.4-0.1,2.4c-1.2,0-2.4-0.1-3.8-0.3c0.1-1.7,0.2-3.3,0.4-4.9
			c-0.8,0.2-1.6,0.4-2.7,0.6c-0.2,0.5-0.2,1.5-0.9,1.9c-0.1,0.1-0.3,0.1-0.4,0.1c-0.7,0-1.8-0.4-2.8-0.7
			C9.6,50.6,10.9,46.4,12.6,42.3 M11.5,39.7l-0.8,1.9c-1.7,4.2-3,8.5-4,13.1l-0.4,1.9L8.1,57c0.3,0.1,0.6,0.2,0.9,0.3
			c0.9,0.3,1.7,0.5,2.4,0.5c0.5,0,0.9-0.1,1.3-0.3c0.1-0.1,0.2-0.1,0.3-0.2c0,0.3,0,0.5,0,0.8L13,59.9l1.8,0.2
			c1.3,0.2,2.6,0.3,3.9,0.3l2,0.1l0-2c0-0.2,0-0.3,0-0.5c0.2,0,0.3-0.1,0.5-0.2c1.1-0.5,2-1.1,2.7-1.8c2.2-2.2,2.3-4.9,2.3-7
			c0-0.5,0-1,0.1-1.5l0.2-1.7L25,45.3c-0.9-0.2-1.8-0.5-2.7-0.8l-0.4-0.1l-1.2-0.5c-1-0.4-1.9-0.8-2.8-1.3l-0.2-0.1l0.2-0.5
			l-1.9-0.6c-0.9-0.3-1.7-0.6-2.5-0.9L11.5,39.7L11.5,39.7z"/>
	</g>
</g>
</svg>
