<?xml version="1.0" encoding="utf-8"?>
<!-- Generator: Adobe Illustrator 23.0.1, SVG Export Plug-In . SVG Version: 6.00 Build 0)  -->
<svg version="1.1" id="Layer_1" xmlns="http://www.w3.org/2000/svg" xmlns:xlink="http://www.w3.org/1999/xlink" x="0px" y="0px"
	 viewBox="0 0 64 64" style="enable-background:new 0 0 64 64;" xml:space="preserve">
<style type="text/css">
	.st0{fill:#F9C83A;}
	.st1{fill:#C02329;}
	.st2{fill:#7F1D25;}
	.st3{fill:#FFFFFF;}
	.st4{fill:#121217;}
</style>
<image style="overflow:visible;" width="388" height="289" xlink:href="B68A5899.jpg"  transform="matrix(1 0 0 1 -8160 -8160)">
</image>
<g>
	<polygon class="st0" points="41.4,9.2 22.6,9.2 9.2,22.6 9.2,41.4 22.6,54.8 41.4,54.8 54.8,41.4 54.8,22.6 	"/>
	<g>
		<g>
			<polygon class="st1" points="32,9.2 22.6,9.2 9.2,22.6 9.2,41.4 22.6,54.8 32,54.8 			"/>
		</g>
		<polygon class="st2" points="32,9.2 41.4,9.2 54.8,22.6 54.8,41.4 41.4,54.8 32,54.8 		"/>
	</g>
	<g>
		<path class="st3" d="M34.9,48.6c-1.8,0.6-3.6,0.5-5.5,0.3c-2.8-0.4-5.4-1.5-7.7-3.2c-3.6-2.7-5.8-6.3-6.6-10.7
			c-0.7-3.9-0.1-7.6,1.8-11c2.6-4.8,6.7-7.7,12.1-8.7c0.4-0.1,0.8-0.1,1.2-0.1c-0.1,0.1-0.3,0.1-0.4,0.1c-3.8,1-6.4,4.4-6.3,8.3
			c0,3.9,2.7,7.3,6.5,8.2c1.1,0.3,2.2,0.3,3.4,0.4c6.4,1,9.4,8.5,5.4,13.6C37.7,47,36.4,47.9,34.9,48.6z M34.2,40.5
			c0-1.3-1-2.3-2.2-2.3c-1.2,0-2.2,1-2.2,2.3c0,1.2,1,2.2,2.2,2.2C33.2,42.8,34.2,41.8,34.2,40.5z"/>
		<path class="st4" d="M34.9,48.6c1.5-0.7,2.8-1.6,3.8-2.9c3.9-5.1,0.9-12.6-5.4-13.6c-1.1-0.2-2.3-0.2-3.4-0.4
			c-3.8-0.9-6.4-4.2-6.5-8.2c0-3.9,2.6-7.3,6.3-8.3c0.1,0,0.3-0.1,0.4-0.1c3.4-0.4,6.5,0.2,9.5,1.7c7.9,3.9,11.5,13.9,7.9,22
			c-2.4,5.3-6.5,8.6-12.1,9.9C35.4,48.7,35.1,48.6,34.9,48.6z M34.2,23.4c0-1.2-1.1-2.3-2.3-2.2c-1.2,0-2.2,1-2.2,2.3
			c0,1.2,1,2.3,2.2,2.3C33.2,25.7,34.2,24.7,34.2,23.4z"/>
		<path class="st4" d="M34.2,40.5c0,1.2-1.1,2.3-2.3,2.2c-1.2,0-2.2-1-2.2-2.2c0-1.2,1-2.3,2.2-2.3C33.2,38.2,34.2,39.3,34.2,40.5z"
			/>
		<path class="st3" d="M34.2,23.4c0,1.2-1,2.3-2.2,2.3c-1.2,0-2.3-1-2.2-2.3c0-1.2,1-2.2,2.2-2.3C33.2,21.1,34.2,22.2,34.2,23.4z"/>
	</g>
	<g>
		<path class="st4" d="M41.4,9.2l13.3,13.3v18.9v0L41.4,54.8H32h-9.4L9.2,41.4v0V22.6L22.6,9.2H32H41.4 M43.1,5.2h-1.7H32h-9.4h-1.7
			l-1.2,1.2L6.4,19.7l-1.2,1.2v1.7v18.9v1.7l1.2,1.2l13.3,13.3l1.2,1.2h1.7H32h9.4h1.7l1.2-1.2l13.3-13.3l1.2-1.2v-1.7V22.6v-1.7
			l-1.2-1.2L44.3,6.4L43.1,5.2L43.1,5.2z"/>
	</g>
</g>
<g>
	<path class="st3" d="M42.8,5.9l1,1l13.3,13.3l1,1v1.4v18.9v1.4l-1,1L43.8,57.1l-1,1h-1.4H32h-9.4h-1.4l-1-1L6.9,43.8l-1-1v-1.4
		V22.6v-1.4l1-1L20.2,6.9l1-1h1.4H32h9.4H42.8 M43.7,3.9h-0.8h-1.4H32h-9.4h-1.4h-0.8l-0.6,0.6l-1,1L5.4,18.8l-1,1l-0.6,0.6v0.8v1.4
		v18.9v1.4v0.8l0.6,0.6l1,1l13.3,13.3l1,1l0.6,0.6h0.8h1.4H32h9.4h1.4h0.8l0.6-0.6l1-1l13.3-13.3l1-1l0.6-0.6v-0.8v-1.4V22.6v-1.4
		v-0.8l-0.6-0.6l-1-1L45.2,5.4l-1-1L43.7,3.9L43.7,3.9z"/>
</g>
</svg>
