<?xml version="1.0" encoding="utf-8"?>
<!-- Generator: Adobe Illustrator 23.0.1, SVG Export Plug-In . SVG Version: 6.00 Build 0)  -->
<svg version="1.1" id="Layer_1" xmlns="http://www.w3.org/2000/svg" xmlns:xlink="http://www.w3.org/1999/xlink" x="0px" y="0px"
	 viewBox="0 0 64 64" style="enable-background:new 0 0 64 64;" xml:space="preserve">
<style type="text/css">
	.st0{fill:#F9C83A;}
</style>
<g>
	<g>
		<path class="st0" d="M49.4,16.4c2.7,0,3.7,1.4,3.7,4c0,4,0,7.9,0,11.9c0,3.9,0,7.7,0,11.6c0,2.6-1.1,3.9-3.7,3.9
			c-0.1,0-0.1,0-0.2,0c-2.4,0-4.7-0.1-7.1-0.1c-2.3,0-4.6,0-7,0.1c-0.1,0-0.1,0-0.2,0c-2.3,0-3.4-1-3.4-3.4c0-8.1,0-16.3,0-24.4
			c0-2.3,1.2-3.5,3.6-3.5c0,0,0,0,0,0c2.5,0,5,0,7.5,0c2.2,0,4.3,0,6.5,0C49.3,16.4,49.3,16.4,49.4,16.4 M39.2,22.7
			c-0.1,0-0.2,0-0.4,0c-0.1,0-0.2,0-0.2,0.1c-0.7,0.7-1.9,1.3-2,2c-0.2,4.9-0.2,9.8,0,14.7c0,0.7,1.2,1.9,2,2
			c2.2,0.3,3.9,0.6,5.2,0.6c3.8,0,4.2-1.9,4.2-8.3c0-0.5,0-1,0-1.5c0-8.1,0-9.6-4.8-9.6C42.2,22.5,40.9,22.6,39.2,22.7
			C39.3,22.7,39.2,22.7,39.2,22.7 M49.4,13.4l-0.1,0c-2,0-4.1,0-6.5,0c-2.5,0-5,0-7.5,0l0,0l-0.1,0c-4,0-6.6,2.6-6.6,6.5
			c0,6.5,0,13,0,19.4l0,5.1c0,4,2.4,6.4,6.4,6.4c0.1,0,0.2,0,0.3,0c2.2-0.1,4.5-0.1,6.9-0.1c2.2,0,4.6,0,7,0.1l0.2,0
			c2.1,0,3.7-0.6,4.9-1.8c1.2-1.2,1.8-2.9,1.8-5.1c0-2.7,0-5.4,0-8.1l0-3.5l0-3.3l0-8.6C56.1,16,53.6,13.4,49.4,13.4L49.4,13.4z
			 M39.8,25.6c1.4-0.1,2.6-0.1,3.5-0.1c0.9,0,1.3,0.1,1.5,0.1c0.3,0.9,0.3,3.7,0.3,6.5v1.5c0,1.2,0,4.4-0.4,5.3
			c-0.1,0-0.4,0.1-0.8,0.1c-1,0-2.4-0.2-4.2-0.4c-0.1-4.2-0.1-8.5,0-12.7C39.7,25.7,39.8,25.7,39.8,25.6
			C39.8,25.6,39.8,25.6,39.8,25.6L39.8,25.6z"/>
	</g>
	<g>
		<path class="st0" d="M18.1,16.2c1.2,0,2.2,0.4,2.8,2.1c0.3,1,0.4,2.2,0.4,3.3c0,5.5,0,11,0,16.5c0,1.4-0.7,3.1,1.9,3.7
			c0.6,0.1,0.5,3.6,0.7,5.9c-1.6,0-2.7,0-3.8,0c-2.6,0-5.2,0-8.2,0c0.8-2.5-1.8-5.5,2.5-6.7c0-5.4,0.4-10.9-0.2-16.3
			c-0.2-1.8-1.6-3.6-0.9-5.6c0.3-1,1.2-2.6,1.9-2.6C16.1,16.5,17.2,16.2,18.1,16.2 M18.1,13.2L18.1,13.2c-0.7,0-1.4,0.1-2,0.2
			c-0.4,0.1-0.8,0.1-1,0.1c-2.9,0.1-4.3,3.6-4.7,4.7c-0.8,2.3,0,4.3,0.4,5.6c0.2,0.5,0.3,1,0.4,1.2c0.4,3.7,0.3,7.6,0.2,11.4
			c0,0.9,0,1.7,0,2.6c-3.1,1.9-2.7,5.1-2.5,6.5C9,46,9.1,46.6,9.1,46.8l-1.2,3.9h4.1h8.2H24h3.4l-0.4-3.3c-0.1-0.7-0.1-1.5-0.1-2.3
			c-0.1-2.8-0.3-5.3-2.5-6.1c0-0.3,0-0.6,0-1c0-3.1,0-6.2,0-9.3c0-2.4,0-4.8,0-7.2c0-1.3-0.1-2.8-0.5-4.2
			C22.9,14.7,20.9,13.2,18.1,13.2L18.1,13.2z"/>
	</g>
	<g>
		<path class="st0" d="M42.9,27.5c0.7,0,1.7,1.5,2.2,2.5c0.3,0.6,0.1,1.6,0.1,2.4c0,0,0,0,0,0c0,0.6,0.2,1.3,0,1.8
			c-0.6,1.1-1.4,2.1-2.2,3.1c-1.1-0.9-2.7-1.5-3-2.6c-0.5-1.5-0.5-3.5,0-5C40.3,28.6,41.8,27.5,42.9,27.5
			C42.9,27.5,42.9,27.5,42.9,27.5 M42.9,24.5h-0.1l-0.2,0c-2.3,0.2-4.8,2.1-5.5,4.3c-0.7,2.2-0.7,4.8,0,6.9c0.6,1.7,2.1,2.7,3.1,3.4
			c0.3,0.2,0.6,0.4,0.8,0.6l2.5,2l1.9-2.6c0.2-0.3,0.4-0.6,0.6-0.8c0.6-0.8,1.2-1.6,1.7-2.6c0.6-1.1,0.5-2.3,0.4-2.9
			c0-0.1,0-0.2,0-0.3v-0.4c0,0,0-0.1,0-0.1c0.1-0.5,0.1-1.2,0-2v-0.5l-0.1,0c-0.1-0.3-0.2-0.5-0.3-0.8
			C46.3,25.8,44.7,24.5,42.9,24.5L42.9,24.5z"/>
	</g>
</g>
</svg>
