<?xml version="1.0" encoding="utf-8"?>
<!-- Generator: Adobe Illustrator 23.0.1, SVG Export Plug-In . SVG Version: 6.00 Build 0)  -->
<svg version="1.1" id="Layer_1" xmlns="http://www.w3.org/2000/svg" xmlns:xlink="http://www.w3.org/1999/xlink" x="0px" y="0px"
	 viewBox="0 0 64 64" style="enable-background:new 0 0 64 64;" xml:space="preserve">
<style type="text/css">
	.st0{fill:#F9C83A;}
</style>
<g>
	<g>
		<path class="st0" d="M32.5,11c2.7,0,4.6,1.4,4.4,5.4c3.4,0,6.8,0,10.4,0c-0.4,2.7-0.7,5.2-1.1,8c-1.9,0-3.7,0-5.9,0
			c3.1,8.5,6.2,16.8,9.3,25.2c-2.3,0.9-4.6,1.7-7.1,2.6c-3.1-8.3-6.2-16.6-9.6-25.8c-3.7,8.8-7.1,16.9-10.7,25.4
			c-2.4-0.7-4.6-1.3-7.3-2.1c3.5-8.5,6.9-16.7,10.5-25.4c-2.8,0-5,0-7.5,0c0.1-2.6,0.3-5.1,0.4-8.1c0.9,0,1.7,0,2.6,0
			c0.5,0,1,0,1.5,0c1.1,0,2.1,0.1,3.1,0.1c2.4,0,4.3-0.7,5.2-5.2C31.2,11,31.8,11,32.5,11 M32.5,8c-0.8,0-1.7,0.1-2.6,0.3l-2,0.4
			l-0.4,2c-0.5,2.8-1.1,2.8-2.3,2.8c-0.4,0-0.9,0-1.5-0.1c-0.5,0-1-0.1-1.6-0.1c-0.5,0-1,0-1.5,0c-0.4,0-0.8,0-1.2,0
			c-0.4,0-0.9,0-1.3,0h-2.9l-0.1,2.9l-0.2,3.7l-0.2,4.4l-0.2,3.1h3.2h3l-8.8,21.3l-1.3,3.1l3.2,0.9l7.1,2l0.2,0.1l2.6,0.7l1-2.4
			l7.4-17.6l0.3-0.8l7,18.7l1,2.8l2.8-1l3.5-1.3l3.7-1.3l2.8-1l-1-2.8l-7.8-21.2h1.6h2.6l0.4-2.6l0.7-4.8l0.4-3.2l0.5-3.4h-3.4h-7.6
			c-0.3-1.3-0.9-2.4-1.7-3.3C37,9.1,35.3,8,32.5,8L32.5,8z"/>
	</g>
	<g>
		<path class="st0" d="M39,49.1c-1.4,0-3.8,0-6.3,0c-2.4,0-4.8,0-6.2,0l0-3c1.4,0,3.8,0,6.1,0c2.5,0,5,0,6.3,0L39,49.1z"/>
	</g>
</g>
</svg>
