<?xml version="1.0" encoding="utf-8"?>
<!-- Generator: Adobe Illustrator 23.0.1, SVG Export Plug-In . SVG Version: 6.00 Build 0)  -->
<svg version="1.1" id="Layer_1" xmlns="http://www.w3.org/2000/svg" xmlns:xlink="http://www.w3.org/1999/xlink" x="0px" y="0px"
	 viewBox="0 0 64 64" style="enable-background:new 0 0 64 64;" xml:space="preserve">
<style type="text/css">
	.st0{fill:none;stroke:#FFFFFF;stroke-width:3;stroke-miterlimit:10;}
	.st1{fill:#E04446;}
	.st2{fill:#FDCA77;}
	.st3{fill:#E2A827;}
	.st4{fill:#121217;}
</style>
<path class="st0" d="M46.5,21.4c-0.8-0.5-2-1-3.2-1.4c-1.6-0.6-3.2-1-5.1-1.4l-0.1,0l0,0v-3.1V14h-1.5h-2.3V3.8V2.3h-1.5h-1.7h-1.5
	v1.5V14h-2.2h-1.5v1.5v3.1c-1.7,0.3-3.4,0.8-5.2,1.5c-1,0.4-2.1,0.8-3.1,1.4c-6.3,3.3-9.8,8.4-9.8,14c0,5.4,3.6,10.6,9.6,13.9
	c1.2,0.6,2.2,1.1,3.2,1.5c1.9,0.7,3.6,1.2,5.4,1.5v2v1.1v4.8v1.5h1.5h1.7h1.5h0.6h1.7h1.5h0.5h1.7h1.5v-1.5v-4.8v-1.1v-2l0,0l0,0
	l0,0c1.8-0.3,3.5-0.8,5.4-1.5c1.1-0.4,2.1-1,3.1-1.5l0,0l0,0c6.1-3.3,9.6-8.4,9.6-13.8C56.3,29.8,52.7,24.7,46.5,21.4z M31.1,15.5
	V3.8h1.7v0h-1.7L31.1,15.5 M27.4,55.4v-1.1v-3.2c0,0,0,0,0,0v3.2L27.4,55.4l0,4.8h0V55.4z M31.1,55.5L31.1,55.5l0,4.8h0V55.5z
	 M34.9,55.5L34.9,55.5l0,4.8h0V55.5z M48.4,46.5c3.8-2.8,6.2-6.7,6.2-10.9c0-5.3-3.5-10-9-12.9c-0.6-0.4-1.3-0.7-2.1-1
	c0.8,0.3,1.5,0.7,2.2,1c5.5,2.9,9,7.5,9,12.8C54.8,39.8,52.3,43.6,48.4,46.5z"/>
<g>
	<path class="st1" d="M45.7,22.7c-0.9-0.5-1.9-1-3-1.3c-1.6-0.6-3.2-1-5-1.4c-0.8-0.1-1.6-0.3-2.4-0.3c-1.1-0.1-2.3-0.2-3.4-0.2
		s-2.3,0.1-3.4,0.2c-0.8,0.1-1.6,0.2-2.4,0.3c-1.7,0.3-3.4,0.8-5,1.4c-1,0.4-2,0.8-3,1.3c-5.5,2.9-9,7.6-9,12.8
		c0,5.1,3.5,9.8,8.8,12.7c0.9,0.5,1.9,1,3,1.4c1.6,0.6,3.3,1.1,5.1,1.4c0.8,0.1,1.6,0.3,2.4,0.3c1.1,0.1,2.3,0.2,3.5,0.2
		s2.4-0.1,3.5-0.2c0.8-0.1,1.6-0.2,2.4-0.3c1.8-0.3,3.5-0.8,5.1-1.4c1-0.4,2-0.9,3-1.4c5.3-2.9,8.8-7.4,8.8-12.6
		C54.7,30.2,51.2,25.6,45.7,22.7z"/>
	<g>
		<g>
			<path class="st1" d="M25.2,25l1-4.8c-1.7,0.3-3.4,0.8-5,1.4L20,24.5c-3,7.1-3,15-0.1,22.2l1.1,2.8c1.6,0.6,3.3,1.1,5.1,1.4
				l-1-4.8C23.8,39.1,23.8,32,25.2,25z"/>
			<path class="st1" d="M36.4,25.4l-1.1-5.6c-1.1-0.1-2.3-0.2-3.4-0.2c-1.1,0-2.3,0.1-3.4,0.2l-1.1,5.6c-1.3,6.7-1.3,13.5-0.1,20.3
				l1.1,5.5c1.1,0.1,2.3,0.2,3.5,0.2c1.2,0,2.4-0.1,3.5-0.2l1.1-5.5C37.8,39,37.7,32.1,36.4,25.4z"/>
			<path class="st1" d="M17.9,23.7l0.3-0.8c-5.5,2.9-9,7.5-9,12.7c0,5.1,3.5,9.7,8.8,12.6l-0.3-0.7C14.6,39.8,14.7,31.3,17.9,23.7z"
				/>
			<path class="st1" d="M54.6,35.6c0-5.2-3.5-9.7-9-12.6l0.3,0.8c3.2,7.6,3.2,16,0.1,23.7l-0.2,0.6C51.2,45.2,54.6,40.6,54.6,35.6z"
				/>
			<path class="st1" d="M43.9,24.5l-1.2-2.9c-1.6-0.6-3.2-1-5-1.4l1,4.8c1.4,7,1.4,14,0.1,21l-0.9,4.8c1.8-0.3,3.5-0.8,5.1-1.4
				l1.1-2.8C46.9,39.5,46.9,31.6,43.9,24.5z"/>
			<path class="st2" d="M27.4,25.4l1.1-5.6c-0.8,0.1-1.6,0.2-2.4,0.3l-1,4.8c-1.4,7-1.4,14-0.1,21l0.9,4.8c0.8,0.1,1.6,0.3,2.4,0.3
				l-1.1-5.5C26.1,39,26.1,32.1,27.4,25.4z"/>
			<path class="st2" d="M20,24.5l1.2-2.9c-1,0.4-2,0.8-3,1.3l-0.3,0.8c-3.2,7.6-3.2,16-0.1,23.7l0.3,0.7c0.9,0.5,1.9,1,3,1.4
				l-1.2-2.8C16.9,39.5,17,31.6,20,24.5z"/>
			<path class="st2" d="M38.6,25l-1-4.8c-0.8-0.1-1.6-0.3-2.4-0.3l1.1,5.6c1.3,6.7,1.3,13.5,0.1,20.3l-1.1,5.5
				c0.8-0.1,1.6-0.2,2.4-0.3l0.9-4.8C40,39.1,40,32,38.6,25z"/>
			<path class="st2" d="M46,23.7l-0.3-0.8c-0.9-0.5-1.9-1-3-1.3l1.2,2.9c3,7.1,3,15,0.1,22.2l-1.1,2.7c1-0.4,2-0.9,3-1.4l0.3-0.7
				C49.2,39.8,49.2,31.3,46,23.7z"/>
		</g>
		<rect x="31.1" y="3.8" class="st2" width="1.7" height="12.9"/>
		<rect x="27.4" y="54.4" class="st2" width="1.7" height="5.9"/>
		<rect x="34.9" y="54.4" class="st2" width="1.7" height="5.9"/>
		<rect x="31.2" y="54.4" class="st2" width="1.7" height="5.9"/>
		<g>
			<rect x="27.4" y="15.5" class="st3" width="9.2" height="4.6"/>
		</g>
		<g>
			<rect x="27.4" y="50.9" class="st3" width="9.2" height="4.6"/>
		</g>
	</g>
	<g>
		<path class="st4" d="M32.7,3.8v11.7h3.8v4.4c0.4,0.1,0.8,0.1,1.3,0.2c1.8,0.4,3.4,0.8,5,1.4c1.1,0.3,2.1,0.8,3,1.3
			c5.5,2.9,9,7.5,9,12.8c0,5.1-3.5,9.6-8.8,12.5c-1,0.5-2,1-3,1.4c-1.6,0.6-3.3,1.1-5.1,1.4c-0.4,0.1-0.9,0.1-1.3,0.2v3.3v1.1v4.8
			h-1.7v-4.8h-2v4.8h-1.7v-4.8h-2.1v4.8h-1.7v-4.8v-1.1V51c-0.4-0.1-0.8-0.1-1.3-0.2c-1.8-0.3-3.5-0.8-5.1-1.4
			c-1.1-0.4-2.1-0.9-3-1.4c-5.3-2.9-8.8-7.5-8.8-12.6c0-5.2,3.5-9.8,9-12.7c1-0.5,2-0.9,3-1.3c1.6-0.6,3.3-1.1,5-1.4
			c0.4,0,0.8-0.1,1.2-0.1v-4.4h3.7V3.8H32.7 M34.2,2.3h-1.5h-1.7h-1.5v1.5V14h-2.2h-1.5v1.5v3.1c-1.7,0.3-3.4,0.8-5.2,1.5
			c-1,0.4-2.1,0.8-3.1,1.4c-6.3,3.3-9.8,8.4-9.8,14c0,5.4,3.6,10.6,9.6,13.9c1.2,0.6,2.2,1.1,3.2,1.5c1.9,0.7,3.6,1.2,5.4,1.5v2v1.1
			v4.8v1.5h1.5h1.7h1.5h0.6h1.7h1.5h0.5h1.7h1.5v-1.5v-4.8v-1.1v-2l0,0l0,0l0,0c1.8-0.3,3.5-0.8,5.4-1.5c1.1-0.4,2.1-1,3.1-1.5l0,0
			l0,0c6.1-3.3,9.6-8.4,9.6-13.8c0-5.7-3.6-10.8-9.8-14.1c-0.8-0.5-2-1-3.2-1.4c-1.6-0.6-3.2-1-5.1-1.4l-0.1,0l0,0v-3.1V14h-1.5
			h-2.3V3.8V2.3L34.2,2.3z"/>
	</g>
</g>
</svg>
