<?xml version="1.0" encoding="utf-8"?>
<!-- Generator: Adobe Illustrator 23.0.1, SVG Export Plug-In . SVG Version: 6.00 Build 0)  -->
<svg version="1.1" id="Layer_1" xmlns="http://www.w3.org/2000/svg" xmlns:xlink="http://www.w3.org/1999/xlink" x="0px" y="0px"
	 viewBox="0 0 64 64" style="enable-background:new 0 0 64 64;" xml:space="preserve">
<style type="text/css">
	.st0{fill:#FE2741;}
	.st1{fill:#A67F26;}
	.st2{fill:#3C3C3B;}
	.st3{fill:#D20729;}
	.st4{fill:#FEFEFE;}
	.st5{fill:#EEC455;}
	.st6{fill:#CDCDCB;}
	.st7{fill:#FE2942;}
	.st8{fill:#1D1D1B;}
	.st9{fill:none;}
	.st10{fill:#121217;}
	.st11{fill:#FFFFFF;}
</style>
<g>
	<path class="st0" d="M51.1,38.1c-0.3,0.5-0.5,1.1-0.8,1.7c0.4,0,0.8,0,1.1,0c-0.3,1.7-1.9,3.2-3.9,3.5c-0.3-1.8-1.3-2.6-3.1-2.6
		c-0.5,0-0.9,0-1.4,0c-0.7,0-1.1,0.4-1.1,0.9c0,0.5,0.4,0.9,1,0.9c0.5,0,1.1,0,1.6,0c0.6,0,1,0.4,1,0.9c0,0.5-0.4,0.9-1,0.9
		c-0.5,0-1.1,0-1.6,0c-0.6,0-1,0.4-1,0.9c0,0.5,0.4,0.9,1,0.9c0.7,0,1.4,0,2.2,0c-0.1,0.3-0.3,0.6-0.4,0.9c1.9,0,3.7,0,5.6,0
		c0.2,0,0.5,0.1,0.7,0.1c-0.3,0.5-0.5,1.1-0.8,1.7c0.4,0,0.8,0,1.1,0c-0.1,0.3-0.1,0.5-0.2,0.8c-0.9,1.8-2.4,2.7-4.3,2.9
		c0.1-0.1,0.1-0.2,0.2-0.2c0.6-0.9,0.7-1.9,0.2-2.9c-0.5-1-1.4-1.5-2.5-1.5c-0.6,0-1.1,0-1.7,0c-0.6,0-1,0.4-1,0.9
		c0,0.5,0.4,0.9,1,0.9c0.5,0,1.1,0,1.6,0c0.6,0,1,0.4,1,0.9c0,0.6-0.4,0.9-1.1,0.9c-0.6,0-1.1,0-1.7,0c-0.5,0-0.9,0.4-0.9,0.9
		c0,0.5,0.3,0.9,0.8,0.9c1.2,0,2.4,0.3,3.6-0.4c-0.5,0.9-0.9,1.9-1.4,2.8c-0.2,0.3-0.4,0.4-0.7,0.4c-1.4,0-2.8,0-4.2,0
		c-0.8-1.1-1.6-2.1-2.3-3.2c-0.2-0.4-0.5-0.5-0.9-0.5c-1,0-2,0-3.1,0c0.3,0.6,0.5,1.2,0.8,1.7c-0.3-0.3-0.6-0.6-0.9-0.9
		c-0.5-0.7-1-1.5-1.5-2.3c-0.1-0.2-0.3-0.4-0.5-0.4c-1.1,0-2.2,0-3.4,0c0.6,1.2,1.2,2.4,1.8,3.6c-0.2,0-0.3,0-0.4,0
		c-0.4-0.5-0.8-1-1.2-1.5c-0.1-0.1-0.3-0.3-0.4-0.3c-1.1,0-2.2,0-3.4,0c0.1,0.2,0.1,0.4,0.2,0.6c-0.6-0.7-1.2-1.3-1.8-2
		c-0.1-0.2-0.3-0.4-0.5-0.4c-1.1,0-2.2,0-3.4,0c0.6,1.2,1.2,2.4,1.8,3.6c-0.2,0-0.3,0-0.4,0c-0.4-0.5-0.8-1-1.2-1.5
		c-0.1-0.1-0.3-0.3-0.4-0.3c-1.1,0-2.2,0-3.4,0c0.1,0.2,0.1,0.4,0.2,0.6c-0.6-0.7-1.2-1.3-1.8-2c-0.1-0.2-0.3-0.4-0.5-0.4
		c-1.1,0-2.2,0-3.4,0c0.6,1.2,1.2,2.4,1.8,3.6c-0.1,0.1-0.1,0.1-0.2,0.1c-0.1,0-0.2,0-0.2,0c-0.5-0.6-1-1.2-1.3-1.8
		c-0.7-1.2-1.2-2.4-1.8-3.7c4.9,0,9.7,0,14.6,0c2.3,0,4.1-0.9,5.6-2.6c1.6-1.8,1.9-4,1.5-6.2c-0.5-2.8-2.9-5.2-5.7-5.6
		c-0.6,0-1.2-0.1-1.8-0.1c-3,0-6,0-9,0c0.1-0.1,0.2-0.1,0.3-0.2c1.2-0.5,1.8-1.3,1.8-2.6c0-1.3-0.7-2.1-1.8-2.6
		c4.5,0,9-0.1,13.5-0.1c0.4,0,0.7,0,1.1,0c0.1,0.5,0.2,1,0.2,1.5c0,0.1-0.1,0.1,0,0.2c0.3,1.5,1.1,2.7,2.2,3.7
		c0,0.1,0.1,0.1,0.1,0.2c2.9,2.4,6.9,2.3,9.6-0.1c1.9-1.7,2.8-3.9,2.4-6.5c-0.4-3.3-2.8-5.6-5.9-6.2c-0.2,0-0.3-0.1-0.5-0.1
		c1.5,0,3.1,0,4.6,0c1.9,0,3.7,0,5.6,0c1.6,0,3.1,0,4.7,0c-0.1,0.4-0.2,0.8-0.5,1.2c-0.9,1.5-2.3,2.3-3.9,2.5
		c-0.2,0-0.4,0.1-0.5,0.2c-0.6,1.1-1.1,2.2-1.7,3.4c0.4,0,0.6,0,0.9,0c0.1,5.1-4.1,9.9-9.8,10.1c-0.7,0-1.1,0.4-1.1,0.9
		c0,0.6,0.4,0.9,1.1,0.9c2.8-0.1,5.4-1,7.5-2.9c2.7-2.4,4.1-5.4,4.2-9c1,0,1.9,0,2.9,0c0.2,0,0.4,0.1,0.6,0.1
		c-0.3,0.5-0.5,1.1-0.8,1.7c0.4,0,0.8,0,1.1,0c-0.3,1.6-1.9,3.2-3.7,3.5c-0.8,0.1-1.4,0.4-1.6,1.2c-0.1,0.4-0.3,0.7-0.5,1
		c-0.2,0.5-0.5,1-0.8,1.6c0.3,0,0.5,0,0.7,0c1.6,0,3.3,0,4.9,0C50.7,37.9,50.9,38,51.1,38.1z M36.7,48C36.7,48,36.7,48,36.7,48
		c0.3,0,0.6,0,0.9,0c1.5-0.1,2.6-1.3,2.6-2.7c0-1.5-1.2-2.7-2.6-2.7c-0.6,0-1.2,0-1.8,0c-0.6,0-1,0.4-1,0.9c0,0.5,0.4,0.9,1,0.9
		c0.4,0,0.9,0,1.3,0c0.9,0,1.4,0.3,1.4,0.9c0,0.6-0.4,0.9-1.3,0.9c-0.4,0-0.8,0-1.3,0c-0.7,0-1.1,0.4-1.1,0.9c0,0.6,0.4,0.9,1.1,0.9
		C36.1,48,36.4,48,36.7,48z"/>
	<path class="st1" d="M24.2,34.4c2.8,0.5,5.3,2.9,5.7,5.6c0.4,2.3,0.1,4.4-1.5,6.2c-1.5,1.7-3.3,2.6-5.6,2.6c-4.9,0-9.7,0-14.6,0
		c-1.1-0.1-1.9-0.8-1.8-1.9c4.2,0,8.3,0,12.5,0c0.5,0,1.1,0,1.6-0.1c1.4-0.3,2.7-0.8,3.7-1.9c1-0.6,1.9-1.3,2.1-2.4
		c0.1-0.7,0.1-1.4,0.1-2.1c0-0.8,0.1-1.5-0.1-2.3C26.1,36.7,25.3,35.5,24.2,34.4z"/>
	<path class="st2" d="M8.2,27.9c-0.7-0.2-0.9-0.4-0.9-1.1c0-2.6-0.1-5.1,0-7.7C7.6,13.5,11.7,8.9,17,8c0.9-0.2,1.8-0.2,2.7-0.2
		c3.1,0,6.3,0,9.4,0c1.8,0,3.5-0.3,5.1-1.2c0.3-0.2,0.7-0.4,1.1-0.5c0.5-0.2,1,0,1.2,0.4c0.2,0.4,0.1,0.9-0.4,1.2
		c-2,1.1-4.2,2-6.6,2c-3.4-0.1-6.8,0-10.2,0c-5,0-9,3.3-10,8.2c-0.1,0.5-0.2,1.1-0.2,1.6c0,1.9,0,3.8,0,5.7c0,0.2,0.1,0.4,0.1,0.6
		C8.6,26.3,8.3,27,8.2,27.9z"/>
	<path class="st3" d="M46.9,52.6c2-0.2,3.4-1.1,4.3-2.9c0.1-0.2,0.2-0.5,0.2-0.8c2,0,4.1,0,6.1,0c-0.6,2.7-1.5,4.8-4.5,5.4
		c-0.8,0.1-1.1,0.5-1.4,1.1c-0.3,0.8-0.7,1.5-1.1,2.2c-0.1,0.2-0.4,0.4-0.6,0.4c-1.9,0-3.8,0.1-5.7,0c-1.6-0.1-2.9-0.7-4.1-1.8
		c1.4,0,2.8,0,4.2,0c0.3,0,0.6-0.1,0.7-0.4c0.4-0.9,0.9-1.9,1.4-2.8C46.5,52.8,46.7,52.7,46.9,52.6z"/>
	<path class="st4" d="M36.6,21.5c0.2,0,0.3,0.1,0.5,0.1c0.3,0.3,0.5,0.6,0.8,0.9c2.8,3.6,1.6,8.9-2.5,11c-1.4,0.7-3,0.9-4.5,0.7
		c-1.1-1-1.9-2.3-2.2-3.7c0-0.1,0-0.1,0-0.2c0.1,0.1,0.1,0.2,0.2,0.3c0.7,1.4,2.3,2.2,3.8,1.9c1.5-0.3,2.8-1.5,3-3
		c0.3-1.5-0.5-3.1-1.9-3.8c-0.8-0.4-1.6-0.5-2.5-0.4c-1.3,0.2-2.1,1.1-2.7,2.1c0-0.1-0.1-0.2,0-0.3C29.3,24,32.2,21.1,36.6,21.5z"/>
	<path class="st2" d="M12.7,25.7c0-0.2,0.1-0.4,0.1-0.7c0-1.6,0-3.2,0.1-4.8c0.3-3.4,3.5-6.5,6.8-6.9c0.6-0.1,1.2-0.1,1.8-0.1
		c2.6,0,5.2,0,7.8,0c1.6,0,3.1-0.3,4.4-1c0.5-0.2,0.9-0.5,1.4-0.7c0.5-0.2,1-0.1,1.2,0.4c0.2,0.4,0.1,1-0.4,1.2
		c-2.1,1.2-4.3,2-6.8,2c-2.7-0.1-5.3,0-8,0c-3.9,0-6.6,2.8-6.6,6.6c0,1.7,0,3.4,0,5.1c0,0.7-0.2,0.9-0.9,1.1
		C13.7,27,13.3,26.3,12.7,25.7z"/>
	<path class="st5" d="M24.2,34.4c1,1.1,1.8,2.3,2.1,3.8c0.1,0.7,0,1.5,0.1,2.3c-0.6-1.3-1.5-2.3-2.9-2.5c-1.4-0.1-2.9,0-4.3,0
		c-0.1,0-0.2-0.1-0.3-0.1c-2.3,0-4.6,0-6.9,0c-1.4-0.2-1.9-0.9-1.9-2.3c0.3-1,1.1-1.4,2.1-1.5c0.4,0,0.9,0,1.3,0.1c3,0,6,0,9,0
		C23.1,34.3,23.7,34.4,24.2,34.4z"/>
	<path class="st3" d="M51.1,38.1c-0.2,0-0.4-0.1-0.7-0.1c-1.6,0-3.3,0-4.9,0c-0.2,0-0.4,0-0.7,0c0.3-0.6,0.5-1.1,0.8-1.6
		c0.2-0.3,0.4-0.7,0.5-1c0.3-0.8,0.8-1.1,1.6-1.2c1.8-0.3,3.4-1.9,3.7-3.5c2,0,4.1,0,6.1,0c-0.6,2.7-1.5,4.8-4.5,5.3
		c-0.9,0.2-1.2,0.6-1.5,1.2C51.4,37.5,51.3,37.8,51.1,38.1z"/>
	<path class="st1" d="M46.7,21.5c-1.9,0-3.7,0-5.6,0c0.6-0.6,1.3-1.3,1.9-1.9c0.2,0,0.5,0.1,0.7,0.1c0.8-0.1,1.5-0.5,2.1-1.1
		c0.4-0.4,0.9-0.9,1.3-1.4c2.6-2.7,5.2-5.4,7.8-8.1c0.5-0.5,0.8-1,0.8-1.7c0.8-0.2,1.7,0.7,1.8,1.6c0.1,0.8-0.3,1.3-0.8,1.9
		c-3.2,3.4-6.4,6.8-9.6,10.2C47,21.1,46.9,21.3,46.7,21.5z"/>
	<path class="st3" d="M45.7,28.8c-0.3,0-0.5,0-0.9,0c0.6-1.2,1.2-2.3,1.7-3.4c0.1-0.1,0.3-0.2,0.5-0.2c1.7-0.2,3.1-1,3.9-2.5
		c0.2-0.4,0.3-0.8,0.5-1.2c2,0,4.1,0,6.1,0c-0.6,2.7-1.5,4.8-4.5,5.3c-0.9,0.2-1.2,0.6-1.5,1.2c-0.1,0.3-0.3,0.6-0.5,0.8
		c-0.2,0-0.4-0.1-0.6-0.1c-1,0-1.9,0-2.9,0c-0.1-0.5-0.4-0.9-1-0.9C46,27.9,45.8,28.3,45.7,28.8z"/>
	<path class="st3" d="M51.1,47.2c-0.2,0-0.5-0.1-0.7-0.1c-1.8,0-3.6,0-5.6,0c0.2-0.4,0.3-0.6,0.4-0.9c1.4-0.4,2.2-1.3,2.3-2.8
		c1.9-0.4,3.6-1.8,3.9-3.5c2,0,4.1,0,6.1,0c-0.6,2.7-1.5,4.8-4.5,5.3c-0.9,0.2-1.2,0.6-1.5,1.2C51.4,46.6,51.3,46.9,51.1,47.2z"/>
	<path class="st5" d="M55.8,7.3c0,0.7-0.4,1.2-0.8,1.7c-2.6,2.7-5.2,5.4-7.8,8.1c-0.4,0.5-0.8,0.9-1.3,1.4c-0.6,0.6-1.3,1-2.1,1.1
		c-0.2,0-0.5,0-0.7-0.1c0.1-0.1,0.1-0.1,0.2-0.2c1.4-0.9,1.7-2.2,1.6-3.8c-0.1-1.7,0-3.3,0-5c0-1.1,0.7-1.8,1.8-1.9
		c0,1.1,0,2.3,0,3.4c0.1,0,0.1,0,0.2,0.1c0.6-0.6,1.1-1.3,1.7-1.9c0,1.2,0,2.5,0,3.8c0.2-0.2,0.3-0.3,0.4-0.4
		c1.8-1.9,3.5-3.9,5.3-5.8C54.6,7.5,55.1,7.1,55.8,7.3z"/>
	<path class="st4" d="M12.7,25.7c0.7,0.6,1,1.3,1,2.2c0,0.3-0.1,0.7-0.1,1c0,0.4,0.1,0.9,0,1.3c-0.4,1.9-2.4,2.7-4.1,1.8
		c-0.2-0.1-0.5-0.2-0.6-0.1c-0.8,0.5-1.5,0.6-2.4,0.4c-0.4-1.5,0.2-2.6,1.8-3.5c-0.1-0.3-0.1-0.7-0.2-1c0-0.9,0.4-1.6,1-2.2
		C10.4,24.9,11.5,24.9,12.7,25.7z"/>
	<path class="st5" d="M24.2,45c-1,1.1-2.3,1.7-3.7,1.9c-0.5,0.1-1.1,0.1-1.6,0.1c-4.2,0-8.3,0-12.5,0C6.5,46,7,45.5,8.3,45.2
		c0.2,0,0.4,0.1,0.7,0.1c1.8,0,3.6,0,5.5,0c0.3,0,0.7,0,1-0.1c0.2,0,0.4,0.1,0.6,0.1c2.1,0,4.1,0,6.2,0C22.9,45.2,23.6,45.1,24.2,45
		z"/>
	<path class="st2" d="M28.8,30.5c-0.1-0.1-0.1-0.2-0.2-0.3c-0.1-0.5-0.2-1-0.2-1.5c0.1-0.5,0.2-1,0.2-1.5c0.7-1,1.4-1.9,2.7-2.1
		c0.9-0.2,1.7-0.1,2.5,0.4c0,0.2,0,0.4,0,0.6c0.6,2.5-1.8,4.9-4.3,4.3C29.2,30.5,29,30.5,28.8,30.5z"/>
	<path class="st3" d="M11.4,54.4c0.1,0,0.2,0,0.2,0c0,0,0.1,0,0.2-0.1c-0.6-1.2-1.2-2.3-1.8-3.6c1.2,0,2.3,0,3.4,0
		c0.2,0,0.3,0.2,0.5,0.4c0.6,0.7,1.2,1.3,1.8,2c0.5,1,1,2,1.6,3C15.1,56.4,13.1,56,11.4,54.4z"/>
	<path class="st3" d="M20.6,54.4c0.1,0,0.2,0,0.4,0c-0.6-1.2-1.2-2.4-1.8-3.6c1.2,0,2.3,0,3.4,0c0.2,0,0.3,0.2,0.5,0.4
		c0.6,0.7,1.2,1.3,1.8,2c0.5,1,1,2,1.6,3C24.2,56.4,22.2,56,20.6,54.4z"/>
	<path class="st3" d="M29.7,54.4c0.1,0,0.2,0,0.4,0c-0.6-1.2-1.2-2.4-1.8-3.6c1.2,0,2.3,0,3.4,0c0.2,0,0.4,0.2,0.5,0.4
		c0.5,0.7,1,1.5,1.5,2.3c0.2,0.3,0.6,0.6,0.9,0.9c0.3,0.6,0.7,1.2,1,1.9C33.4,56.4,31.4,56,29.7,54.4z"/>
	<path class="st6" d="M6.5,32.3c0.9,0.2,1.6,0.1,2.4-0.4c0.1-0.1,0.5,0,0.6,0.1c1.7,0.9,3.7,0.1,4.1-1.8c0.1-0.4,0-0.9,0-1.3
		c0.1,0,0.1,0,0.2,0c1.1,0.5,1.8,1.3,1.8,2.6c0,1.2-0.6,2.1-1.8,2.6c-0.1,0-0.2,0.1-0.3,0.2c-0.4,0-0.9,0-1.3-0.1
		c-0.4-0.2-0.8-0.3-1.2-0.5c-0.3,0.2-0.6,0.3-0.9,0.5C8.3,34.5,7,33.8,6.5,32.3z"/>
	<path class="st6" d="M15.5,45.2c-0.3,0-0.7,0.1-1,0.1c-1.8,0-3.6,0-5.5,0c-0.2,0-0.4,0-0.7-0.1c1.2-1.2,2.4-2.3,3.6-3.5
		C13.1,42.8,14.3,44,15.5,45.2z"/>
	<path class="st6" d="M12,37.9c2.3,0,4.6,0,6.9,0c0.1,0,0.2,0,0.3,0.1c-1.2,1.2-2.4,2.3-3.6,3.5C14.4,40.3,13.2,39.1,12,37.9z"/>
	<path class="st1" d="M48.4,10.3c-0.6,0.6-1.1,1.3-1.7,1.9c-0.1,0-0.1,0-0.2-0.1c0-1.1,0-2.3,0-3.4C47.6,8.7,48.3,9.3,48.4,10.3z"/>
	<path class="st7" d="M10.1,34.2c0.3-0.2,0.6-0.4,0.9-0.5c0.4,0.2,0.8,0.4,1.2,0.5c-1,0.1-1.7,0.5-2.1,1.5
		C10.1,35.2,10.1,34.7,10.1,34.2z"/>
	<path class="st6" d="M30.7,34.2c1.6,0.2,3.1,0,4.5-0.7c4.1-2.1,5.3-7.3,2.5-11c-0.2-0.3-0.5-0.6-0.8-0.9c3.1,0.6,5.5,2.9,5.9,6.2
		c0.3,2.5-0.5,4.8-2.4,6.5c-2.7,2.4-6.7,2.5-9.6,0.1C30.8,34.3,30.8,34.2,30.7,34.2z"/>
	<path class="st4" d="M45.7,28.8c0.1-0.5,0.3-0.9,0.9-0.9c0.6,0,0.9,0.4,1,0.9c-0.1,3.6-1.4,6.6-4.2,9c-2.1,1.9-4.7,2.8-7.5,2.9
		c-0.7,0-1.1-0.3-1.1-0.9c0-0.6,0.4-0.9,1.1-0.9C41.6,38.7,45.8,33.9,45.7,28.8z"/>
	<path class="st4" d="M47.6,43.3c-0.1,1.5-0.9,2.4-2.3,2.8c-0.7,0-1.4,0-2.2,0c-0.6,0-1-0.4-1-0.9c0-0.5,0.4-0.9,1-0.9
		c0.5,0,1.1,0,1.6,0c0.6,0,1-0.4,1-0.9c0-0.5-0.4-0.9-1-0.9c-0.5,0-1.1,0-1.6,0c-0.6,0-1-0.4-1-0.9c0-0.6,0.4-0.9,1.1-0.9
		c0.5,0,0.9,0,1.4,0C46.3,40.7,47.3,41.5,47.6,43.3z"/>
	<path class="st4" d="M36.7,48c-0.3,0-0.6,0-0.9,0c-0.7,0-1.1-0.3-1.1-0.9c0-0.6,0.4-0.9,1.1-0.9c0.4,0,0.8,0,1.3,0
		c0.9,0,1.3-0.3,1.3-0.9c0-0.6-0.4-0.9-1.4-0.9c-0.4,0-0.9,0-1.3,0c-0.6,0-1-0.4-1-0.9c0-0.5,0.4-0.9,1-0.9c0.6,0,1.2,0,1.8,0
		c1.5,0,2.7,1.3,2.6,2.7c0,1.5-1.2,2.7-2.6,2.7C37.3,48,37,48,36.7,48C36.7,48,36.7,48,36.7,48z"/>
	<path class="st4" d="M46.9,52.6c-0.2,0.1-0.3,0.3-0.5,0.4c-1.1,0.7-2.4,0.5-3.6,0.4c-0.5,0-0.8-0.4-0.8-0.9c0-0.5,0.4-0.9,0.9-0.9
		c0.6,0,1.1,0,1.7,0c0.7,0,1.1-0.4,1.1-0.9c0-0.5-0.4-0.9-1-0.9c-0.5,0-1.1,0-1.6,0c-0.6,0-1-0.4-1-0.9c0-0.5,0.4-0.9,1-0.9
		c0.6,0,1.1,0,1.7,0c1.1,0,1.9,0.5,2.5,1.5c0.5,1,0.4,1.9-0.2,2.9C47,52.4,46.9,52.5,46.9,52.6z"/>
	<path class="st8" d="M28.8,30.5c0.2,0,0.4,0,0.6,0c2.5,0.6,4.9-1.8,4.3-4.3c0-0.2,0-0.4,0-0.6c1.4,0.7,2.2,2.3,1.9,3.8
		c-0.3,1.5-1.5,2.8-3,3C31.1,32.7,29.5,31.9,28.8,30.5z"/>
</g>
<g>
	<path class="st9" d="M24.1,4.8c-0.1,0-0.2,0-0.3,0c0.2,0,0.4,0,0.6,0C24.3,4.8,24.2,4.8,24.1,4.8z"/>
	<path class="st9" d="M12.9,58.9c-0.2,0-0.4-0.1-0.6-0.2C12.5,58.8,12.7,58.8,12.9,58.9z"/>
	<path class="st9" d="M33.9,16.1c-0.2,0.1-0.4,0.1-0.6,0.2C33.5,16.3,33.7,16.2,33.9,16.1z"/>
	<path class="st9" d="M52.9,5.2C53,5.1,53.1,5.1,53.2,5C53.1,5.1,53,5.1,52.9,5.2z"/>
	<path class="st9" d="M32.9,16.5c-0.2,0.1-0.4,0.1-0.6,0.2C32.5,16.6,32.7,16.5,32.9,16.5z"/>
	<path class="st9" d="M46.2,53.6L46.2,53.6c0.1,0,0.1-0.1,0.2-0.1c0,0.1-0.1,0.2-0.1,0.2l0,0c0-0.1,0.1-0.2,0.1-0.2
		C46.3,53.5,46.2,53.5,46.2,53.6z"/>
	<path class="st9" d="M34.8,15.7c-0.2,0.1-0.4,0.2-0.6,0.2C34.5,15.9,34.7,15.8,34.8,15.7z"/>
	<path class="st9" d="M32.7,59.1c0,0-0.1,0-0.1,0C32.6,59.1,32.6,59.1,32.7,59.1z"/>
	<path class="st9" d="M31.8,16.7c-0.2,0-0.4,0.1-0.6,0.1C31.4,16.8,31.6,16.8,31.8,16.7z"/>
	<path class="st9" d="M25.4,17c1,0,2.1,0,3.1,0C27.5,17,26.5,17,25.4,17z"/>
	<path class="st9" d="M53,58.2c0.2-0.4,0.4-0.8,0.6-1.2c0.3-0.1,0.6-0.1,0.9-0.2c-0.3,0.1-0.6,0.2-0.9,0.2
		C53.4,57.5,53.2,57.8,53,58.2z"/>
	<path class="st9" d="M17.2,18.3c0.4-0.4,0.9-0.7,1.4-0.9C18.1,17.6,17.6,17.9,17.2,18.3z"/>
	<path class="st9" d="M31.5,58.9c-0.1,0-0.1,0-0.2,0C31.4,58.8,31.4,58.8,31.5,58.9z"/>
	<path class="st9" d="M7.4,38.7c-0.2-0.3-0.4-0.6-0.5-1C7,38.1,7.2,38.4,7.4,38.7z"/>
	<path class="st9" d="M14.1,59.1c-0.3,0-0.6-0.1-0.8-0.1C13.5,59,13.8,59,14.1,59.1z"/>
	<path class="st9" d="M36.7,14.8c-0.2,0.1-0.5,0.3-0.7,0.4C36.3,15,36.5,14.9,36.7,14.8z"/>
	<path class="st9" d="M36.4,3.2c0.1,0.1,0.3,0.1,0.4,0.2C36.7,3.3,36.5,3.3,36.4,3.2z"/>
	<path class="st9" d="M37.4,3.9c0.1,0.1,0.2,0.2,0.3,0.3C37.6,4.1,37.5,4,37.4,3.9z"/>
	<polygon class="st9" points="12,34.3 12,34.3 12,34.3 12,34.3 	"/>
	<path class="st9" d="M36.9,3.5c0.2,0.1,0.3,0.2,0.4,0.3C37.2,3.7,37,3.6,36.9,3.5z"/>
	<path class="st9" d="M34,59.1c0,0,0.1,0,0.2,0c-0.1,0-0.2,0-0.3,0C33.9,59.1,34,59.1,34,59.1z"/>
	<path class="st9" d="M10.2,57.8c-0.2-0.1-0.4-0.2-0.5-0.4C9.8,57.5,10,57.7,10.2,57.8z"/>
	<path class="st9" d="M35.8,3c0.1,0,0.3,0.1,0.4,0.1C36.1,3.1,35.9,3.1,35.8,3z"/>
	<path class="st9" d="M37.8,4.3c0.1,0.2,0.2,0.3,0.3,0.5C38,4.7,37.9,4.5,37.8,4.3z"/>
	<path class="st9" d="M9.4,57.2c-0.3-0.2-0.5-0.4-0.7-0.7C8.9,56.8,9.2,57,9.4,57.2z"/>
	<path class="st9" d="M11.9,58.6c-0.2-0.1-0.4-0.1-0.6-0.2C11.6,58.5,11.8,58.5,11.9,58.6z"/>
	<path class="st9" d="M11,58.2c-0.2-0.1-0.4-0.2-0.5-0.3C10.7,58.1,10.9,58.2,11,58.2z"/>
	<path class="st9" d="M35.8,15.3c-0.2,0.1-0.4,0.2-0.6,0.3C35.4,15.5,35.6,15.4,35.8,15.3z"/>
	<path class="st9" d="M34.5,3.1c0.1,0,0.1,0,0.2,0C34.6,3,34.5,3,34.5,3.1z"/>
	<path class="st9" d="M30.3,58.5c-0.1,0-0.1-0.1-0.2-0.1C30.2,58.4,30.2,58.5,30.3,58.5z"/>
	<path class="st9" d="M30.6,17C30.4,17,30.2,17,30,17C30.2,17,30.4,17,30.6,17z"/>
	<path class="st9" d="M53.8,4.6c0.1-0.1,0.2-0.1,0.3-0.1C54,4.5,53.9,4.6,53.8,4.6z"/>
	<path class="st9" d="M55.3,4.3c0,0-0.1,0-0.1,0C55.2,4.3,55.3,4.3,55.3,4.3C55.3,4.3,55.3,4.3,55.3,4.3z"/>
	<path class="st9" d="M54.2,4.5c0.1,0,0.3-0.1,0.4-0.1C54.5,4.4,54.4,4.4,54.2,4.5z"/>
	<path class="st9" d="M20.9,58.5c-0.1,0-0.1-0.1-0.2-0.1C20.8,58.4,20.9,58.5,20.9,58.5z"/>
	<path class="st9" d="M41.9,16.8c0.1-0.1,0.1-0.2,0.2-0.4C42.1,16.6,42,16.7,41.9,16.8z"/>
	<path class="st9" d="M30.2,4.7c0.1,0,0.3,0,0.4-0.1C30.5,4.7,30.4,4.7,30.2,4.7z"/>
	<path class="st9" d="M54.7,4.3c0.1,0,0.2,0,0.3,0C54.9,4.3,54.8,4.3,54.7,4.3z"/>
	<path class="st9" d="M22.2,58.9c-0.1,0-0.1,0-0.2,0C22,58.8,22.1,58.8,22.2,58.9z"/>
	<path class="st9" d="M52.3,5.8c0.1-0.2,0.3-0.3,0.4-0.4C52.6,5.5,52.5,5.6,52.3,5.8z"/>
	<path class="st9" d="M21,40.4c0.5,0,0.9,0,1.4,0.1C22,40.5,21.5,40.4,21,40.4z"/>
	<path class="st9" d="M20.4,19.9c-1.1,0-1.6,0.5-1.6,1.6v2.1l4.7,0c0.6-1.4,1.5-2.6,2.5-3.7c-0.2,0-0.5,0-0.8,0c-0.8,0-1.7,0-2.5,0
		C22,19.9,21.2,19.9,20.4,19.9z"/>
	<path class="st9" d="M29.2,4.8c0.2,0,0.3,0,0.5,0C29.5,4.8,29.3,4.8,29.2,4.8z"/>
	<path class="st9" d="M53.4,4.9c0.1-0.1,0.2-0.1,0.3-0.2C53.5,4.8,53.5,4.8,53.4,4.9z"/>
	<path class="st9" d="M21.2,4.8c0.3,0,0.6,0,0.8,0C21.8,4.8,21.5,4.8,21.2,4.8z"/>
	<path class="st9" d="M56.5,55.8c-0.6,0.4-1.3,0.8-2.1,1.1C55.2,56.6,55.9,56.2,56.5,55.8z"/>
	<path class="st9" d="M28.9,17.1c0.2,0,0.3,0,0.5,0c-0.3,0-0.6,0-0.9,0C28.6,17.1,28.8,17.1,28.9,17.1z"/>
	<path class="st9" d="M31.3,4.4c0.1,0,0.2-0.1,0.3-0.1C31.5,4.4,31.4,4.4,31.3,4.4z"/>
	<path class="st9" d="M59.5,23.1c-0.2,0.5-0.4,1.2-0.7,1.8C59.1,24.3,59.3,23.7,59.5,23.1z"/>
	<path class="st9" d="M57.1,4.5c0.1,0,0.2,0.1,0.4,0.1C57.3,4.6,57.2,4.6,57.1,4.5z"/>
	<path class="st9" d="M15.3,59.1C15.3,59.1,15.4,59.1,15.3,59.1c-0.3,0-0.7,0-1,0C14.6,59.1,15,59.1,15.3,59.1z"/>
	<path class="st9" d="M23.3,59.1c0,0-0.1,0-0.1,0C23.3,59.1,23.3,59.1,23.3,59.1z"/>
	<path class="st9" d="M35.2,3C35.2,3,35.1,3,35.2,3c0.1,0,0.3,0,0.5,0C35.5,3,35.3,3,35.2,3z"/>
	<path class="st9" d="M59.5,41.8c0.2-0.5,0.3-1,0.3-1.4l0.6-2.9l-0.6,2.9C59.7,40.8,59.6,41.3,59.5,41.8z"/>
	<path class="st9" d="M59.7,22.4c0.1-0.2,0.1-0.4,0.1-0.6l0.6-2.9l-0.6,2.9C59.8,21.9,59.7,22.1,59.7,22.4z"/>
	<path class="st9" d="M57.6,4.7c0.2,0.1,0.4,0.2,0.5,0.3C58,4.9,57.8,4.8,57.6,4.7z"/>
	<path class="st9" d="M41.9,16.8c-0.1,0.1-0.1,0.2-0.2,0.2C41.8,17,41.9,16.9,41.9,16.8z"/>
	<path class="st9" d="M56.5,4.4c0.1,0,0.2,0,0.3,0.1C56.7,4.4,56.6,4.4,56.5,4.4z"/>
	<path class="st9" d="M56,4.3c0,0-0.1,0-0.1,0c0.1,0,0.3,0,0.4,0C56.2,4.4,56.1,4.3,56,4.3z"/>
	<path class="st9" d="M24.7,59.1c0,0,0.1,0,0.1,0c-0.1,0-0.2,0-0.3,0C24.6,59.1,24.6,59.1,24.7,59.1z"/>
	<path class="st10" d="M39,22.2c0.7,0.4,1.3,0.8,1.8,1.4C40.3,23,39.7,22.5,39,22.2z"/>
	<path class="st10" d="M11.3,34.2c-0.5,0.1-0.9,0.2-1.3,0.4C10.4,34.4,10.8,34.3,11.3,34.2c0.2,0,0.4,0,0.7,0l0,0
		C11.8,34.3,11.6,34.3,11.3,34.2z"/>
	<path class="st10" d="M45,56.3c0.4-0.9,0.9-1.8,1.3-2.6l0,0C45.8,54.6,45.4,55.5,45,56.3z"/>
	<path class="st10" d="M45.1,53.9c0.4-0.1,0.7-0.2,1.1-0.3l0,0C45.8,53.8,45.5,53.9,45.1,53.9z"/>
	<path class="st10" d="M37.9,21.7c-0.4-0.1-0.7-0.2-1.1-0.3c-0.2,0-0.3-0.1-0.5-0.1c0.2,0,0.3,0.1,0.5,0.1
		C37.2,21.5,37.6,21.6,37.9,21.7z"/>
	<path class="st10" d="M59.5,41.8c0.2-0.5,0.3-1,0.3-1.4l0.6-2.9h-4.7c3.1-1.7,3.8-5.1,4.1-6.5l0.6-2.9h-4.7
		c1.5-0.8,2.5-2.1,3.1-3.3c0.3-0.6,0.5-1.2,0.7-1.8c0.1-0.3,0.1-0.5,0.2-0.8c0.1-0.2,0.1-0.4,0.1-0.6l0.6-2.9h-8.5h0
		c2.2-2.3,4.4-4.6,6.6-7c0.4-0.4,1.6-1.7,1.4-3.7c-0.1-1.2-0.8-2.4-1.8-3.1c-0.2-0.1-0.3-0.2-0.5-0.3c-0.1,0-0.1-0.1-0.2-0.1
		c-0.1-0.1-0.2-0.1-0.4-0.1c-0.1,0-0.2,0-0.2-0.1c-0.1,0-0.2-0.1-0.3-0.1c-0.1,0-0.2,0-0.2,0c-0.1,0-0.3,0-0.4,0c-0.2,0-0.3,0-0.5,0
		c-0.1,0-0.1,0-0.2,0c0,0-0.1,0-0.1,0c-0.1,0-0.2,0-0.3,0c0,0-0.1,0-0.1,0c-0.1,0-0.3,0.1-0.4,0.1c0,0-0.1,0-0.1,0
		c-0.1,0-0.2,0.1-0.3,0.1c0,0-0.1,0.1-0.1,0.1c-0.1,0.1-0.2,0.1-0.3,0.2c-0.1,0-0.1,0.1-0.2,0.1c-0.1,0.1-0.2,0.1-0.3,0.2
		c0,0-0.1,0.1-0.1,0.1c-0.1,0.1-0.3,0.3-0.4,0.4c-0.7,0.8-1.4,1.6-2.2,2.4c-0.7-1.4-2-2.2-3.7-2.3l-0.1,0l-0.1,0
		c-2.4,0.1-4.1,1.9-4.1,4.2c0,0.4,0,0.9,0,1.3c0,1.3-0.1,2.6,0.1,4c0,0.5,0,0.8,0,1.1c0,0.2-0.1,0.3-0.2,0.4
		c-0.1,0.1-0.1,0.2-0.2,0.2c0,0-0.1,0.1-0.1,0.1c-0.3,0.2-0.5,0.4-0.6,0.5l-1.2,1.2l-3.7,0c-5.3,0-9.4,3-10.5,7.5L16,26.4
		c0-0.9,0-1.9,0-2.8v-2.2c0-0.7,0.1-1.3,0.3-1.8s0.5-1,0.9-1.4c0.4-0.4,0.9-0.7,1.4-0.9c0.5-0.2,1.1-0.3,1.8-0.3c0.8,0,1.6,0,2.4,0
		c0.8,0,1.7,0,2.5,0c0,0,0.1,0,0.1,0c1,0,2.1,0,3.1,0c0.3,0,0.6,0,0.9,0c0.2,0,0.4,0,0.6,0c0.2,0,0.4,0,0.7-0.1c0.2,0,0.4,0,0.5-0.1
		c0.2,0,0.4-0.1,0.6-0.1c0.2,0,0.3-0.1,0.5-0.1c0.2-0.1,0.4-0.1,0.6-0.2c0.1,0,0.3-0.1,0.4-0.1c0.2-0.1,0.4-0.1,0.6-0.2
		c0.1,0,0.3-0.1,0.4-0.1c0.2-0.1,0.4-0.2,0.6-0.2c0.1,0,0.2-0.1,0.3-0.1c0.2-0.1,0.4-0.2,0.6-0.3c0.1,0,0.2-0.1,0.2-0.1
		c0.3-0.1,0.5-0.3,0.7-0.4c1.6-0.9,2.2-2.8,1.3-4.4c-0.3-0.6-0.7-1-1.2-1.3c0.2-0.1,0.3-0.2,0.5-0.4c0.3-0.3,0.5-0.6,0.7-0.9
		c0.4-0.9,0.5-1.9,0-2.9c-0.1-0.2-0.2-0.3-0.3-0.5c0,0-0.1-0.1-0.1-0.1c-0.1-0.1-0.2-0.2-0.3-0.3c0,0-0.1-0.1-0.1-0.1
		c-0.1-0.1-0.3-0.2-0.4-0.3c0,0-0.1,0-0.1,0c-0.1-0.1-0.3-0.1-0.4-0.2c-0.1,0-0.1,0-0.2-0.1c-0.1,0-0.3-0.1-0.4-0.1c0,0-0.1,0-0.1,0
		c-0.2,0-0.4,0-0.5,0c-0.1,0-0.3,0-0.4,0c-0.1,0-0.1,0-0.2,0c-0.2,0-0.4,0.1-0.7,0.2c-0.4,0.2-0.9,0.4-1.3,0.7
		c-0.3,0.2-0.6,0.3-0.9,0.4c-0.1,0-0.2,0.1-0.3,0.1c-0.2,0.1-0.4,0.1-0.6,0.2c-0.1,0-0.3,0-0.4,0.1c-0.2,0-0.4,0.1-0.6,0.1
		c-0.1,0-0.3,0-0.5,0c-0.2,0-0.3,0-0.5,0c-0.1,0-0.1,0-0.2,0c-1.4,0-2.7,0-4.1,0c-0.2,0-0.4,0-0.6,0c-0.6,0-1.2,0-1.7,0
		c-0.3,0-0.6,0-0.8,0c-0.8,0-1.6,0-2.5,0c-1.2,0-2.2,0.1-3.1,0.3C9,6.3,4.1,12,3.8,18.7c-0.1,1.9-0.1,3.8,0,5.6c0,0.7,0,1.4,0,2.2
		l0,0.4c0,0.4,0.1,0.9,0.3,1.3C2.5,30,2.8,32,3.1,33c0.5,1.8,1.8,3.1,3.6,3.5c0,0.4,0.1,0.8,0.3,1.2s0.3,0.7,0.5,1
		c0.1,0.2,0.2,0.3,0.4,0.4c0.3,0.3,0.6,0.5,0.9,0.7C8.9,40,9.1,40,9.3,40.1L6,43.4c-2,0.6-3,2-3.1,4c-0.1,1.8,1,3.3,2.6,4
		c0,0,0,0.1,0.1,0.1c0.4,0.9,0.9,1.8,1.4,2.8c0.4,0.6,0.8,1.2,1.2,1.6c0.1,0.2,0.3,0.3,0.4,0.5l0.2,0.2c0.2,0.2,0.5,0.4,0.7,0.7
		c0.1,0.1,0.2,0.1,0.3,0.2c0.2,0.1,0.3,0.3,0.5,0.4c0.1,0.1,0.2,0.1,0.3,0.2c0.2,0.1,0.3,0.2,0.5,0.3c0.1,0.1,0.2,0.1,0.3,0.2
		c0.2,0.1,0.4,0.1,0.6,0.2c0.1,0,0.2,0.1,0.4,0.1c0.2,0.1,0.4,0.1,0.6,0.2c0.1,0,0.2,0.1,0.3,0.1c0.3,0,0.5,0.1,0.8,0.1
		c0.1,0,0.1,0,0.2,0c0.4,0,0.7,0,1.1,0c0.4,0,0.8,0,1.3-0.1l3.5-0.3l-0.4-0.8c0.3,0.2,0.6,0.3,1,0.5c0.1,0,0.1,0.1,0.2,0.1
		c0.3,0.1,0.7,0.2,1,0.3c0.1,0,0.1,0,0.2,0c0.3,0.1,0.7,0.1,1,0.2c0,0,0.1,0,0.1,0c0.4,0,0.8,0.1,1.2,0.1c0.1,0,0.2,0,0.3,0
		c0.4,0,0.8,0,1.2-0.1l3.5-0.3l-0.4-0.8c0.3,0.2,0.6,0.3,1,0.5c0.1,0,0.1,0.1,0.2,0.1c0.3,0.1,0.7,0.2,1,0.3c0.1,0,0.1,0,0.2,0
		c0.3,0.1,0.7,0.1,1,0.2c0,0,0.1,0,0.1,0c0.4,0,0.8,0.1,1.2,0.1c0.1,0,0.2,0,0.3,0c0.4,0,0.8,0,1.2-0.1l3-0.3
		c1.5,1.4,3.4,2.1,5.4,2.2c0.8,0,1.6,0,2.5,0c0.9,0,1.9,0,2.8,0l0.7,0c0.1,0,0.3,0,0.4,0c0.1,0,0.3-0.1,0.4-0.1
		c0.3-0.1,0.5-0.2,0.7-0.3c0.5-0.3,0.9-0.7,1.1-1.1c0.2-0.4,0.4-0.8,0.6-1.2c0.2-0.4,0.4-0.8,0.6-1.2c0.3-0.1,0.6-0.1,0.9-0.2
		c0.8-0.3,1.5-0.6,2.1-1.1c2.4-1.7,3-4.5,3.3-6l0.6-2.9h-4.7C58,45.7,59,43.5,59.5,41.8z M57.8,49.3c-0.6,2.8-1.6,4.9-4.6,5.5
		c-0.8,0.2-1.1,0.5-1.4,1.2c-0.3,0.8-0.7,1.5-1.2,2.3c-0.1,0.2-0.4,0.4-0.6,0.4c-1.9,0-3.9,0.1-5.8,0c-1.6-0.1-3-0.7-4.1-1.9h0
		c-0.8-1.1-1.6-2.1-2.4-3.2c-0.2-0.4-0.5-0.5-0.9-0.5c-1,0-2,0-3.1,0c0.3,0.6,0.6,1.2,0.8,1.8c0.3,0.6,0.7,1.3,1,1.9
		c-2.3,0.2-4.4-0.1-6.1-1.8c-0.4-0.5-0.8-1-1.2-1.5C28,53.2,27.8,53,27.7,53c-1.1,0-2.3,0-3.5,0c0.1,0.2,0.1,0.4,0.2,0.6
		c0.5,1,1.1,2,1.6,3.1c-2.3,0.2-4.4-0.1-6.1-1.8c-0.4-0.5-0.8-1-1.2-1.5c-0.1-0.1-0.3-0.3-0.4-0.3c-1.1,0-2.3,0-3.5,0
		c0.1,0.2,0.1,0.4,0.2,0.6c0.5,1,1.1,2,1.6,3.1c-2.3,0.2-4.4-0.1-6.1-1.8c-0.5-0.6-1-1.2-1.4-1.9c-0.7-1.2-1.3-2.5-1.9-3.7
		c-1.2-0.1-1.9-0.8-1.9-1.9c0.1-1.1,0.6-1.6,1.9-1.9c1.2-1.2,2.4-2.4,3.6-3.6c1.2,1.2,2.4,2.4,3.7,3.6c0.2,0,0.4,0.1,0.6,0.1
		c2.1,0,4.2,0,6.3,0c0.7,0,1.3-0.2,2-0.2c1-0.6,1.9-1.3,2.1-2.5c0.1-0.7,0.1-1.5,0.1-2.2c-0.6-1.3-1.5-2.4-3-2.5
		c-1.5-0.1-2.9,0-4.4,0c-1.2,1.2-2.4,2.4-3.6,3.5c-1.2-1.2-2.4-2.4-3.7-3.6c-1.4-0.2-2-0.9-1.9-2.3c0-0.5,0-1,0-1.5
		c-1.8,0.4-3.2-0.4-3.6-1.9c-0.4-1.5,0.2-2.7,1.9-3.5c-0.1-0.3-0.1-0.7-0.2-1c-0.7-0.2-0.9-0.4-0.9-1.1c0-2.6-0.1-5.2,0-7.8
		c0.2-5.7,4.4-10.4,9.9-11.4c0.9-0.2,1.8-0.2,2.7-0.2c3.2,0,6.4,0,9.6,0c1.9,0,3.6-0.3,5.2-1.2c0.4-0.2,0.7-0.4,1.1-0.5
		c0.5-0.2,1,0,1.2,0.4c0.2,0.4,0.1,1-0.4,1.2c-2.1,1.2-4.3,2.1-6.7,2c-3.5-0.1-6.9,0-10.4,0c-5.1,0-9.3,3.4-10.3,8.4
		c-0.1,0.5-0.2,1.1-0.2,1.7c0,1.9,0,3.9,0,5.8c0,0.2,0.1,0.4,0.1,0.6c1.2-0.8,2.3-0.8,3.5,0c0-0.2,0.1-0.4,0.1-0.7
		c0-1.7,0-3.3,0.1-5c0.3-3.4,3.5-6.6,7-7c0.6-0.1,1.2-0.1,1.9-0.1c2.7,0,5.3,0,8,0c1.6,0,3.1-0.3,4.5-1.1c0.5-0.2,0.9-0.5,1.4-0.7
		c0.5-0.2,1-0.1,1.2,0.4c0.2,0.5,0.1,1-0.4,1.3c-2.2,1.2-4.4,2.1-7,2c-2.7-0.1-5.5,0-8.2,0c-3.9,0-6.8,2.8-6.8,6.8
		c0,1.7,0,3.5,0,5.2c0,0.7-0.2,1-0.9,1.1c0,0.4-0.1,0.7-0.1,1.1v0c0.1,0,0.1,0,0.2,0c4.6,0,9.2-0.1,13.8-0.1c0.4,0,0.7,0,1.1,0
		c0.1-0.5,0.2-1,0.2-1.5c0-0.1-0.1-0.2,0-0.3c0.8-3.1,3.7-6.1,8.2-5.7c1.6,0,3.1,0,4.7,0c0.7-0.7,1.3-1.3,2-2
		c0.1-0.1,0.1-0.1,0.2-0.2c1.4-0.9,1.8-2.3,1.6-3.9c-0.1-1.7,0-3.4,0-5.1c0-1.1,0.7-1.8,1.9-1.9c1,0.1,1.7,0.7,1.9,1.6
		c0,1.3,0,2.5,0,3.9c0.2-0.2,0.3-0.3,0.4-0.4c1.8-2,3.6-4,5.4-5.9c0.4-0.5,0.9-0.9,1.7-0.6c0.8-0.2,1.8,0.7,1.9,1.6
		c0.1,0.8-0.3,1.4-0.8,1.9c-3.3,3.5-6.6,6.9-9.9,10.4c-0.2,0.2-0.3,0.4-0.5,0.5c1.6,0,3.2,0,4.8,0c2.1,0,4.2,0,6.2,0
		c-0.6,2.7-1.6,4.9-4.6,5.5c-0.9,0.2-1.2,0.6-1.5,1.3c-0.1,0.3-0.3,0.6-0.5,0.9c-0.3,0.6-0.5,1.1-0.8,1.8c0.4,0,0.8,0,1.2,0
		c2.1,0,4.2,0,6.2,0c-0.6,2.7-1.6,4.9-4.6,5.5c-0.9,0.2-1.2,0.6-1.5,1.3c-0.1,0.3-0.3,0.6-0.5,0.9c-0.3,0.6-0.5,1.1-0.8,1.8
		c0.4,0,0.8,0,1.2,0c2.1,0,4.2,0,6.2,0c-0.6,2.7-1.6,4.9-4.6,5.5c-0.9,0.2-1.2,0.6-1.5,1.3c-0.1,0.3-0.3,0.6-0.5,0.9
		c-0.3,0.6-0.5,1.1-0.8,1.8c0.4,0,0.8,0,1.2,0C53.6,49.3,55.7,49.3,57.8,49.3z M16.4,43.2l2.8-2.7c0.1,0,0.3,0,0.4,0
		c0.5,0,0.9,0,1.4,0c0,0,0,0,0,0c0.5,0,0.9,0,1.4,0.1c0.2,0,0.5,0,0.9,0.7c0,0.1,0,0.1,0,0.2c0,0.4,0,0.8,0,1c0,0.1-0.1,0.3-0.6,0.7
		c-0.1,0-0.1,0-0.2,0c-0.4,0.1-0.8,0.1-1.1,0.1c-0.9,0-1.8,0-2.8,0C17.9,43.2,17.2,43.2,16.4,43.2L16.4,43.2z M35.7,7.6
		C35.7,7.6,35.7,7.6,35.7,7.6C35.7,7.6,35.7,7.6,35.7,7.6z"/>
	<path class="st0" d="M46.2,53.6l0.1,0.1c0-0.1,0.1-0.2,0.1-0.2C46.3,53.5,46.2,53.5,46.2,53.6z"/>
	<path class="st0" d="M50.1,42.3h-2.9c0.2,0.4,0.3,0.8,0.4,1.2C48.5,43.4,49.4,42.9,50.1,42.3z"/>
	<path class="st0" d="M47,52.8c-0.1,0.1-0.1,0.2-0.2,0.2c1.3-0.1,2.4-0.6,3.2-1.4h-2.6C47.4,52,47.3,52.4,47,52.8z"/>
	<path class="st0" d="M47.3,31l1.1-2.3c-0.3,0-0.5,0-0.8,0C47.5,29.5,47.4,30.3,47.3,31z"/>
	<path class="st0" d="M41.9,53c0-0.5,0.4-0.9,0.9-0.9c0.2,0,0.4,0,0.6,0l0-0.5c0.2,0,0.5,0,0.7,0c0.4,0,0.5-0.1,0.6-0.1l0.3,0.5
		c0.3-0.2,0.5-0.4,0.5-0.8c0-0.5-0.4-0.9-1.1-0.9c-0.5,0-1.1,0-1.6,0c-0.6,0-1-0.4-1-1c0-0.5,0.4-0.9,1-0.9c0.6,0,1.2,0,1.8,0
		c1.1,0,2,0.5,2.5,1.5c0,0,0,0,0,0l1.2-2.5c-1.2,0-2.4,0-3.6,0c0.2-0.4,0.3-0.7,0.4-0.9c-0.7,0-1.5,0-2.2,0c-0.6,0-1-0.4-1-0.9
		c0-0.6,0.4-0.9,1-0.9c0.5,0,1.1,0,1.6,0c0.6,0,1-0.4,1.1-0.9c0-0.6-0.4-0.9-1-0.9c-0.5,0-1.1,0-1.6,0c-0.6,0-1.1-0.4-1.1-0.9
		c0-0.6,0.4-0.9,1.1-0.9c0.5,0,0.9,0,1.4,0c1,0,1.7,0.3,2.3,0.8l1.7-3.6c-1,0-1.9,0-2.9,0c-0.2,0-0.4,0-0.8,0
		c0.3-0.6,0.5-1.1,0.8-1.6c0.2-0.3,0.4-0.7,0.5-1c0.3-0.8,0.8-1.1,1.6-1.3c0.9-0.1,1.7-0.6,2.4-1.2h-3.4c-0.7,1.9-1.8,3.5-3.4,4.9
		c-2.2,1.9-4.8,2.9-7.7,3c-0.7,0-1.2-0.3-1.2-0.9c0-0.6,0.4-0.9,1.2-0.9c5.9-0.2,10.1-5,10-10.3c-0.3,0-0.5,0-0.9,0
		c0.6-1.2,1.2-2.4,1.8-3.5c0.1-0.1,0.3-0.2,0.5-0.2c1.2-0.2,2.2-0.6,3.1-1.4l-9.2,0c1,1.1,1.7,2.5,1.9,4.1c0.3,2.6-0.5,4.9-2.5,6.6
		c-2.8,2.5-6.9,2.6-9.8,0.1c-0.1,0-0.1-0.1-0.1-0.2c-1-0.9-1.6-1.9-2-3.1l-1.8,0l-11.8,0.1c0,0.1,0,0.2,0,0.3c0,1.3-0.6,2.1-1.8,2.6
		c-0.1,0-0.2,0.1-0.3,0.2c3.1,0,6.1,0,9.2,0c0.6,0,1.2,0.1,1.8,0.1c2.9,0.5,5.4,2.9,5.9,5.8c0.4,2.3,0.1,4.5-1.6,6.4
		c-1.5,1.7-3.4,2.7-5.7,2.7c-4.2,0-8.4,0-12.6,0c0,0,0,0,0,0.1c0.3,0.6,0.6,1.2,0.9,1.8c0.2,0,0.5,0,0.7,0l-0.2-0.5l4.2,0
		c0.9,0,1.8,0,2.7,0c0.6,0,1.1,0.2,1.4,0.5c0.4,0,0.8,0,1.2,0l-0.2-0.5l4.2,0c0.9,0,1.8,0,2.7,0c0.6,0,1.1,0.2,1.4,0.5
		c0.3,0,0.6,0,0.9,0l-0.2-0.5l4.7,0c0.7,0,1.4,0,2.1,0c1.2,0,2.2,0.5,3,1.5c0.5,0.8,1.1,1.5,1.6,2.3l0.6,0.8c0.5,0.5,1.1,0.8,1.8,1
		l0.1-2.2c-0.2,0-0.4,0-0.7,0C42.2,53.9,41.9,53.5,41.9,53z M37.4,48.3c-0.3,0-0.6,0-0.9,0c0,0,0,0,0,0c-0.3,0-0.6,0-0.9,0
		c-0.7,0-1.1-0.4-1.1-0.9c0-0.6,0.4-0.9,1.1-0.9c0.4,0,0.9,0,1.3,0c0.9,0,1.3-0.3,1.4-0.9c0-0.6-0.4-0.9-1.4-0.9c-0.4,0-0.9,0-1.3,0
		c-0.6,0-1-0.4-1-0.9c0-0.6,0.4-0.9,1-0.9c0.6,0,1.2,0,1.9,0c1.5,0,2.7,1.3,2.7,2.8C40.1,47,38.9,48.3,37.4,48.3z"/>
	<path class="st0" d="M18.6,51.2c0.4,0,0.7,0,1,0c-0.4-0.3-0.8-0.5-1.4-0.5c-0.9,0-1.8,0-2.7,0l-4.2,0l0.2,0.5c0.4,0,0.9,0,1.3,0
		c0.2,0,0.4,0.3,0.5,0.4c0.6,0.7,1.3,1.3,1.9,2C15,53.4,15,53.3,14.9,53c1.2,0,2.3,0,3.5,0c0.1,0,0.3,0.2,0.4,0.3
		c0.4,0.5,0.8,1,1.2,1.5c0.1,0,0.2,0,0.4,0C19.8,53.6,19.2,52.4,18.6,51.2z"/>
	<path class="st0" d="M11,54.8c-0.6-1.2-1.2-2.4-1.8-3.6c0.5,0,1,0,1.5,0c-0.3-0.6-0.6-1.2-0.9-1.8c0,0,0,0,0-0.1
		c-0.8,0-1.6,0-2.4,0C8,50.5,8.6,51.8,9.2,53c0.4,0.7,0.9,1.2,1.4,1.9c0.1,0,0.2,0,0.2,0C10.9,54.9,10.9,54.9,11,54.8z"/>
	<path class="st0" d="M44.2,51.6c-0.2,0-0.5,0-0.7,0l0,0.5c0.4,0,0.7,0,1.1,0c0.2,0,0.4-0.1,0.6-0.1l-0.3-0.5
		C44.8,51.5,44.6,51.6,44.2,51.6z"/>
	<path class="st0" d="M37.9,21.7c0.4,0.1,0.7,0.3,1.1,0.5c0.7,0.4,1.3,0.8,1.8,1.4c0,0,0,0.1,0.1,0.1l9.2,0c0.4-0.3,0.7-0.7,1-1.2
		c0.2-0.4,0.3-0.8,0.5-1.2c-1.6,0-3.2,0-4.8,0c-1.9,0-3.8,0-5.7,0c-1.6,0-3.1,0-4.7,0c0.2,0,0.3,0.1,0.5,0.1
		C37.2,21.5,37.6,21.6,37.9,21.7z"/>
	<path class="st0" d="M14.3,29.9c0.3,0.4,0.4,0.8,0.5,1.3l11.8-0.1l1.8,0c-0.1-0.2-0.2-0.4-0.2-0.7c0-0.1,0-0.1,0-0.2
		c-0.1-0.5-0.2-1-0.3-1.5c-0.4,0-0.7,0-1.1,0c-4.6,0-9.2,0.1-13.8,0.1h0C13.6,29.1,14,29.5,14.3,29.9z"/>
	<path class="st0" d="M27.9,51.2c0.4,0,0.7,0,1,0c-0.4-0.3-0.8-0.5-1.4-0.5c-0.9,0-1.8,0-2.7,0l-4.2,0l0.2,0.5c0.4,0,0.9,0,1.3,0
		c0.2,0,0.4,0.3,0.5,0.4c0.6,0.7,1.3,1.3,1.9,2c-0.1-0.2-0.1-0.4-0.2-0.6c1.2,0,2.3,0,3.5,0c0.1,0,0.3,0.2,0.4,0.3
		c0.4,0.5,0.8,1,1.2,1.5c0.1,0,0.2,0,0.4,0C29.1,53.6,28.6,52.4,27.9,51.2z"/>
	<path class="st0" d="M48.4,38.1l-1.7,3.6c0.2,0.2,0.4,0.4,0.5,0.7h2.9c0.7-0.7,1.3-1.5,1.4-2.4c-0.4,0-0.7,0-1.2,0
		c0.3-0.6,0.6-1.2,0.8-1.8c-0.2,0-0.4-0.1-0.7-0.1C49.8,38.1,49.1,38.1,48.4,38.1z"/>
	<path class="st0" d="M44.2,56.8c0.3,0,0.6-0.1,0.7-0.4c0.4-0.9,0.9-1.8,1.3-2.6l-0.1-0.1c-0.3,0.2-0.7,0.3-1.1,0.3
		c-0.2,0-0.4,0-0.5,0.1c-0.4,0-0.8,0-1.2,0l-0.1,2.2c-0.7-0.1-1.3-0.5-1.8-1l-0.6-0.8c-0.6-0.8-1.1-1.5-1.6-2.3
		c-0.7-1.1-1.7-1.6-3-1.5c-0.7,0-1.4,0-2.1,0l-4.7,0l0.2,0.5c0.5,0,1.1,0,1.6,0c0.2,0,0.4,0.2,0.5,0.4c0.5,0.8,1,1.6,1.6,2.3
		c0.2,0.3,0.6,0.6,0.9,0.9c-0.3-0.6-0.5-1.1-0.8-1.8c1.1,0,2.1,0,3.1,0c0.5,0,0.7,0.1,0.9,0.5c0.8,1.1,1.6,2.2,2.4,3.2h0l0,0
		C41.4,56.8,42.8,56.8,44.2,56.8z"/>
	<path class="st0" d="M50.9,28.8c-0.1,0-0.2,0-0.3,0c-0.7,0-1.4,0-2.1,0L47.3,31c-0.1,0.7-0.3,1.3-0.5,2h3.4
		c0.7-0.7,1.3-1.5,1.4-2.4c-0.4,0-0.7,0-1.2,0c0.3-0.6,0.6-1.2,0.8-1.8l0,0C51.1,28.8,51,28.8,50.9,28.8z"/>
	<path class="st0" d="M48.4,47.4l-1.2,2.5c0.3,0.6,0.4,1.2,0.3,1.8h2.6c0.5-0.4,0.9-1,1.2-1.6c0.1-0.2,0.2-0.5,0.2-0.8
		c-0.4,0-0.7,0-1.2,0c0.3-0.6,0.6-1.2,0.8-1.8c-0.2,0-0.5-0.1-0.7-0.1C49.8,47.4,49.1,47.4,48.4,47.4z"/>
	<path class="st1" d="M28,46.6c1.6-1.8,2-4.1,1.6-6.4c-0.5-2.8-3-5.3-5.9-5.8c0.6,0.6,1.1,1.3,1.5,2.1c1,0.6,1.9,1.5,2.6,3.1
		l0.2,0.5l0,0.5c0,0.2,0,0.4,0,0.6c0,0.6,0,1.3-0.1,2c-0.4,2.2-2.1,3.4-3.3,4.1l-0.4,0.2l-0.5,0.1c-0.2,0-0.4,0.1-0.6,0.1
		c-0.5,0.1-1.1,0.2-1.7,0.2c-1.7,0-3.4,0-5,0l-1.3,0c-0.2,0-0.5,0-0.7-0.1l-1-0.1l-0.4-0.3c-1.4,0-2.9,0-4.3,0l0.5,0.8
		c0.2,0.3,0.3,0.7,0.5,1.1c4.2,0,8.4,0,12.6,0C24.6,49.3,26.5,48.3,28,46.6z"/>
	<path class="st1" d="M18.3,47.4c-1.7,0-3.5,0-5.2,0l0.4,0.3l1,0.1c0.2,0,0.5,0.1,0.7,0.1l1.3,0c1.7,0,3.4,0,5,0
		c0.6,0,1.2-0.1,1.7-0.2c0.2,0,0.4-0.1,0.6-0.1l0.5-0.1l0.4-0.2c1.2-0.7,2.8-1.8,3.3-4.1c0.1-0.7,0.1-1.4,0.1-2c0-0.2,0-0.4,0-0.6
		l0-0.5l-0.2-0.5c-0.7-1.6-1.6-2.6-2.6-3.1c0.3,0.5,0.5,1.1,0.6,1.8c0.1,0.8,0,1.6,0.1,2.3c0,0.7,0.1,1.5-0.1,2.2
		c-0.2,1.2-1.1,1.9-2.1,2.5c-1,1.1-2.3,1.7-3.8,2C19.4,47.4,18.8,47.4,18.3,47.4z"/>
	<path class="st1" d="M9.2,48.2l-0.5-0.8c-1.1,0-2.2,0-3.3,0c0,1.1,0.7,1.8,1.9,1.9c0.8,0,1.6,0,2.4,0C9.6,48.9,9.4,48.6,9.2,48.2z"
		/>
	<path class="st3" d="M46.9,53c-0.2,0.2-0.3,0.3-0.5,0.5c0,0.1-0.1,0.2-0.1,0.2l1.1,1.8c-0.7,0.4-1.4,0.7-2.2,0.8c1.2,0,2.3,0,3.5,0
		c0.2-0.4,0.4-0.9,0.6-1.3c0.4-0.9,1.2-2.2,3.1-2.5c0.7-0.1,1.2-0.3,1.6-0.8h-3.9C49.2,52.5,48.2,52.9,46.9,53z"/>
	<path class="st3" d="M51.3,50.1c-0.3,0.6-0.7,1.2-1.2,1.6H54c-0.4,0.5-0.9,0.7-1.6,0.8c-2,0.4-2.7,1.6-3.1,2.5
		c-0.2,0.4-0.4,0.8-0.6,1.3c-1.2,0-2.4,0-3.5,0c0.8-0.1,1.6-0.4,2.2-0.8l-1.1-1.8c-0.4,0.9-0.9,1.8-1.3,2.6
		c-0.2,0.3-0.4,0.4-0.7,0.4c-1.4,0-2.8,0-4.2,0c1.1,1.2,2.5,1.8,4.1,1.9c1.9,0.1,3.9,0,5.8,0c0.2,0,0.5-0.2,0.6-0.4
		c0.4-0.7,0.8-1.5,1.2-2.3c0.3-0.6,0.6-1,1.4-1.2c3.1-0.6,4-2.7,4.6-5.5c-2.1,0-4.2,0-6.2,0C51.4,49.6,51.4,49.8,51.3,50.1z"/>
	<path class="st3" d="M40,56.8L40,56.8c1.4,0,2.8,0,4.2,0C42.8,56.8,41.4,56.8,40,56.8z"/>
	<path class="st4" d="M35,33.5c3.7-1.9,5.1-6.3,3.4-9.9l-2.3,0c-1.9,0-3.3,0.6-4.3,1.4c0.6,0,1.1,0.1,1.6,0.4c1.4,0.7,2.2,2.3,2,3.9
		c-0.3,1.6-1.5,2.9-3.1,3.1c-1.3,0.2-2.7-0.3-3.5-1.4l-0.5,0c0.4,1.2,1.1,2.3,2,3.1C32,34.5,33.5,34.3,35,33.5z"/>
	<path class="st4" d="M30.9,25.1c0.3-0.1,0.6-0.1,0.9-0.1c1-0.8,2.4-1.4,4.3-1.4l2.3,0c-0.2-0.5-0.5-0.9-0.8-1.3
		c-0.2-0.3-0.5-0.6-0.8-0.9c-0.2,0-0.3-0.1-0.5-0.1c-4.5-0.4-7.4,2.6-8.2,5.7c0,0.1,0,0.2,0,0.3C28.8,26.2,29.6,25.3,30.9,25.1z"/>
	<path class="st4" d="M28.4,30.5c-0.1-0.1-0.1-0.2-0.2-0.3c0,0.1-0.1,0.1,0,0.2c0.1,0.2,0.1,0.5,0.2,0.7l0.5,0
		C28.6,30.9,28.5,30.7,28.4,30.5z"/>
	<path class="st5" d="M21.9,34.3c-3.1,0-6.1,0-9.2,0c-0.2,0-0.3,0-0.5,0c0,0,0,0,0,0c0,0,0,0,0,0c0,0,0,0,0,0c-0.1,0-0.2,0-0.2,0v0
		c0,0,0,0,0,0l-0.1,1.5l0,0l2.3,2.3c0.2,0,0.4,0,0.6,0l2.4-2.3l1,0c0.4,0,0.9,0,1.3,0c1.1,0,2.2-0.1,3.3,0c0.7,0.1,1.6,0.3,2.4,0.8
		c-0.4-0.8-0.9-1.5-1.5-2.1C23.1,34.4,22.5,34.3,21.9,34.3z"/>
	<path class="st5" d="M12,35.8L12,35.8l0-1.5c-0.2,0-0.4,0-0.7,0c-0.5,0.1-0.9,0.2-1.3,0.4c-0.4,0.2-0.6,0.6-0.8,1.1
		c-0.1,1.5,0.5,2.2,1.9,2.3c1,0,2.1,0,3.1,0L12,35.8z"/>
	<path class="st5" d="M25.8,38.3c-0.1-0.6-0.3-1.2-0.6-1.8c-0.8-0.5-1.7-0.7-2.4-0.8c-1.1-0.1-2.3-0.1-3.3,0c-0.4,0-0.9,0-1.3,0
		l-1,0l-2.4,2.3c1.1,0,2.2,0,3.3,0c0.1,0,0.2,0,0.3,0.1c1.5,0,3-0.1,4.4,0c1.5,0.1,2.4,1.2,3,2.5C25.9,39.9,26,39.1,25.8,38.3z"/>
	<path class="st5" d="M21.9,34.3c-3.1,0-6.1,0-9.2,0c0,0,0,0,0,0C15.8,34.3,18.9,34.3,21.9,34.3z"/>
	<path class="st3" d="M46,35.4c-0.1,0.4-0.3,0.7-0.5,1c-0.2,0.5-0.5,1-0.8,1.6c0.3,0,0.5,0,0.8,0c1,0,1.9,0,2.9,0l0.5-1
		c0.1-0.1,0.1-0.2,0.2-0.3c0.1-0.1,0.1-0.2,0.2-0.3c0.6-1.5,1.7-2.4,3.3-2.7c0.6-0.1,1.1-0.3,1.5-0.8h-3.9c-0.7,0.6-1.5,1.1-2.4,1.2
		C46.9,34.3,46.3,34.6,46,35.4z"/>
	<path class="st3" d="M50.1,33H54c-0.4,0.5-0.9,0.7-1.5,0.8c-1.6,0.3-2.7,1.2-3.3,2.7c0,0.1-0.1,0.2-0.2,0.3
		c-0.1,0.1-0.1,0.2-0.2,0.3l-0.5,1c0.7,0,1.4,0,2.1,0c0.2,0,0.4,0.1,0.7,0.1c0.2-0.3,0.3-0.6,0.5-0.9c0.3-0.7,0.7-1.1,1.5-1.3
		c3-0.5,4-2.7,4.6-5.5c-2.1,0-4.2,0-6.2,0C51.4,31.5,50.8,32.3,50.1,33z"/>
	<path class="st1" d="M47.2,20.7c3.3-3.5,6.6-6.9,9.9-10.4c0.5-0.5,0.9-1.1,0.8-1.9c-0.1-1-1.1-1.8-1.9-1.6c0,0.7-0.4,1.2-0.9,1.7
		c-2.6,2.8-5.3,5.5-7.9,8.3c-0.4,0.5-0.9,0.9-1.3,1.4c-0.6,0.6-1.3,1-2.1,1.1c-0.2,0-0.5,0-0.7-0.1c-0.7,0.7-1.3,1.3-2,2
		c1.9,0,3.8,0,5.7,0C46.9,21,47,20.9,47.2,20.7z"/>
	<path class="st3" d="M46.5,25.2c-0.6,1.1-1.2,2.3-1.8,3.5c0.4,0,0.7,0,0.9,0c0.1-0.5,0.4-0.9,0.9-0.9c0.6,0,0.9,0.4,1,0.9
		c0.3,0,0.5,0,0.8,0l0.5-1c0.1-0.1,0.1-0.2,0.2-0.3c0.1-0.1,0.1-0.2,0.2-0.3c0.6-1.5,1.7-2.4,3.3-2.7c0.6-0.1,1.1-0.3,1.5-0.8
		l-3.9,0c-0.8,0.8-1.9,1.2-3.1,1.4C46.8,25,46.6,25.1,46.5,25.2z"/>
	<path class="st3" d="M50.1,23.6l3.9,0c-0.4,0.5-0.9,0.7-1.5,0.8c-1.6,0.3-2.7,1.2-3.3,2.7c0,0.1-0.1,0.2-0.2,0.3
		c-0.1,0.1-0.1,0.2-0.2,0.3l-0.5,1c0.7,0,1.4,0,2.1,0c0.1,0,0.2,0,0.3,0c0.1,0,0.2,0.1,0.3,0.1l0,0c0.2-0.3,0.3-0.6,0.5-0.9
		c0.3-0.7,0.7-1.1,1.5-1.3c3-0.5,4-2.7,4.6-5.5c-2.1,0-4.2,0-6.2,0c-0.2,0.4-0.2,0.8-0.5,1.2C50.8,22.9,50.5,23.3,50.1,23.6z"/>
	<path class="st3" d="M50.9,28.8c0.1,0,0.2,0.1,0.3,0.1l0,0l0,0C51.1,28.8,51,28.8,50.9,28.8z"/>
	<path class="st3" d="M45.2,46.5c-0.1,0.3-0.3,0.6-0.4,0.9c1.2,0,2.4,0,3.6,0l0.5-1c0.1-0.1,0.1-0.2,0.2-0.3
		c0.1-0.1,0.1-0.2,0.2-0.3c0.6-1.5,1.7-2.4,3.3-2.7c0.6-0.1,1.1-0.3,1.5-0.8h-3.9c-0.7,0.6-1.6,1.1-2.5,1.2
		C47.5,45.1,46.7,46.1,45.2,46.5z"/>
	<path class="st3" d="M50.1,42.3H54c-0.4,0.5-0.9,0.7-1.5,0.8c-1.6,0.3-2.7,1.2-3.3,2.7c0,0.1-0.1,0.2-0.2,0.3
		c-0.1,0.1-0.1,0.2-0.2,0.3l-0.5,1c0.7,0,1.4,0,2.1,0c0.2,0,0.5,0.1,0.7,0.1c0.2-0.3,0.3-0.6,0.5-0.9c0.3-0.7,0.7-1.1,1.5-1.3
		c3-0.5,4-2.7,4.6-5.5c-2.1,0-4.2,0-6.2,0C51.4,40.8,50.8,41.7,50.1,42.3z"/>
	<path class="st5" d="M45.8,18.2c0.4-0.5,0.9-0.9,1.3-1.4c2.6-2.8,5.3-5.6,7.9-8.3c0.5-0.5,0.8-1,0.9-1.7c-0.7-0.2-1.2,0.2-1.7,0.6
		c-1.8,2-3.6,4-5.4,5.9c-0.1,0.1-0.2,0.2-0.4,0.4c0-1.4,0-2.7,0-3.9c-0.6,0.6-1.1,1.3-1.7,1.9c-0.1,0-0.1,0-0.2-0.1
		c0-1.2,0-2.3,0-3.5c-1.1,0.1-1.8,0.8-1.9,1.9c0,1.7-0.1,3.4,0,5.1c0.1,1.6-0.2,3-1.6,3.9c-0.1,0-0.1,0.1-0.2,0.2
		c0.2,0,0.5,0.1,0.7,0.1C44.5,19.2,45.3,18.8,45.8,18.2z"/>
	<path class="st4" d="M12.4,31.2l-0.3,0l0,0c0,0,0,0-0.1-0.1l-2.2-0.1l0.1-1L9.8,30l0,0.1l-1.5,0.8c-0.6,0.3-0.7,0.5-0.7,0.5
		c0,0,0,0.1,0,0.2c0,0.1,0.1,0.3,0.4,0.3c0,0,0,0,0,0c0.1,0,0.2,0,0.3,0c0,0,0.1,0,0.1,0l2.8-0.6l0,0.5l0.5,0
		C12.1,31.7,12.3,31.5,12.4,31.2z"/>
	<polygon class="st4" points="12.7,30.6 12.7,30.6 12.7,30.6 	"/>
	<path class="st4" d="M8,31.9c-0.3,0-0.4-0.2-0.4-0.3c0-0.1,0-0.2,0-0.2c0,0,0.1-0.2,0.7-0.5l1.5-0.8l0-0.1l0.2,0.1l-0.1,1l2.2,0.1
		c0,0,0,0,0.1,0.1l0,0l0.3,0c0.1-0.2,0.2-0.4,0.3-0.6v0l0,0c0.1-0.1,0.1-0.3,0.1-0.4c0.1-0.3,0-0.7,0-1c0-0.1,0-0.2,0-0.3l0,0v0
		c0-0.4,0.1-0.7,0.1-1.1c0-0.9-0.4-1.6-1.1-2.2c-1.2-0.8-2.3-0.8-3.5,0c-0.7,0.6-1,1.3-1.1,2.2c0.1,0.3,0.1,0.7,0.2,1
		c-1.7,0.9-2.3,2-1.9,3.5C6.5,32.6,7.3,32.4,8,31.9z"/>
	<path class="st4" d="M11.3,31.3l-2.8,0.6c0,0-0.1,0-0.1,0c0.1,0,0.2,0.1,0.3,0.1c1.1,0.6,2.3,0.5,3.1-0.1l-0.5,0L11.3,31.3z"/>
	<path class="st5" d="M11.1,45.5c-0.2,0-0.4,0-0.6,0l-1.8,1.8l0.1,0.1c1.4,0,2.9,0,4.3,0L11.1,45.5z"/>
	<path class="st5" d="M11.1,45.5l1.9,1.9c1.7,0,3.5,0,5.2,0c0.5,0,1.1,0,1.6-0.1c1.5-0.3,2.8-0.9,3.8-2c-0.7,0.1-1.3,0.2-2,0.2
		c-2.1,0-4.2,0-6.3,0c-0.2,0-0.4,0-0.6-0.1c-0.3,0-0.7,0.1-1,0.1C12.8,45.5,12,45.5,11.1,45.5z"/>
	<path class="st5" d="M8.7,47.3l1.8-1.8c-0.8,0-1.6,0-2.4,0c-0.2,0-0.5,0-0.7-0.1c-1.4,0.3-1.9,0.8-1.9,1.9c1.1,0,2.2,0,3.3,0
		L8.7,47.3z"/>
	<path class="st2" d="M33.4,26.1c0-0.2,0-0.4,0-0.7c-0.5-0.3-1.1-0.4-1.6-0.4c-0.8,0.6-1.3,1.4-1.5,2.1l0,0.1l-0.5,3.3
		C32,30.6,34,28.4,33.4,26.1z"/>
	<path class="st2" d="M28.4,30.5c0.2,0,0.4,0,0.7,0c0.2,0.1,0.5,0.1,0.7,0.1l0.5-3.3l0-0.1c0.3-0.8,0.8-1.5,1.5-2.1
		c-0.3,0-0.6,0-0.9,0.1c-1.3,0.2-2.1,1.1-2.8,2.2c-0.1,0.5-0.2,1-0.2,1.5c0.1,0.5,0.2,1,0.3,1.5C28.2,30.3,28.3,30.4,28.4,30.5z"/>
	<path class="st3" d="M10.7,51.2c0.1,0.2,0.3,0.5,0.4,0.7c0.2,0.3,0.4,0.6,0.7,1c0.1,0.2,0.3,0.3,0.4,0.5c0,0,0.1,0.1,0.1,0.1
		l-0.8-2.2C11.2,51.2,10.9,51.2,10.7,51.2z"/>
	<path class="st3" d="M12.7,51.2c-0.4,0-0.9,0-1.3,0l0.8,2.2c0,0-0.1-0.1-0.1-0.1c-0.1-0.2-0.3-0.3-0.4-0.5c-0.3-0.3-0.5-0.7-0.7-1
		c-0.1-0.2-0.3-0.5-0.4-0.7c-0.5,0-0.9,0-1.5,0c0.6,1.3,1.2,2.5,1.8,3.6c-0.1,0.1-0.1,0.1-0.2,0.1c-0.1,0-0.2,0-0.2,0
		c1.7,1.7,3.7,2,6.1,1.8c-0.6-1.1-1.1-2.1-1.6-3.1c-0.6-0.7-1.3-1.4-1.9-2C13,51.4,12.9,51.2,12.7,51.2z"/>
	<path class="st3" d="M19.6,51.2c0.4,0.3,0.6,0.5,0.7,0.7c0.3,0.4,0.6,0.8,0.9,1.2l0.2,0.3c0,0,0.1,0.1,0.1,0.1l-0.8-2.2
		C20.4,51.2,20,51.2,19.6,51.2z"/>
	<path class="st3" d="M22,51.2c-0.4,0-0.9,0-1.3,0l0.8,2.2c0,0-0.1-0.1-0.1-0.1L21.2,53c-0.3-0.4-0.6-0.8-0.9-1.2
		c-0.1-0.2-0.4-0.4-0.7-0.7c-0.3,0-0.7,0-1,0c0.6,1.3,1.2,2.5,1.8,3.7c-0.2,0-0.3,0-0.4,0c1.7,1.7,3.7,2,6.1,1.8
		c-0.6-1.1-1.1-2.1-1.6-3.1c-0.6-0.7-1.3-1.4-1.9-2C22.4,51.4,22.2,51.2,22,51.2z"/>
	<path class="st3" d="M28.9,51.2c0.4,0.3,0.6,0.5,0.7,0.7c0.3,0.4,0.6,0.8,0.9,1.2l0.2,0.2l-1-2.1C29.5,51.2,29.2,51.2,28.9,51.2z"
		/>
	<path class="st3" d="M33.5,53.9c-0.5-0.8-1-1.5-1.6-2.3c-0.1-0.2-0.3-0.4-0.5-0.4c-0.5,0-1.1,0-1.6,0l1,2.1L30.6,53
		c-0.3-0.4-0.6-0.8-0.9-1.2c-0.1-0.2-0.4-0.4-0.7-0.7c-0.3,0-0.7,0-1,0c0.6,1.3,1.2,2.5,1.8,3.7c-0.2,0-0.3,0-0.4,0
		c1.7,1.7,3.8,2,6.1,1.8c-0.4-0.7-0.7-1.3-1-1.9C34.1,54.5,33.7,54.2,33.5,53.9z"/>
	<path class="st6" d="M8,31.9C8,31.9,8,31.9,8,31.9c0.1,0,0.2,0,0.3,0C8.2,31.9,8.1,31.9,8,31.9z"/>
	<path class="st6" d="M12,34.3C12,34.3,12,34.3,12,34.3c0.3,0,0.5,0,0.7,0c0,0,0,0,0,0c0.1-0.1,0.2-0.1,0.3-0.2
		c1.2-0.5,1.8-1.4,1.8-2.6c0-0.1,0-0.2,0-0.3l-2,0l0-0.6l0,0c0,0,0,0,0,0l0,0.6l-0.3,0c-0.2,0.3-0.4,0.5-0.6,0.7l0.3,0L12,34.3
		L12,34.3L12,34.3z"/>
	<path class="st6" d="M11.3,34.2c0.2,0,0.4,0,0.7,0l0.1-2.4l-0.3,0c-0.8,0.6-2,0.7-3.1,0.1c-0.1,0-0.2-0.1-0.3-0.1
		c-0.1,0-0.3,0-0.3,0c-0.8,0.5-1.6,0.6-2.4,0.4c0.4,1.5,1.8,2.2,3.6,1.9c0.3-0.2,0.6-0.4,0.9-0.5C10.5,33.9,10.9,34.1,11.3,34.2z"/>
	<path class="st6" d="M12.9,30.2c0,0.2-0.1,0.3-0.1,0.4l0,0l0,0.6l2,0c-0.1-0.5-0.2-0.9-0.5-1.3c-0.3-0.4-0.8-0.8-1.3-1.1h0
		c-0.1,0-0.1,0-0.2,0c0,0.1,0,0.2,0,0.3C12.9,29.5,12.9,29.9,12.9,30.2z"/>
	<path class="st6" d="M12.7,30.6c-0.1,0.2-0.2,0.4-0.3,0.6l0.3,0L12.7,30.6z"/>
	<path class="st6" d="M14.3,29.9c-0.3-0.4-0.8-0.8-1.3-1.1h0h0C13.6,29.1,14,29.5,14.3,29.9z"/>
	<path class="st6" d="M12.2,34.3C12.2,34.3,12.2,34.3,12.2,34.3C12.2,34.3,12.2,34.3,12.2,34.3C12.2,34.3,12.2,34.3,12.2,34.3z"/>
	<path class="st6" d="M12.1,34.3c0,0,0.1,0,0.1,0c0,0,0,0,0,0c0.2,0,0.3,0,0.5,0c0,0,0,0,0,0c0,0,0,0,0,0
		C12.5,34.3,12.3,34.3,12.1,34.3z"/>
	<path class="st6" d="M12.9,29.2c0-0.1,0-0.2,0-0.3l0,0C12.8,29,12.8,29.1,12.9,29.2z"/>
	<path class="st6" d="M10.8,45.2l-0.3,0.3c0.2,0,0.4,0,0.6,0L10.8,45.2z"/>
	<path class="st6" d="M10.5,45.5l0.3-0.3l0.3,0.3c0.8,0,1.7,0,2.5,0c0.3,0,0.7,0,1-0.1c-1.2-1.2-2.5-2.4-3.7-3.6
		c-1.2,1.2-2.4,2.4-3.6,3.6c0.2,0,0.5,0.1,0.7,0.1C8.9,45.5,9.7,45.5,10.5,45.5z"/>
	<path class="st6" d="M14.6,38.4l0.3-0.3c-0.2,0-0.4,0-0.6,0L14.6,38.4z"/>
	<path class="st6" d="M14.9,38.1l-0.3,0.3l-0.3-0.3c-1,0-2.1,0-3.1,0c1.2,1.2,2.5,2.4,3.7,3.6c1.2-1.2,2.4-2.3,3.6-3.5
		c-0.1,0-0.2-0.1-0.3-0.1C17.1,38.1,16,38.1,14.9,38.1z"/>
	<path class="st1" d="M46.8,11.7c0.6-0.6,1.1-1.3,1.7-1.9c-0.1-1-0.8-1.6-1.9-1.6c0,1.2,0,2.3,0,3.5C46.7,11.7,46.7,11.7,46.8,11.7z
		"/>
	<path class="st7" d="M10,34.7c0.4-0.2,0.8-0.4,1.3-0.4c-0.4-0.2-0.8-0.4-1.2-0.5c-0.3,0.2-0.6,0.3-0.9,0.5c0,0.5,0,1,0,1.5
		C9.4,35.2,9.7,34.9,10,34.7z"/>
	<path class="st6" d="M35,33.5c-1.5,0.7-3,0.9-4.7,0.7c0,0.1,0.1,0.1,0.1,0.2c2.9,2.5,7,2.4,9.8-0.1c2-1.7,2.8-4,2.5-6.6
		c-0.2-1.6-0.9-3-1.9-4.1l-2.5,0C40.1,27.2,38.7,31.6,35,33.5z"/>
	<path class="st6" d="M40.8,23.5c-0.5-0.5-1.1-1-1.8-1.4c-0.3-0.2-0.7-0.3-1.1-0.5c-0.4-0.1-0.7-0.2-1.1-0.3
		c0.3,0.3,0.5,0.6,0.8,0.9c0.3,0.4,0.6,0.9,0.8,1.3L40.8,23.5C40.9,23.6,40.8,23.6,40.8,23.5z"/>
	<path class="st4" d="M46.6,27.8c-0.6,0-0.8,0.4-0.9,0.9c0.1,5.2-4.1,10.1-10,10.3c-0.7,0-1.2,0.4-1.2,0.9c0,0.6,0.4,0.9,1.2,0.9
		c2.9-0.1,5.5-1,7.7-3c1.6-1.4,2.8-3.1,3.4-4.9h-0.4l0.9-2c0.1-0.7,0.2-1.5,0.3-2.3C47.5,28.2,47.2,27.8,46.6,27.8z"/>
	<path class="st4" d="M46.8,33c0.2-0.6,0.4-1.3,0.5-2l-0.9,2H46.8z"/>
	<path class="st4" d="M44.4,40.9c-0.5,0-0.9,0-1.4,0c-0.7,0-1.1,0.4-1.1,0.9c0,0.5,0.4,0.9,1.1,0.9c0.5,0,1.1,0,1.6,0
		c0.6,0,1,0.4,1,0.9c0,0.5-0.4,0.9-1.1,0.9c-0.5,0-1.1,0-1.6,0c-0.6,0-1,0.4-1,0.9c0,0.6,0.4,0.9,1,0.9c0.7,0,1.5,0,2.2,0
		c1.5-0.4,2.3-1.4,2.4-2.9c-0.1-0.5-0.2-0.9-0.4-1.2h-0.8l0.3-0.7C46.2,41.1,45.4,40.9,44.4,40.9z"/>
	<path class="st4" d="M47.2,42.3c-0.1-0.3-0.3-0.5-0.5-0.7l-0.3,0.7H47.2z"/>
	<path class="st4" d="M37.4,42.7c-0.6,0-1.2,0-1.9,0c-0.6,0-1,0.4-1,0.9c0,0.5,0.4,0.9,1,0.9c0.4,0,0.9,0,1.3,0
		c0.9,0,1.4,0.3,1.4,0.9c0,0.6-0.4,0.9-1.4,0.9c-0.4,0-0.9,0-1.3,0c-0.7,0-1.1,0.4-1.1,0.9c0,0.6,0.4,0.9,1.1,0.9c0.3,0,0.6,0,0.9,0
		c0,0,0,0,0,0c0.3,0,0.6,0,0.9,0c1.5-0.1,2.7-1.3,2.7-2.8C40.1,44,38.9,42.8,37.4,42.7z"/>
	<path class="st4" d="M42.8,52.1c-0.5,0-0.9,0.4-0.9,0.9c0,0.5,0.3,0.9,0.8,0.9c0.2,0,0.4,0,0.7,0l0.1-1.9
		C43.3,52.1,43.1,52.1,42.8,52.1z"/>
	<path class="st4" d="M44.7,48.3c-0.6,0-1.2,0-1.8,0c-0.6,0-1,0.4-1,0.9c0,0.6,0.4,0.9,1,1c0.5,0,1.1,0,1.6,0c0.6,0,1.1,0.4,1.1,0.9
		c0,0.4-0.2,0.7-0.5,0.8l1,1.6c0.1,0,0.1-0.1,0.2-0.1c0.2-0.2,0.3-0.3,0.5-0.5c0.1-0.1,0.1-0.2,0.2-0.2c0.2-0.4,0.4-0.7,0.5-1.1
		h-1.1l0.8-1.8c0,0,0,0,0,0C46.7,48.9,45.8,48.4,44.7,48.3z"/>
	<path class="st4" d="M47.5,51.7c0.1-0.6,0-1.2-0.3-1.8l-0.8,1.8H47.5z"/>
	<path class="st4" d="M45.2,51.9c-0.2,0.1-0.3,0.1-0.6,0.1c-0.4,0-0.7,0-1.1,0L43.4,54c0.4,0,0.8,0,1.2,0c0.2,0,0.4,0,0.5-0.1
		c0.4-0.1,0.7-0.2,1.1-0.3L45.2,51.9z"/>
	<path class="st4" d="M45.1,53.9c-0.2,0-0.4,0-0.5,0.1C44.8,54,44.9,53.9,45.1,53.9z"/>
	<path class="st8" d="M28.8,31.1c0.8,1,2.2,1.6,3.5,1.4c1.6-0.3,2.9-1.5,3.1-3.1c0.3-1.6-0.5-3.2-2-3.9c0,0.2,0,0.4,0,0.7
		c0.5,2.4-1.4,4.5-3.7,4.5l-0.1,0.5L28.8,31.1z"/>
	<path class="st8" d="M29.7,31.1l0.1-0.5c-0.2,0-0.5,0-0.7-0.1c-0.2,0-0.4,0-0.7,0c0.1,0.2,0.2,0.4,0.4,0.6L29.7,31.1z"/>
	<path class="st11" d="M61.7,44.1c0.5-1.3,0.8-2.4,0.9-3.1l0.6-2.9l0.7-3.4h-2.2c0.5-1.3,0.8-2.4,0.9-3.1l0.6-2.9l0.7-3.4h-2.2
		c0.5-1.3,0.8-2.4,0.9-3l0.6-2.9l0.7-3.4h-3.5h-1.9c0.7-0.7,1.4-1.4,2.1-2.2c1.7-1.7,2.4-3.7,2.2-5.9c-0.2-2-1.3-4-3-5.2
		c-1.1-0.8-2.4-1.2-3.7-1.3c-0.3,0-0.5,0-0.8,0c-1.3,0-3.2,0.4-5.1,2.4c-0.1,0.1-0.1,0.1-0.2,0.2c-1-0.6-2.2-1-3.4-1l-0.1,0l-0.1,0
		l-0.1,0l-0.1,0c-2,0.1-3.7,0.9-4.9,2.2c-0.1-0.5-0.3-1.1-0.5-1.6c-1-2.2-3.1-3.5-5.5-3.5c-0.8,0-1.7,0.2-2.5,0.5
		c-0.5,0.2-1.1,0.5-1.6,0.8C30.4,1.8,29.6,2,28.7,2l-0.1,0c-1.4,0-2.8,0-4.4,0c-1.8,0-3.6,0-5.3,0c-1.3,0-2.5,0.1-3.6,0.3
		C7.2,3.7,1.3,10.6,1,18.6c-0.1,2-0.1,3.9,0,5.8l0,0.3c0,0.6,0,1.2,0,1.8l0,0.4L1,27l0,0.1c0,0.2,0,0.4,0.1,0.6
		c-1,1.8-1.3,4-0.7,6.1c0.6,2.1,2,3.8,3.8,4.8c0.2,0.6,0.5,1.2,0.9,1.7l-0.6,0.6C1.7,42,0.2,44.2,0,47.2l0,0l0,0
		c-0.1,2.6,1.2,4.9,3.3,6.2c0.3,0.7,0.7,1.4,1.1,2.2c0.5,0.9,1,1.5,1.4,2l0,0C6,57.8,6.1,57.9,6.2,58l0.1,0.1l0.1,0.1l0.2,0.2
		l0.1,0.1l0.1,0.1c2.3,2.3,5.2,3.4,8.7,3.4c0.5,0,1.1,0,1.6-0.1l3.5-0.3l0.6-0.1c1.1,0.3,2.3,0.5,3.6,0.5c0.5,0,1.1,0,1.6-0.1
		l3.5-0.3l0.6-0.1c1.1,0.3,2.3,0.5,3.6,0.5c0.5,0,1.1,0,1.6-0.1l1.9-0.2c1.8,1.3,3.9,2,6.1,2.1c0.8,0,1.6,0,2.6,0c0.9,0,1.9,0,2.8,0
		l0.7,0c2.1,0,4-1.2,5.1-3c0.3-0.4,0.5-0.9,0.7-1.3c5.5-1.9,6.6-7.2,7-9l0.6-2.9l0.8-3.5H61.7z M59.8,49.8c-0.3,1.4-0.9,4.2-3.3,6
		c-0.6,0.4-1.3,0.8-2.1,1.1c-0.3,0.1-0.6,0.2-0.9,0.2c-0.2,0.4-0.4,0.8-0.6,1.2c-0.2,0.4-0.4,0.8-0.6,1.2c-0.3,0.5-0.7,0.9-1.1,1.1
		c-0.2,0.1-0.5,0.2-0.7,0.3c-0.1,0-0.3,0.1-0.4,0.1c-0.1,0-0.3,0-0.4,0L49,61c-0.9,0-1.8,0-2.8,0c-0.8,0-1.6,0-2.5,0
		c-2-0.1-3.9-0.8-5.4-2.2l-3,0.3c-0.4,0-0.8,0.1-1.2,0.1c0,0-0.1,0-0.2,0c0,0-0.1,0-0.1,0c-0.4,0-0.8,0-1.2-0.1c0,0-0.1,0-0.1,0
		c-0.4,0-0.7-0.1-1-0.2c-0.1,0-0.1,0-0.2,0c-0.4-0.1-0.7-0.2-1-0.3c-0.1,0-0.1-0.1-0.2-0.1c-0.3-0.1-0.7-0.3-1-0.5l0.4,0.8L26,59.1
		c-0.4,0-0.8,0.1-1.2,0.1c0,0-0.1,0-0.1,0c0,0-0.1,0-0.1,0c-0.4,0-0.8,0-1.2-0.1c0,0-0.1,0-0.1,0c-0.4,0-0.7-0.1-1-0.2
		c-0.1,0-0.1,0-0.2,0c-0.4-0.1-0.7-0.2-1-0.3c-0.1,0-0.1-0.1-0.2-0.1c-0.3-0.1-0.7-0.3-1-0.5l0.4,0.8l-3.5,0.3
		c-0.4,0-0.9,0.1-1.3,0.1c0,0,0,0-0.1,0c-0.4,0-0.7,0-1,0c-0.1,0-0.1,0-0.2,0c-0.3,0-0.6-0.1-0.8-0.1c-0.1,0-0.2-0.1-0.3-0.1
		c-0.2,0-0.4-0.1-0.6-0.2c-0.1,0-0.2-0.1-0.4-0.1c-0.2-0.1-0.4-0.1-0.6-0.2c-0.1,0-0.2-0.1-0.3-0.2c-0.2-0.1-0.4-0.2-0.5-0.3
		c-0.1-0.1-0.2-0.1-0.3-0.2c-0.2-0.1-0.4-0.2-0.5-0.4c-0.1-0.1-0.2-0.1-0.3-0.2c-0.3-0.2-0.5-0.4-0.7-0.7l-0.2-0.2
		c-0.1-0.2-0.3-0.3-0.4-0.5c-0.4-0.5-0.8-1-1.2-1.6c-0.5-0.9-1-1.9-1.4-2.8c0,0,0-0.1-0.1-0.1c-1.6-0.7-2.6-2.2-2.6-4
		C3,45.3,4,44,6,43.4l3.3-3.2C9.1,40,8.9,40,8.7,39.9c-0.3-0.2-0.7-0.4-0.9-0.7c-0.1-0.1-0.3-0.3-0.4-0.4c-0.2-0.3-0.4-0.6-0.5-1
		s-0.2-0.8-0.3-1.2c-1.7-0.4-3-1.7-3.6-3.5c-0.3-0.9-0.6-3,1-4.8c-0.2-0.4-0.3-0.9-0.3-1.3l0-0.4c0-0.7,0-1.4,0-2.2
		c0-1.8,0-3.7,0-5.6C4.1,12,9,6.3,15.6,5.1c0.9-0.2,2-0.3,3.1-0.3c0.8,0,1.6,0,2.5,0c0.3,0,0.6,0,0.8,0c0.6,0,1.1,0,1.7,0
		c0.1,0,0.2,0,0.3,0c0.1,0,0.2,0,0.3,0c1.4,0,2.7,0,4.1,0c0.2,0,0.5,0,0.7,0c0.2,0,0.3,0,0.5,0c0.2,0,0.4-0.1,0.6-0.1
		c0.1,0,0.3,0,0.4-0.1c0.2-0.1,0.4-0.1,0.6-0.2c0.1,0,0.2-0.1,0.3-0.1c0.3-0.1,0.6-0.3,0.9-0.4c0.4-0.2,0.9-0.5,1.3-0.7
		c0.2-0.1,0.4-0.2,0.7-0.2c0.1,0,0.1,0,0.2,0c0.1,0,0.3,0,0.4,0c0,0,0,0,0,0c0.2,0,0.3,0,0.5,0c0,0,0.1,0,0.1,0
		c0.1,0,0.3,0.1,0.4,0.1c0.1,0,0.1,0,0.2,0.1c0.1,0.1,0.3,0.1,0.4,0.2c0,0,0.1,0,0.1,0c0.2,0.1,0.3,0.2,0.4,0.3c0,0,0.1,0.1,0.1,0.1
		c0.1,0.1,0.2,0.2,0.3,0.3c0,0,0.1,0.1,0.1,0.1c0.1,0.2,0.2,0.3,0.3,0.5c0.5,1,0.4,2,0,2.9c-0.2,0.4-0.4,0.7-0.7,0.9
		c-0.2,0.1-0.3,0.3-0.5,0.4c0.5,0.3,0.9,0.7,1.2,1.3c0.8,1.6,0.2,3.5-1.3,4.4c-0.2,0.1-0.5,0.3-0.7,0.4c-0.1,0-0.2,0.1-0.2,0.1
		c-0.2,0.1-0.4,0.2-0.6,0.3c-0.1,0.1-0.2,0.1-0.3,0.1c-0.2,0.1-0.4,0.2-0.6,0.2c-0.1,0.1-0.3,0.1-0.4,0.1c-0.2,0.1-0.4,0.1-0.6,0.2
		c-0.1,0-0.3,0.1-0.4,0.1c-0.2,0.1-0.4,0.1-0.6,0.2c-0.2,0-0.3,0.1-0.5,0.1c-0.2,0-0.4,0.1-0.6,0.1c-0.2,0-0.4,0.1-0.5,0.1
		C30.4,17,30.2,17,30,17c-0.2,0-0.4,0-0.6,0c-0.2,0-0.3,0-0.5,0c-0.1,0-0.2,0-0.4,0c-1,0-2.1,0-3.1,0c-0.9,0-1.8,0-2.6,0
		c-0.8,0-1.6,0-2.4,0c-0.7,0-1.3,0.1-1.8,0.3s-1,0.5-1.4,0.9c-0.4,0.4-0.7,0.9-0.9,1.4c-0.2,0.5-0.3,1.1-0.3,1.8v2.2
		c0,0.9,0,1.9,0,2.8l9.6-0.1c1.1-4.5,5.2-7.4,10.5-7.5l3.7,0l1.2-1.2c0.1-0.1,0.3-0.3,0.6-0.5c0,0,0.1-0.1,0.1-0.1
		c0.1-0.1,0.2-0.1,0.2-0.2c0.1-0.1,0.1-0.2,0.2-0.4c0.1-0.2,0.1-0.6,0-1.1c-0.1-1.4-0.1-2.7-0.1-4c0-0.4,0-0.9,0-1.3
		c0-2.3,1.7-4.1,4.1-4.2l0.1,0l0.1,0c1.7,0.1,3,1,3.7,2.3c0.7-0.8,1.4-1.6,2.2-2.4c0.1-0.2,0.3-0.3,0.4-0.4c0,0,0.1-0.1,0.1-0.1
		C53,5.1,53.1,5.1,53.2,5c0.1,0,0.1-0.1,0.2-0.1c0.1-0.1,0.2-0.1,0.3-0.2c0,0,0.1-0.1,0.1-0.1c0.1-0.1,0.2-0.1,0.3-0.1
		c0,0,0.1,0,0.1,0c0.1,0,0.3-0.1,0.4-0.1c0,0,0.1,0,0.1,0c0.1,0,0.2,0,0.3,0c0,0,0.1,0,0.1,0c0,0,0.1,0,0.1,0c0,0,0,0,0.1,0
		c0.2,0,0.3,0,0.5,0c0,0,0.1,0,0.1,0c0.1,0,0.2,0,0.3,0c0.1,0,0.2,0,0.2,0c0.1,0,0.2,0,0.3,0.1c0.1,0,0.2,0,0.2,0.1
		c0.1,0,0.2,0.1,0.4,0.1c0.1,0,0.1,0,0.2,0.1c0.2,0.1,0.4,0.2,0.5,0.3c1,0.7,1.7,1.9,1.8,3.1c0.2,2.1-1,3.3-1.4,3.7
		c-2.2,2.3-4.4,4.6-6.6,7h8.5l-0.6,2.9c0,0.2-0.1,0.4-0.1,0.6c-0.1,0.2-0.1,0.5-0.2,0.8c-0.2,0.5-0.4,1.2-0.7,1.8
		c-0.6,1.2-1.5,2.5-3.1,3.3h4.7l-0.6,2.9c-0.3,1.4-1,4.8-4.1,6.5h4.7l-0.6,2.9c-0.1,0.4-0.2,0.8-0.3,1.4c-0.5,1.6-1.5,3.8-3.7,5.1
		h4.7L59.8,49.8z M26.1,19.9c-1.1,1-1.9,2.3-2.5,3.7l-4.7,0v-2.1c0-1.1,0.5-1.6,1.6-1.6c0.8,0,1.6,0,2.4,0c0.8,0,1.7,0,2.5,0
		C25.6,19.9,25.8,19.9,26.1,19.9z"/>
	<path class="st11" d="M22.5,43c0.1,0,0.1,0,0.2,0c0.6-0.4,0.6-0.6,0.6-0.7c0-0.2,0-0.6,0-1c0-0.1,0-0.1,0-0.2
		c-0.4-0.7-0.7-0.7-0.9-0.7c-0.5,0-0.9-0.1-1.4-0.1c-0.5,0-0.9,0-1.4,0c-0.1,0-0.3,0-0.4,0l-2.8,2.7h0c1.6,0,3.3,0,4.9,0
		C21.7,43.2,22.1,43.1,22.5,43z"/>
	<path class="st11" d="M12,34.3L12,34.3C12,34.3,12,34.3,12,34.3C12,34.3,12,34.3,12,34.3z"/>
	<path class="st11" d="M8.7,39.9c-0.3-0.2-0.7-0.4-0.9-0.7C8.1,39.4,8.4,39.7,8.7,39.9z"/>
	<path class="st11" d="M51.2,60.5c-0.2,0.1-0.5,0.2-0.7,0.3C50.8,60.8,51,60.7,51.2,60.5z"/>
	<path class="st11" d="M9.7,57.4c-0.1-0.1-0.2-0.1-0.3-0.2C9.5,57.3,9.6,57.3,9.7,57.4z"/>
	<path class="st11" d="M18.8,4.9c0.8,0,1.6,0,2.5,0C20.4,4.8,19.6,4.8,18.8,4.9z"/>
	<path class="st11" d="M22.1,4.8c0.6,0,1.1,0,1.7,0C23.2,4.8,22.6,4.8,22.1,4.8z"/>
	<path class="st11" d="M35.4,59.1c-0.4,0-0.8,0.1-1.2,0.1C34.6,59.1,35,59.1,35.4,59.1z"/>
	<path class="st11" d="M33.9,59.1c-0.4,0-0.8,0-1.2-0.1C33.1,59.1,33.5,59.1,33.9,59.1z"/>
	<path class="st11" d="M16.7,59.1c-0.4,0-0.9,0.1-1.3,0.1C15.8,59.1,16.2,59.1,16.7,59.1z"/>
	<path class="st11" d="M23.2,59c-0.4,0-0.7-0.1-1-0.2C22.5,58.9,22.8,59,23.2,59z"/>
	<path class="st11" d="M30.1,58.4c-0.3-0.1-0.7-0.3-1-0.5C29.4,58.1,29.8,58.3,30.1,58.4z"/>
	<path class="st11" d="M26,59.1c-0.4,0-0.8,0.1-1.2,0.1C25.2,59.1,25.6,59.1,26,59.1z"/>
	<path class="st11" d="M24.5,59.1c-0.4,0-0.8,0-1.2-0.1C23.7,59.1,24.1,59.1,24.5,59.1z"/>
	<path class="st11" d="M20.7,58.4c-0.3-0.1-0.7-0.3-1-0.5C20.1,58.1,20.4,58.3,20.7,58.4z"/>
	<path class="st11" d="M22,58.8c-0.4-0.1-0.7-0.2-1-0.3C21.3,58.6,21.6,58.7,22,58.8z"/>
	<path class="st11" d="M14.3,59.1c-0.1,0-0.1,0-0.2,0C14.2,59.1,14.2,59.1,14.3,59.1z"/>
	<path class="st11" d="M13.3,59c-0.1,0-0.2-0.1-0.3-0.1C13,58.9,13.2,58.9,13.3,59z"/>
	<path class="st11" d="M10.5,58c-0.1-0.1-0.2-0.1-0.3-0.2C10.3,57.8,10.4,57.9,10.5,58z"/>
	<path class="st11" d="M11.4,58.4c-0.1,0-0.2-0.1-0.3-0.2C11.2,58.3,11.3,58.3,11.4,58.4z"/>
	<path class="st11" d="M12.3,58.7c-0.1,0-0.2-0.1-0.4-0.1C12.1,58.6,12.2,58.7,12.3,58.7z"/>
	<path class="st11" d="M32.5,59c-0.4,0-0.7-0.1-1-0.2C31.8,58.9,32.2,59,32.5,59z"/>
	<path class="st11" d="M31.3,58.8c-0.4-0.1-0.7-0.2-1-0.3C30.6,58.6,31,58.7,31.3,58.8z"/>
	<path class="st11" d="M37.3,3.8c0,0,0.1,0.1,0.1,0.1C37.4,3.9,37.3,3.8,37.3,3.8z"/>
	<path class="st11" d="M55.4,4.3c0.2,0,0.3,0,0.5,0C55.7,4.3,55.5,4.3,55.4,4.3z"/>
	<path class="st11" d="M56.2,4.4c0.1,0,0.2,0,0.2,0C56.4,4.4,56.3,4.4,56.2,4.4z"/>
	<path class="st11" d="M55,4.3c0,0,0.1,0,0.1,0C55.1,4.3,55.1,4.3,55,4.3z"/>
	<path class="st11" d="M56.8,4.5c0.1,0,0.2,0,0.2,0.1C57,4.5,56.9,4.5,56.8,4.5z"/>
	<path class="st11" d="M53.6,4.7c0,0,0.1-0.1,0.1-0.1C53.7,4.7,53.7,4.7,53.6,4.7z"/>
	<path class="st11" d="M57.4,4.7c0.1,0,0.1,0,0.2,0.1C57.5,4.7,57.5,4.7,57.4,4.7z"/>
	<path class="st11" d="M53.2,5c0.1,0,0.1-0.1,0.2-0.1C53.3,4.9,53.3,4.9,53.2,5z"/>
	<path class="st11" d="M54.6,4.4c0,0,0.1,0,0.1,0C54.7,4.3,54.7,4.4,54.6,4.4z"/>
	<path class="st11" d="M54.1,4.5C54.1,4.5,54.2,4.5,54.1,4.5C54.2,4.5,54.1,4.5,54.1,4.5z"/>
	<path class="st11" d="M8.7,39.9C8.9,40,9.1,40,9.3,40.1L6,43.4l3.3-3.2C9.1,40,8.9,40,8.7,39.9z"/>
	<path class="st11" d="M51.9,18.9c2.2-2.3,4.4-4.6,6.6-7C56.3,14.2,54.1,16.6,51.9,18.9L51.9,18.9z"/>
	<path class="st11" d="M21,40.4c-0.5,0-0.9,0-1.4,0C20.1,40.5,20.6,40.4,21,40.4C21,40.4,21,40.4,21,40.4z"/>
	<path class="st11" d="M52.8,5.3c0,0,0.1-0.1,0.1-0.1C52.9,5.3,52.8,5.3,52.8,5.3z"/>
	<path class="st11" d="M21.4,43.2c-1.6,0-3.3,0-4.9,0c0.7,0,1.5,0,2.2,0C19.6,43.2,20.5,43.2,21.4,43.2z"/>
	<path class="st11" d="M49,61l0.7,0c0.1,0,0.3,0,0.4,0c-0.1,0-0.3,0-0.4,0L49,61z"/>
	<path class="st11" d="M29.2,4.8c-0.2,0-0.5,0-0.7,0c0.1,0,0.1,0,0.2,0C28.8,4.9,29,4.8,29.2,4.8z"/>
	<path class="st11" d="M16.3,19.7c0.2-0.5,0.5-1,0.9-1.4C16.8,18.7,16.5,19.1,16.3,19.7z"/>
	<path class="st11" d="M22.8,17c0.9,0,1.8,0,2.6,0c0,0-0.1,0-0.1,0C24.5,17,23.6,17,22.8,17z"/>
	<path class="st11" d="M38.1,7.8c-0.2,0.4-0.4,0.7-0.7,0.9C37.7,8.4,37.9,8.1,38.1,7.8z"/>
	<path class="st11" d="M34.7,3c0.1,0,0.3,0,0.4,0C35,3,34.8,3,34.7,3z"/>
	<path class="st11" d="M35.7,3c0,0,0.1,0,0.1,0C35.8,3,35.7,3,35.7,3z"/>
	<path class="st11" d="M36.2,3.2c0.1,0,0.1,0,0.2,0.1C36.3,3.2,36.3,3.2,36.2,3.2z"/>
	<path class="st11" d="M30.6,4.6c0.2-0.1,0.4-0.1,0.6-0.2C31.1,4.5,30.9,4.6,30.6,4.6z"/>
	<path class="st11" d="M29.6,4.8c0.2,0,0.4-0.1,0.6-0.1C30,4.7,29.8,4.8,29.6,4.8z"/>
	<path class="st11" d="M36.8,3.4C36.8,3.4,36.8,3.4,36.8,3.4C36.8,3.4,36.8,3.4,36.8,3.4z"/>
	<path class="st11" d="M31.6,4.3c0.3-0.1,0.6-0.3,0.9-0.4C32.2,4.1,31.9,4.2,31.6,4.3z"/>
	<path class="st11" d="M30,17c-0.2,0-0.4,0-0.6,0C29.6,17,29.8,17,30,17z"/>
	<path class="st11" d="M33.8,3.3c0.2-0.1,0.4-0.2,0.7-0.2C34.2,3.1,34,3.2,33.8,3.3z"/>
	<path class="st11" d="M33.3,16.3c-0.1,0-0.3,0.1-0.4,0.1C33,16.4,33.2,16.4,33.3,16.3z"/>
	<path class="st11" d="M32.3,16.6c-0.2,0-0.3,0.1-0.5,0.1C31.9,16.7,32.1,16.7,32.3,16.6z"/>
	<path class="st11" d="M34.3,16c-0.1,0.1-0.3,0.1-0.4,0.1C34,16.1,34.2,16,34.3,16z"/>
	<path class="st11" d="M31.1,16.9c-0.2,0-0.4,0.1-0.5,0.1C30.8,16.9,31,16.9,31.1,16.9z"/>
	<path class="st11" d="M24.4,4.8c1.4,0,2.7,0,4.1,0C27.1,4.8,25.7,4.8,24.4,4.8z"/>
	<path class="st11" d="M37.7,4.2c0,0,0.1,0.1,0.1,0.1C37.8,4.3,37.7,4.3,37.7,4.2z"/>
	<path class="st11" d="M36,15.2c-0.1,0-0.2,0.1-0.2,0.1C35.8,15.2,35.9,15.2,36,15.2z"/>
	<path class="st11" d="M35.2,15.6c-0.1,0.1-0.2,0.1-0.3,0.1C35,15.7,35.1,15.6,35.2,15.6z"/>
	<path class="st11" d="M12,34.3L12,34.3c0.1,0,0.2,0,0.2,0C12.1,34.3,12.1,34.3,12,34.3C12,34.3,12,34.3,12,34.3z"/>
	<path class="st11" d="M12.1,34.3C12,34.3,12,34.3,12.1,34.3L12.1,34.3C12,34.3,12,34.3,12.1,34.3C12,34.3,12.1,34.3,12.1,34.3z"/>
	<path class="st11" d="M12.1,34.3C12.1,34.3,12,34.3,12.1,34.3c0,0,0.1,0,0.1,0c0,0,0,0,0,0C12.2,34.3,12.1,34.3,12.1,34.3z"/>
	<path class="st11" d="M8,26l-1-6.9C7,19,7,19,7,18.9L8,16c0,0,0,0,0,0l0.9-3.8c0-0.1,0.1-0.3,0.3-0.3L13,10c0,0,0,0,0.1,0l2.9-1.9
		C16,8,16.1,8,16.1,8H21h5h4.9C31,8,31,8,31.1,7.9L35,6c0,0,1.3-0.3,1.1-0.2C36,6,34,7,34,7.7c0,0.1,0.8,0.8,1.2,1.1l0.3,0.5
		l0.2,0.4l0.1,0.2c0.2,0.8,0.1,1.3-0.2,1.9l-0.5,0.9c-0.1,0.2-0.3,0.3-0.4,0.3H33h-4h-4c0,0,0,0-0.1,0l-6.9,1c0,0-0.1,0-0.1,0
		c-0.4,0.2-2.6,1.1-2.9,1c-0.3-0.1-1.5,1.4-1.9,1.9C13,17,13,17.1,13,17.2V19c0,0,0,1,0,2v2.9c0,0.1,0,0.2-0.1,0.2l-0.8,1.6
		c-0.1,0.2-0.3,0.3-0.4,0.3H10H8"/>
	<path class="st2" d="M8.3,25c0-1.9,0-3.9,0-5.8c0-0.6,0.1-1.1,0.2-1.7c1-5,5.1-8.4,10.3-8.4c3.5,0,6.9,0,10.4,0
		c2.5,0,4.6-0.8,6.7-2c0.5-0.3,0.6-0.8,0.4-1.2C36,5.4,35.5,5.2,35,5.4c-0.4,0.2-0.7,0.3-1.1,0.5c-1.6,0.9-3.4,1.3-5.2,1.2
		c-3.2,0-6.4,0-9.6,0c-0.9,0-1.8,0.1-2.7,0.2c-5.4,1-9.7,5.7-9.9,11.4c-0.1,2.6,0,5.2,0,7.8c0,0.7,0.2,1,0.9,1.1
		c0-0.9,0.4-1.6,1.1-2.2C8.4,25.4,8.3,25.2,8.3,25z"/>
	<path class="st2" d="M13.9,26.7c0-1.7,0-3.5,0-5.2c0-3.9,2.8-6.8,6.8-6.8c2.7,0,5.5-0.1,8.2,0c2.6,0.1,4.8-0.8,7-2
		c0.5-0.3,0.6-0.8,0.4-1.3C36,11,35.5,10.8,35,11.1c-0.5,0.2-0.9,0.5-1.4,0.7c-1.4,0.8-2.9,1.1-4.5,1.1c-2.7,0-5.3,0-8,0
		c-0.6,0-1.2,0-1.9,0.1c-3.5,0.4-6.7,3.6-7,7c-0.2,1.6-0.1,3.3-0.1,5c0,0.2-0.1,0.4-0.1,0.7c0.7,0.6,1,1.3,1.1,2.2
		C13.7,27.6,13.9,27.4,13.9,26.7z"/>
</g>
</svg>
