<?xml version="1.0" encoding="utf-8"?>
<!-- Generator: Adobe Illustrator 23.0.1, SVG Export Plug-In . SVG Version: 6.00 Build 0)  -->
<svg version="1.1" id="Layer_1" xmlns="http://www.w3.org/2000/svg" xmlns:xlink="http://www.w3.org/1999/xlink" x="0px" y="0px"
	 viewBox="0 0 64 64" style="enable-background:new 0 0 64 64;" xml:space="preserve">
<style type="text/css">
	.st0{fill:#F9C83A;}
</style>
<g>
	<g>
		<path class="st0" d="M39.4,11.2c0,10.1,0.3,20.1-0.1,30C39,47.4,34.1,50,28.8,51.6c-1,0.3-2,0.4-3.3,0.6c-0.3-2.6-0.5-4.9-0.8-7.6
			c5.5-0.7,6.7-4.6,6.8-9.2c0.1-4.2,0.3-8.3,0.6-12.5c0.1-1.4,0.9-2.8,1.4-4.3c-2,0-4.7,0-7.7,0c0.6-2.7,1.1-5.1,1.7-7.5
			C31.6,11.2,35.4,11.2,39.4,11.2 M42.4,8.2h-3H27.6h-2.4l-0.5,2.3l-0.9,4L23,18l-0.8,3.7h3.8h3.5c-0.1,0.4-0.1,0.7-0.2,1.1
			c-0.3,4.1-0.5,8.1-0.6,12.6c-0.2,4.9-1.6,6-4.2,6.3l-2.9,0.4l0.3,2.9l0.8,7.6l0.3,3.3l3.2-0.6c0.4-0.1,0.8-0.1,1.2-0.2
			c0.8-0.1,1.6-0.3,2.5-0.5c3.3-1,12.2-3.8,12.6-13.2c0.3-7.1,0.2-14.2,0.2-21.2c0-2.9-0.1-6-0.1-8.9V8.2L42.4,8.2z"/>
	</g>
</g>
</svg>
